G04 #@! TF.GenerationSoftware,KiCad,Pcbnew,(5.1.0)-1*
G04 #@! TF.CreationDate,2019-06-04T19:04:59+05:30*
G04 #@! TF.ProjectId,BQ76pl455a,42513736-706c-4343-9535-612e6b696361,rev?*
G04 #@! TF.SameCoordinates,Original*
G04 #@! TF.FileFunction,Legend,Bot*
G04 #@! TF.FilePolarity,Positive*
%FSLAX46Y46*%
G04 Gerber Fmt 4.6, Leading zero omitted, Abs format (unit mm)*
G04 Created by KiCad (PCBNEW (5.1.0)-1) date 2019-06-04 19:04:59*
%MOMM*%
%LPD*%
G04 APERTURE LIST*
%ADD10C,0.300000*%
%ADD11C,0.150000*%
%ADD12C,0.381000*%
%ADD13C,0.010000*%
%ADD14C,0.120000*%
G04 APERTURE END LIST*
D10*
X160724761Y-83910476D02*
X158724761Y-83910476D01*
X158724761Y-84672380D01*
X158820000Y-84862857D01*
X158915238Y-84958095D01*
X159105714Y-85053333D01*
X159391428Y-85053333D01*
X159581904Y-84958095D01*
X159677142Y-84862857D01*
X159772380Y-84672380D01*
X159772380Y-83910476D01*
X160724761Y-85910476D02*
X159391428Y-85910476D01*
X159772380Y-85910476D02*
X159581904Y-86005714D01*
X159486666Y-86100952D01*
X159391428Y-86291428D01*
X159391428Y-86481904D01*
X160724761Y-87434285D02*
X160629523Y-87243809D01*
X160534285Y-87148571D01*
X160343809Y-87053333D01*
X159772380Y-87053333D01*
X159581904Y-87148571D01*
X159486666Y-87243809D01*
X159391428Y-87434285D01*
X159391428Y-87720000D01*
X159486666Y-87910476D01*
X159581904Y-88005714D01*
X159772380Y-88100952D01*
X160343809Y-88100952D01*
X160534285Y-88005714D01*
X160629523Y-87910476D01*
X160724761Y-87720000D01*
X160724761Y-87434285D01*
X159391428Y-88958095D02*
X161105714Y-88958095D01*
X161296190Y-88862857D01*
X161391428Y-88672380D01*
X161391428Y-88577142D01*
X158724761Y-88958095D02*
X158820000Y-88862857D01*
X158915238Y-88958095D01*
X158820000Y-89053333D01*
X158724761Y-88958095D01*
X158915238Y-88958095D01*
X160629523Y-90672380D02*
X160724761Y-90481904D01*
X160724761Y-90100952D01*
X160629523Y-89910476D01*
X160439047Y-89815238D01*
X159677142Y-89815238D01*
X159486666Y-89910476D01*
X159391428Y-90100952D01*
X159391428Y-90481904D01*
X159486666Y-90672380D01*
X159677142Y-90767619D01*
X159867619Y-90767619D01*
X160058095Y-89815238D01*
X160629523Y-92481904D02*
X160724761Y-92291428D01*
X160724761Y-91910476D01*
X160629523Y-91720000D01*
X160534285Y-91624761D01*
X160343809Y-91529523D01*
X159772380Y-91529523D01*
X159581904Y-91624761D01*
X159486666Y-91720000D01*
X159391428Y-91910476D01*
X159391428Y-92291428D01*
X159486666Y-92481904D01*
X159391428Y-93053333D02*
X159391428Y-93815238D01*
X158724761Y-93339047D02*
X160439047Y-93339047D01*
X160629523Y-93434285D01*
X160724761Y-93624761D01*
X160724761Y-93815238D01*
X158820000Y-97053333D02*
X158724761Y-96862857D01*
X158724761Y-96577142D01*
X158820000Y-96291428D01*
X159010476Y-96100952D01*
X159200952Y-96005714D01*
X159581904Y-95910476D01*
X159867619Y-95910476D01*
X160248571Y-96005714D01*
X160439047Y-96100952D01*
X160629523Y-96291428D01*
X160724761Y-96577142D01*
X160724761Y-96767619D01*
X160629523Y-97053333D01*
X160534285Y-97148571D01*
X159867619Y-97148571D01*
X159867619Y-96767619D01*
X160724761Y-98862857D02*
X159677142Y-98862857D01*
X159486666Y-98767619D01*
X159391428Y-98577142D01*
X159391428Y-98196190D01*
X159486666Y-98005714D01*
X160629523Y-98862857D02*
X160724761Y-98672380D01*
X160724761Y-98196190D01*
X160629523Y-98005714D01*
X160439047Y-97910476D01*
X160248571Y-97910476D01*
X160058095Y-98005714D01*
X159962857Y-98196190D01*
X159962857Y-98672380D01*
X159867619Y-98862857D01*
X160724761Y-99815238D02*
X159391428Y-99815238D01*
X159772380Y-99815238D02*
X159581904Y-99910476D01*
X159486666Y-100005714D01*
X159391428Y-100196190D01*
X159391428Y-100386666D01*
X159391428Y-101910476D02*
X160724761Y-101910476D01*
X159391428Y-101053333D02*
X160439047Y-101053333D01*
X160629523Y-101148571D01*
X160724761Y-101339047D01*
X160724761Y-101624761D01*
X160629523Y-101815238D01*
X160534285Y-101910476D01*
X160724761Y-103720000D02*
X158724761Y-103720000D01*
X160629523Y-103720000D02*
X160724761Y-103529523D01*
X160724761Y-103148571D01*
X160629523Y-102958095D01*
X160534285Y-102862857D01*
X160343809Y-102767619D01*
X159772380Y-102767619D01*
X159581904Y-102862857D01*
X159486666Y-102958095D01*
X159391428Y-103148571D01*
X159391428Y-103529523D01*
X159486666Y-103720000D01*
X160724761Y-105529523D02*
X159677142Y-105529523D01*
X159486666Y-105434285D01*
X159391428Y-105243809D01*
X159391428Y-104862857D01*
X159486666Y-104672380D01*
X160629523Y-105529523D02*
X160724761Y-105339047D01*
X160724761Y-104862857D01*
X160629523Y-104672380D01*
X160439047Y-104577142D01*
X160248571Y-104577142D01*
X160058095Y-104672380D01*
X159962857Y-104862857D01*
X159962857Y-105339047D01*
X159867619Y-105529523D01*
D11*
X160672380Y-58505714D02*
X160196190Y-58172380D01*
X160672380Y-57934285D02*
X159672380Y-57934285D01*
X159672380Y-58315238D01*
X159720000Y-58410476D01*
X159767619Y-58458095D01*
X159862857Y-58505714D01*
X160005714Y-58505714D01*
X160100952Y-58458095D01*
X160148571Y-58410476D01*
X160196190Y-58315238D01*
X160196190Y-57934285D01*
X159672380Y-59124761D02*
X159672380Y-59315238D01*
X159720000Y-59410476D01*
X159815238Y-59505714D01*
X160005714Y-59553333D01*
X160339047Y-59553333D01*
X160529523Y-59505714D01*
X160624761Y-59410476D01*
X160672380Y-59315238D01*
X160672380Y-59124761D01*
X160624761Y-59029523D01*
X160529523Y-58934285D01*
X160339047Y-58886666D01*
X160005714Y-58886666D01*
X159815238Y-58934285D01*
X159720000Y-59029523D01*
X159672380Y-59124761D01*
X160672380Y-59981904D02*
X159672380Y-59981904D01*
X160148571Y-59981904D02*
X160148571Y-60553333D01*
X160672380Y-60553333D02*
X159672380Y-60553333D01*
X160624761Y-60981904D02*
X160672380Y-61124761D01*
X160672380Y-61362857D01*
X160624761Y-61458095D01*
X160577142Y-61505714D01*
X160481904Y-61553333D01*
X160386666Y-61553333D01*
X160291428Y-61505714D01*
X160243809Y-61458095D01*
X160196190Y-61362857D01*
X160148571Y-61172380D01*
X160100952Y-61077142D01*
X160053333Y-61029523D01*
X159958095Y-60981904D01*
X159862857Y-60981904D01*
X159767619Y-61029523D01*
X159720000Y-61077142D01*
X159672380Y-61172380D01*
X159672380Y-61410476D01*
X159720000Y-61553333D01*
D12*
X167429640Y-74872160D02*
X164330840Y-76071040D01*
X164330840Y-76071040D02*
X164729620Y-75471600D01*
X165430660Y-74470840D02*
X162629040Y-75771320D01*
X167429640Y-74872160D02*
X166731140Y-75471600D01*
X162430920Y-75270940D02*
X165430660Y-74470840D01*
X165430660Y-74470840D02*
X164630560Y-75669720D01*
X164630560Y-75669720D02*
X167429640Y-74872160D01*
X167429640Y-74872160D02*
X166530480Y-74770560D01*
X161039000Y-75370000D02*
X168024000Y-80069000D01*
X168024000Y-80069000D02*
X168024000Y-70671000D01*
X168024000Y-70671000D02*
X161039000Y-75370000D01*
D13*
G36*
X145634848Y-88394430D02*
G01*
X145721931Y-88393811D01*
X146180891Y-87942086D01*
X146639852Y-87490361D01*
X146850471Y-87490032D01*
X147061089Y-87489703D01*
X147061089Y-87214610D01*
X147114530Y-87207522D01*
X147138888Y-87204838D01*
X147184759Y-87200313D01*
X147249405Y-87194191D01*
X147330091Y-87186712D01*
X147424081Y-87178119D01*
X147528637Y-87168654D01*
X147641025Y-87158558D01*
X147758507Y-87148074D01*
X147878348Y-87137444D01*
X147997811Y-87126909D01*
X148114159Y-87116713D01*
X148224657Y-87107095D01*
X148326569Y-87098300D01*
X148417158Y-87090568D01*
X148493687Y-87084142D01*
X148553421Y-87079263D01*
X148593624Y-87076175D01*
X148611559Y-87075117D01*
X148611644Y-87075118D01*
X148626035Y-87082827D01*
X148655748Y-87105981D01*
X148701131Y-87144895D01*
X148762529Y-87199884D01*
X148840288Y-87271264D01*
X148934754Y-87359349D01*
X149046272Y-87464454D01*
X149175188Y-87586895D01*
X149211287Y-87621310D01*
X149783416Y-88167137D01*
X149871436Y-88078881D01*
X149793758Y-88007485D01*
X149765686Y-87981366D01*
X149722274Y-87940566D01*
X149666366Y-87887777D01*
X149600808Y-87825691D01*
X149528441Y-87757000D01*
X149452112Y-87684396D01*
X149406524Y-87640960D01*
X149321119Y-87559416D01*
X149252710Y-87493504D01*
X149200053Y-87441544D01*
X149161905Y-87401855D01*
X149137020Y-87372757D01*
X149124156Y-87352569D01*
X149122068Y-87339610D01*
X149129513Y-87332200D01*
X149145246Y-87328658D01*
X149168023Y-87327303D01*
X149174239Y-87327121D01*
X149217061Y-87317703D01*
X149268819Y-87294497D01*
X149321328Y-87262136D01*
X149366403Y-87225252D01*
X149380328Y-87210493D01*
X149429047Y-87134767D01*
X149456306Y-87046308D01*
X149462773Y-86968100D01*
X149450576Y-86879468D01*
X149414813Y-86797612D01*
X149356722Y-86725164D01*
X149342262Y-86711797D01*
X149286733Y-86662918D01*
X149286733Y-85817326D01*
X149462773Y-85817326D01*
X149462773Y-85590990D01*
X149380531Y-85590990D01*
X149324386Y-85588150D01*
X149285416Y-85578607D01*
X149264219Y-85567009D01*
X149249052Y-85558723D01*
X149227062Y-85551627D01*
X149194987Y-85545252D01*
X149149569Y-85539128D01*
X149087548Y-85532784D01*
X149005662Y-85525750D01*
X148944746Y-85520934D01*
X148659343Y-85498839D01*
X149208805Y-84956435D01*
X149308228Y-84858363D01*
X149403815Y-84764216D01*
X149493810Y-84675715D01*
X149576457Y-84594580D01*
X149650001Y-84522531D01*
X149712684Y-84461288D01*
X149762752Y-84412573D01*
X149798448Y-84378104D01*
X149817995Y-84359621D01*
X149848944Y-84329257D01*
X149870530Y-84303929D01*
X149877723Y-84290305D01*
X149869297Y-84272905D01*
X149848245Y-84247540D01*
X149839671Y-84238942D01*
X149801620Y-84202486D01*
X149597658Y-84403198D01*
X149545699Y-84454404D01*
X149478820Y-84520431D01*
X149399950Y-84598382D01*
X149312014Y-84685362D01*
X149217941Y-84778474D01*
X149120658Y-84874821D01*
X149023093Y-84971508D01*
X148953145Y-85040866D01*
X148846550Y-85146297D01*
X148756307Y-85234871D01*
X148681192Y-85307719D01*
X148619986Y-85365977D01*
X148571466Y-85410775D01*
X148546129Y-85432979D01*
X148546129Y-85611276D01*
X148831555Y-85633599D01*
X148915219Y-85640331D01*
X148991727Y-85646843D01*
X149057081Y-85652766D01*
X149107281Y-85657732D01*
X149138329Y-85661371D01*
X149145273Y-85662542D01*
X149173565Y-85669162D01*
X149173565Y-86618636D01*
X149094606Y-86624974D01*
X149001315Y-86644110D01*
X148918791Y-86684154D01*
X148850038Y-86742582D01*
X148798063Y-86816871D01*
X148766863Y-86900252D01*
X148752228Y-86927302D01*
X148720819Y-86940844D01*
X148719434Y-86941128D01*
X148706174Y-86942753D01*
X148692595Y-86940744D01*
X148676181Y-86933142D01*
X148654411Y-86917984D01*
X148624767Y-86893312D01*
X148584732Y-86857164D01*
X148531785Y-86807580D01*
X148463409Y-86742599D01*
X148459005Y-86738401D01*
X148385611Y-86668507D01*
X148307437Y-86594200D01*
X148229864Y-86520586D01*
X148158275Y-86452771D01*
X148098051Y-86395860D01*
X148084587Y-86383168D01*
X148033820Y-86334513D01*
X147990375Y-86291291D01*
X147957241Y-86256605D01*
X147937405Y-86233556D01*
X147933046Y-86225818D01*
X147942170Y-86214278D01*
X147967200Y-86187290D01*
X148006052Y-86146979D01*
X148056643Y-86095471D01*
X148116888Y-86034891D01*
X148184704Y-85967364D01*
X148240565Y-85912174D01*
X148546129Y-85611276D01*
X148546129Y-85432979D01*
X148534411Y-85443249D01*
X148507599Y-85464529D01*
X148489808Y-85475749D01*
X148481570Y-85478246D01*
X148463590Y-85477300D01*
X148422892Y-85474427D01*
X148361819Y-85469813D01*
X148282713Y-85463642D01*
X148187914Y-85456102D01*
X148079767Y-85447379D01*
X147960612Y-85437657D01*
X147832791Y-85427124D01*
X147730635Y-85418635D01*
X147154674Y-85370604D01*
X147154674Y-85494195D01*
X147167104Y-85494727D01*
X147202110Y-85497231D01*
X147257215Y-85501504D01*
X147329943Y-85507347D01*
X147417814Y-85514557D01*
X147518351Y-85522934D01*
X147629077Y-85532277D01*
X147734205Y-85541242D01*
X147853483Y-85551398D01*
X147966080Y-85560858D01*
X148069305Y-85569404D01*
X148160473Y-85576821D01*
X148236895Y-85582892D01*
X148295883Y-85587399D01*
X148334749Y-85590127D01*
X148349844Y-85590884D01*
X148359238Y-85592065D01*
X148362966Y-85596744D01*
X148359471Y-85606724D01*
X148347199Y-85623810D01*
X148324594Y-85649804D01*
X148290100Y-85686510D01*
X148242162Y-85735733D01*
X148179224Y-85799274D01*
X148111968Y-85866695D01*
X147836477Y-86142399D01*
X147834406Y-86140467D01*
X147834406Y-86322710D01*
X147845780Y-86331016D01*
X147872563Y-86354267D01*
X147912292Y-86390135D01*
X147962507Y-86436287D01*
X148020746Y-86490394D01*
X148084547Y-86550126D01*
X148151449Y-86613152D01*
X148218990Y-86677142D01*
X148284710Y-86739764D01*
X148346146Y-86798690D01*
X148400837Y-86851588D01*
X148446322Y-86896128D01*
X148480138Y-86929980D01*
X148499826Y-86950812D01*
X148503837Y-86956494D01*
X148490891Y-86958366D01*
X148455134Y-86962254D01*
X148398804Y-86967943D01*
X148324140Y-86975219D01*
X148233380Y-86983869D01*
X148128762Y-86993678D01*
X148012526Y-87004434D01*
X147886908Y-87015921D01*
X147785618Y-87025093D01*
X147654279Y-87036826D01*
X147530552Y-87047665D01*
X147416681Y-87057430D01*
X147314911Y-87065937D01*
X147227487Y-87073005D01*
X147156653Y-87078451D01*
X147104653Y-87082092D01*
X147073732Y-87083747D01*
X147065703Y-87083558D01*
X147072854Y-87073666D01*
X147095841Y-87048476D01*
X147132439Y-87010190D01*
X147180422Y-86961011D01*
X147237566Y-86903139D01*
X147301647Y-86838778D01*
X147370438Y-86770129D01*
X147441716Y-86699395D01*
X147513255Y-86628778D01*
X147582830Y-86560480D01*
X147648217Y-86496704D01*
X147707191Y-86439650D01*
X147757527Y-86391522D01*
X147796999Y-86354522D01*
X147823383Y-86330852D01*
X147834406Y-86322710D01*
X147834406Y-86140467D01*
X147726295Y-86039591D01*
X147670377Y-85987232D01*
X147607948Y-85928465D01*
X147541443Y-85865615D01*
X147473298Y-85801005D01*
X147405948Y-85736958D01*
X147341828Y-85675797D01*
X147283372Y-85619847D01*
X147233018Y-85571430D01*
X147193198Y-85532870D01*
X147166350Y-85506491D01*
X147154908Y-85494616D01*
X147154674Y-85494195D01*
X147154674Y-85370604D01*
X147010726Y-85358599D01*
X146379158Y-84758062D01*
X145747589Y-84157525D01*
X145659315Y-84157966D01*
X145571040Y-84158408D01*
X145674666Y-84255417D01*
X145732463Y-84309709D01*
X145800368Y-84373808D01*
X145876572Y-84445984D01*
X145959269Y-84524508D01*
X146046653Y-84607651D01*
X146136915Y-84693681D01*
X146228250Y-84780870D01*
X146318849Y-84867487D01*
X146406907Y-84951803D01*
X146490615Y-85032088D01*
X146568167Y-85106613D01*
X146637757Y-85173646D01*
X146697576Y-85231459D01*
X146745818Y-85278321D01*
X146780676Y-85312504D01*
X146800343Y-85332276D01*
X146804116Y-85336610D01*
X146790992Y-85336908D01*
X146757389Y-85335269D01*
X146707880Y-85331977D01*
X146647037Y-85327318D01*
X146622732Y-85325318D01*
X146444951Y-85310423D01*
X146444951Y-85427045D01*
X146473243Y-85433066D01*
X146495618Y-85436137D01*
X146537717Y-85440452D01*
X146594178Y-85445512D01*
X146659635Y-85450819D01*
X146683862Y-85452656D01*
X146753421Y-85458073D01*
X146818018Y-85463541D01*
X146871548Y-85468512D01*
X146907910Y-85472439D01*
X146914509Y-85473325D01*
X146928056Y-85476666D01*
X146943914Y-85483899D01*
X146963861Y-85496560D01*
X146989673Y-85516189D01*
X147023129Y-85544322D01*
X147066007Y-85582498D01*
X147120083Y-85632254D01*
X147187136Y-85695129D01*
X147268943Y-85772659D01*
X147351950Y-85851749D01*
X147434094Y-85930436D01*
X147510169Y-86003888D01*
X147578325Y-86070276D01*
X147636712Y-86127773D01*
X147683481Y-86174549D01*
X147716782Y-86208776D01*
X147734767Y-86228627D01*
X147737442Y-86232860D01*
X147727741Y-86243997D01*
X147702441Y-86270029D01*
X147664082Y-86308430D01*
X147615200Y-86356672D01*
X147558334Y-86412230D01*
X147516906Y-86452408D01*
X147300000Y-86662169D01*
X147300000Y-86043663D01*
X147061089Y-86043663D01*
X147061089Y-86798119D01*
X147167542Y-86798119D01*
X147029654Y-86936435D01*
X146931840Y-87034553D01*
X146931840Y-87225643D01*
X146947270Y-87227471D01*
X146955867Y-87236723D01*
X146959613Y-87259050D01*
X146960489Y-87300105D01*
X146960495Y-87307376D01*
X146960495Y-87389109D01*
X146741172Y-87389109D01*
X146822179Y-87307376D01*
X146871428Y-87261270D01*
X146909159Y-87233694D01*
X146931840Y-87225643D01*
X146931840Y-87034553D01*
X146891766Y-87074752D01*
X146768952Y-87074752D01*
X146712450Y-87075137D01*
X146676505Y-87076900D01*
X146656530Y-87080950D01*
X146647937Y-87088199D01*
X146646139Y-87099130D01*
X146643498Y-87111288D01*
X146632912Y-87120273D01*
X146610381Y-87127174D01*
X146571909Y-87133076D01*
X146513498Y-87139065D01*
X146492104Y-87140987D01*
X146444951Y-87145148D01*
X146444951Y-85427045D01*
X146444951Y-85310423D01*
X146444951Y-85150891D01*
X146331782Y-85150891D01*
X146331782Y-85218686D01*
X146330696Y-85258338D01*
X146325454Y-85279884D01*
X146322334Y-85282520D01*
X146322334Y-85421384D01*
X146329462Y-85428692D01*
X146331662Y-85454007D01*
X146331782Y-85471092D01*
X146331782Y-85528119D01*
X146331782Y-85740779D01*
X146331782Y-87155302D01*
X146282786Y-87107458D01*
X146222324Y-87033150D01*
X146175691Y-86941184D01*
X146142249Y-86830002D01*
X146123753Y-86719529D01*
X146115122Y-86647227D01*
X146206040Y-86647227D01*
X146206040Y-86068812D01*
X146102893Y-86068812D01*
X146111496Y-85983935D01*
X146118756Y-85924632D01*
X146128379Y-85861449D01*
X146135252Y-85823614D01*
X146150407Y-85748168D01*
X146241095Y-85744474D01*
X146331782Y-85740779D01*
X146331782Y-85528119D01*
X146281485Y-85528119D01*
X146249976Y-85526456D01*
X146232463Y-85522303D01*
X146231188Y-85520629D01*
X146239254Y-85502013D01*
X146258820Y-85474817D01*
X146282944Y-85447552D01*
X146304682Y-85428733D01*
X146307508Y-85427057D01*
X146322334Y-85421384D01*
X146322334Y-85282520D01*
X146313081Y-85290338D01*
X146299604Y-85294558D01*
X146264627Y-85311781D01*
X146222579Y-85344862D01*
X146179356Y-85388107D01*
X146140854Y-85435826D01*
X146120801Y-85467170D01*
X146098851Y-85502877D01*
X146080411Y-85521181D01*
X146058668Y-85527612D01*
X146045718Y-85528106D01*
X146042575Y-85528106D01*
X146042575Y-86169406D01*
X146105446Y-86169406D01*
X146105446Y-86546633D01*
X146042575Y-86546633D01*
X146042575Y-86169406D01*
X146042575Y-85528106D01*
X146004852Y-85528119D01*
X146004852Y-85633952D01*
X146006029Y-85682645D01*
X146009165Y-85720595D01*
X146013671Y-85741692D01*
X146015495Y-85743977D01*
X146018295Y-85757359D01*
X146017148Y-85789926D01*
X146012393Y-85836084D01*
X146008003Y-85867624D01*
X145999378Y-85924812D01*
X145991591Y-85977114D01*
X145985847Y-86016418D01*
X145984215Y-86027945D01*
X145974888Y-86058063D01*
X145960272Y-86068812D01*
X145954320Y-86072080D01*
X145949778Y-86083770D01*
X145946470Y-86106712D01*
X145944215Y-86143735D01*
X145942834Y-86197668D01*
X145942150Y-86271340D01*
X145941980Y-86358020D01*
X145942077Y-86450529D01*
X145942530Y-86520906D01*
X145943590Y-86572164D01*
X145945503Y-86607320D01*
X145948519Y-86629389D01*
X145952885Y-86641385D01*
X145958849Y-86646324D01*
X145965784Y-86647227D01*
X145987795Y-86654921D01*
X146000321Y-86680121D01*
X146004788Y-86726009D01*
X146004852Y-86734264D01*
X146012868Y-86811973D01*
X146034936Y-86900233D01*
X146068084Y-86991085D01*
X146109339Y-87076570D01*
X146155731Y-87148726D01*
X146163082Y-87158072D01*
X146186998Y-87188533D01*
X146196576Y-87206572D01*
X146193480Y-87219169D01*
X146180704Y-87232100D01*
X146155678Y-87270293D01*
X146146071Y-87319998D01*
X146151067Y-87373524D01*
X146169851Y-87423178D01*
X146201606Y-87461267D01*
X146205297Y-87464025D01*
X146264575Y-87492526D01*
X146325934Y-87497828D01*
X146384427Y-87480518D01*
X146435104Y-87441180D01*
X146439289Y-87436370D01*
X146459167Y-87408440D01*
X146467921Y-87380102D01*
X146468553Y-87340263D01*
X146467992Y-87330311D01*
X146466562Y-87291332D01*
X146469839Y-87271254D01*
X146479728Y-87263985D01*
X146488961Y-87263240D01*
X146515744Y-87261716D01*
X146556025Y-87257935D01*
X146580124Y-87255218D01*
X146618401Y-87251277D01*
X146637996Y-87252916D01*
X146645158Y-87262421D01*
X146646139Y-87279351D01*
X146642901Y-87289392D01*
X146632420Y-87305590D01*
X146613548Y-87329145D01*
X146585135Y-87361257D01*
X146546035Y-87403128D01*
X146495097Y-87455957D01*
X146431173Y-87520945D01*
X146353114Y-87599291D01*
X146259772Y-87692197D01*
X146149998Y-87800863D01*
X146096952Y-87853231D01*
X145547767Y-88395049D01*
X145634848Y-88394430D01*
X145634848Y-88394430D01*
G37*
X145634848Y-88394430D02*
X145721931Y-88393811D01*
X146180891Y-87942086D01*
X146639852Y-87490361D01*
X146850471Y-87490032D01*
X147061089Y-87489703D01*
X147061089Y-87214610D01*
X147114530Y-87207522D01*
X147138888Y-87204838D01*
X147184759Y-87200313D01*
X147249405Y-87194191D01*
X147330091Y-87186712D01*
X147424081Y-87178119D01*
X147528637Y-87168654D01*
X147641025Y-87158558D01*
X147758507Y-87148074D01*
X147878348Y-87137444D01*
X147997811Y-87126909D01*
X148114159Y-87116713D01*
X148224657Y-87107095D01*
X148326569Y-87098300D01*
X148417158Y-87090568D01*
X148493687Y-87084142D01*
X148553421Y-87079263D01*
X148593624Y-87076175D01*
X148611559Y-87075117D01*
X148611644Y-87075118D01*
X148626035Y-87082827D01*
X148655748Y-87105981D01*
X148701131Y-87144895D01*
X148762529Y-87199884D01*
X148840288Y-87271264D01*
X148934754Y-87359349D01*
X149046272Y-87464454D01*
X149175188Y-87586895D01*
X149211287Y-87621310D01*
X149783416Y-88167137D01*
X149871436Y-88078881D01*
X149793758Y-88007485D01*
X149765686Y-87981366D01*
X149722274Y-87940566D01*
X149666366Y-87887777D01*
X149600808Y-87825691D01*
X149528441Y-87757000D01*
X149452112Y-87684396D01*
X149406524Y-87640960D01*
X149321119Y-87559416D01*
X149252710Y-87493504D01*
X149200053Y-87441544D01*
X149161905Y-87401855D01*
X149137020Y-87372757D01*
X149124156Y-87352569D01*
X149122068Y-87339610D01*
X149129513Y-87332200D01*
X149145246Y-87328658D01*
X149168023Y-87327303D01*
X149174239Y-87327121D01*
X149217061Y-87317703D01*
X149268819Y-87294497D01*
X149321328Y-87262136D01*
X149366403Y-87225252D01*
X149380328Y-87210493D01*
X149429047Y-87134767D01*
X149456306Y-87046308D01*
X149462773Y-86968100D01*
X149450576Y-86879468D01*
X149414813Y-86797612D01*
X149356722Y-86725164D01*
X149342262Y-86711797D01*
X149286733Y-86662918D01*
X149286733Y-85817326D01*
X149462773Y-85817326D01*
X149462773Y-85590990D01*
X149380531Y-85590990D01*
X149324386Y-85588150D01*
X149285416Y-85578607D01*
X149264219Y-85567009D01*
X149249052Y-85558723D01*
X149227062Y-85551627D01*
X149194987Y-85545252D01*
X149149569Y-85539128D01*
X149087548Y-85532784D01*
X149005662Y-85525750D01*
X148944746Y-85520934D01*
X148659343Y-85498839D01*
X149208805Y-84956435D01*
X149308228Y-84858363D01*
X149403815Y-84764216D01*
X149493810Y-84675715D01*
X149576457Y-84594580D01*
X149650001Y-84522531D01*
X149712684Y-84461288D01*
X149762752Y-84412573D01*
X149798448Y-84378104D01*
X149817995Y-84359621D01*
X149848944Y-84329257D01*
X149870530Y-84303929D01*
X149877723Y-84290305D01*
X149869297Y-84272905D01*
X149848245Y-84247540D01*
X149839671Y-84238942D01*
X149801620Y-84202486D01*
X149597658Y-84403198D01*
X149545699Y-84454404D01*
X149478820Y-84520431D01*
X149399950Y-84598382D01*
X149312014Y-84685362D01*
X149217941Y-84778474D01*
X149120658Y-84874821D01*
X149023093Y-84971508D01*
X148953145Y-85040866D01*
X148846550Y-85146297D01*
X148756307Y-85234871D01*
X148681192Y-85307719D01*
X148619986Y-85365977D01*
X148571466Y-85410775D01*
X148546129Y-85432979D01*
X148546129Y-85611276D01*
X148831555Y-85633599D01*
X148915219Y-85640331D01*
X148991727Y-85646843D01*
X149057081Y-85652766D01*
X149107281Y-85657732D01*
X149138329Y-85661371D01*
X149145273Y-85662542D01*
X149173565Y-85669162D01*
X149173565Y-86618636D01*
X149094606Y-86624974D01*
X149001315Y-86644110D01*
X148918791Y-86684154D01*
X148850038Y-86742582D01*
X148798063Y-86816871D01*
X148766863Y-86900252D01*
X148752228Y-86927302D01*
X148720819Y-86940844D01*
X148719434Y-86941128D01*
X148706174Y-86942753D01*
X148692595Y-86940744D01*
X148676181Y-86933142D01*
X148654411Y-86917984D01*
X148624767Y-86893312D01*
X148584732Y-86857164D01*
X148531785Y-86807580D01*
X148463409Y-86742599D01*
X148459005Y-86738401D01*
X148385611Y-86668507D01*
X148307437Y-86594200D01*
X148229864Y-86520586D01*
X148158275Y-86452771D01*
X148098051Y-86395860D01*
X148084587Y-86383168D01*
X148033820Y-86334513D01*
X147990375Y-86291291D01*
X147957241Y-86256605D01*
X147937405Y-86233556D01*
X147933046Y-86225818D01*
X147942170Y-86214278D01*
X147967200Y-86187290D01*
X148006052Y-86146979D01*
X148056643Y-86095471D01*
X148116888Y-86034891D01*
X148184704Y-85967364D01*
X148240565Y-85912174D01*
X148546129Y-85611276D01*
X148546129Y-85432979D01*
X148534411Y-85443249D01*
X148507599Y-85464529D01*
X148489808Y-85475749D01*
X148481570Y-85478246D01*
X148463590Y-85477300D01*
X148422892Y-85474427D01*
X148361819Y-85469813D01*
X148282713Y-85463642D01*
X148187914Y-85456102D01*
X148079767Y-85447379D01*
X147960612Y-85437657D01*
X147832791Y-85427124D01*
X147730635Y-85418635D01*
X147154674Y-85370604D01*
X147154674Y-85494195D01*
X147167104Y-85494727D01*
X147202110Y-85497231D01*
X147257215Y-85501504D01*
X147329943Y-85507347D01*
X147417814Y-85514557D01*
X147518351Y-85522934D01*
X147629077Y-85532277D01*
X147734205Y-85541242D01*
X147853483Y-85551398D01*
X147966080Y-85560858D01*
X148069305Y-85569404D01*
X148160473Y-85576821D01*
X148236895Y-85582892D01*
X148295883Y-85587399D01*
X148334749Y-85590127D01*
X148349844Y-85590884D01*
X148359238Y-85592065D01*
X148362966Y-85596744D01*
X148359471Y-85606724D01*
X148347199Y-85623810D01*
X148324594Y-85649804D01*
X148290100Y-85686510D01*
X148242162Y-85735733D01*
X148179224Y-85799274D01*
X148111968Y-85866695D01*
X147836477Y-86142399D01*
X147834406Y-86140467D01*
X147834406Y-86322710D01*
X147845780Y-86331016D01*
X147872563Y-86354267D01*
X147912292Y-86390135D01*
X147962507Y-86436287D01*
X148020746Y-86490394D01*
X148084547Y-86550126D01*
X148151449Y-86613152D01*
X148218990Y-86677142D01*
X148284710Y-86739764D01*
X148346146Y-86798690D01*
X148400837Y-86851588D01*
X148446322Y-86896128D01*
X148480138Y-86929980D01*
X148499826Y-86950812D01*
X148503837Y-86956494D01*
X148490891Y-86958366D01*
X148455134Y-86962254D01*
X148398804Y-86967943D01*
X148324140Y-86975219D01*
X148233380Y-86983869D01*
X148128762Y-86993678D01*
X148012526Y-87004434D01*
X147886908Y-87015921D01*
X147785618Y-87025093D01*
X147654279Y-87036826D01*
X147530552Y-87047665D01*
X147416681Y-87057430D01*
X147314911Y-87065937D01*
X147227487Y-87073005D01*
X147156653Y-87078451D01*
X147104653Y-87082092D01*
X147073732Y-87083747D01*
X147065703Y-87083558D01*
X147072854Y-87073666D01*
X147095841Y-87048476D01*
X147132439Y-87010190D01*
X147180422Y-86961011D01*
X147237566Y-86903139D01*
X147301647Y-86838778D01*
X147370438Y-86770129D01*
X147441716Y-86699395D01*
X147513255Y-86628778D01*
X147582830Y-86560480D01*
X147648217Y-86496704D01*
X147707191Y-86439650D01*
X147757527Y-86391522D01*
X147796999Y-86354522D01*
X147823383Y-86330852D01*
X147834406Y-86322710D01*
X147834406Y-86140467D01*
X147726295Y-86039591D01*
X147670377Y-85987232D01*
X147607948Y-85928465D01*
X147541443Y-85865615D01*
X147473298Y-85801005D01*
X147405948Y-85736958D01*
X147341828Y-85675797D01*
X147283372Y-85619847D01*
X147233018Y-85571430D01*
X147193198Y-85532870D01*
X147166350Y-85506491D01*
X147154908Y-85494616D01*
X147154674Y-85494195D01*
X147154674Y-85370604D01*
X147010726Y-85358599D01*
X146379158Y-84758062D01*
X145747589Y-84157525D01*
X145659315Y-84157966D01*
X145571040Y-84158408D01*
X145674666Y-84255417D01*
X145732463Y-84309709D01*
X145800368Y-84373808D01*
X145876572Y-84445984D01*
X145959269Y-84524508D01*
X146046653Y-84607651D01*
X146136915Y-84693681D01*
X146228250Y-84780870D01*
X146318849Y-84867487D01*
X146406907Y-84951803D01*
X146490615Y-85032088D01*
X146568167Y-85106613D01*
X146637757Y-85173646D01*
X146697576Y-85231459D01*
X146745818Y-85278321D01*
X146780676Y-85312504D01*
X146800343Y-85332276D01*
X146804116Y-85336610D01*
X146790992Y-85336908D01*
X146757389Y-85335269D01*
X146707880Y-85331977D01*
X146647037Y-85327318D01*
X146622732Y-85325318D01*
X146444951Y-85310423D01*
X146444951Y-85427045D01*
X146473243Y-85433066D01*
X146495618Y-85436137D01*
X146537717Y-85440452D01*
X146594178Y-85445512D01*
X146659635Y-85450819D01*
X146683862Y-85452656D01*
X146753421Y-85458073D01*
X146818018Y-85463541D01*
X146871548Y-85468512D01*
X146907910Y-85472439D01*
X146914509Y-85473325D01*
X146928056Y-85476666D01*
X146943914Y-85483899D01*
X146963861Y-85496560D01*
X146989673Y-85516189D01*
X147023129Y-85544322D01*
X147066007Y-85582498D01*
X147120083Y-85632254D01*
X147187136Y-85695129D01*
X147268943Y-85772659D01*
X147351950Y-85851749D01*
X147434094Y-85930436D01*
X147510169Y-86003888D01*
X147578325Y-86070276D01*
X147636712Y-86127773D01*
X147683481Y-86174549D01*
X147716782Y-86208776D01*
X147734767Y-86228627D01*
X147737442Y-86232860D01*
X147727741Y-86243997D01*
X147702441Y-86270029D01*
X147664082Y-86308430D01*
X147615200Y-86356672D01*
X147558334Y-86412230D01*
X147516906Y-86452408D01*
X147300000Y-86662169D01*
X147300000Y-86043663D01*
X147061089Y-86043663D01*
X147061089Y-86798119D01*
X147167542Y-86798119D01*
X147029654Y-86936435D01*
X146931840Y-87034553D01*
X146931840Y-87225643D01*
X146947270Y-87227471D01*
X146955867Y-87236723D01*
X146959613Y-87259050D01*
X146960489Y-87300105D01*
X146960495Y-87307376D01*
X146960495Y-87389109D01*
X146741172Y-87389109D01*
X146822179Y-87307376D01*
X146871428Y-87261270D01*
X146909159Y-87233694D01*
X146931840Y-87225643D01*
X146931840Y-87034553D01*
X146891766Y-87074752D01*
X146768952Y-87074752D01*
X146712450Y-87075137D01*
X146676505Y-87076900D01*
X146656530Y-87080950D01*
X146647937Y-87088199D01*
X146646139Y-87099130D01*
X146643498Y-87111288D01*
X146632912Y-87120273D01*
X146610381Y-87127174D01*
X146571909Y-87133076D01*
X146513498Y-87139065D01*
X146492104Y-87140987D01*
X146444951Y-87145148D01*
X146444951Y-85427045D01*
X146444951Y-85310423D01*
X146444951Y-85150891D01*
X146331782Y-85150891D01*
X146331782Y-85218686D01*
X146330696Y-85258338D01*
X146325454Y-85279884D01*
X146322334Y-85282520D01*
X146322334Y-85421384D01*
X146329462Y-85428692D01*
X146331662Y-85454007D01*
X146331782Y-85471092D01*
X146331782Y-85528119D01*
X146331782Y-85740779D01*
X146331782Y-87155302D01*
X146282786Y-87107458D01*
X146222324Y-87033150D01*
X146175691Y-86941184D01*
X146142249Y-86830002D01*
X146123753Y-86719529D01*
X146115122Y-86647227D01*
X146206040Y-86647227D01*
X146206040Y-86068812D01*
X146102893Y-86068812D01*
X146111496Y-85983935D01*
X146118756Y-85924632D01*
X146128379Y-85861449D01*
X146135252Y-85823614D01*
X146150407Y-85748168D01*
X146241095Y-85744474D01*
X146331782Y-85740779D01*
X146331782Y-85528119D01*
X146281485Y-85528119D01*
X146249976Y-85526456D01*
X146232463Y-85522303D01*
X146231188Y-85520629D01*
X146239254Y-85502013D01*
X146258820Y-85474817D01*
X146282944Y-85447552D01*
X146304682Y-85428733D01*
X146307508Y-85427057D01*
X146322334Y-85421384D01*
X146322334Y-85282520D01*
X146313081Y-85290338D01*
X146299604Y-85294558D01*
X146264627Y-85311781D01*
X146222579Y-85344862D01*
X146179356Y-85388107D01*
X146140854Y-85435826D01*
X146120801Y-85467170D01*
X146098851Y-85502877D01*
X146080411Y-85521181D01*
X146058668Y-85527612D01*
X146045718Y-85528106D01*
X146042575Y-85528106D01*
X146042575Y-86169406D01*
X146105446Y-86169406D01*
X146105446Y-86546633D01*
X146042575Y-86546633D01*
X146042575Y-86169406D01*
X146042575Y-85528106D01*
X146004852Y-85528119D01*
X146004852Y-85633952D01*
X146006029Y-85682645D01*
X146009165Y-85720595D01*
X146013671Y-85741692D01*
X146015495Y-85743977D01*
X146018295Y-85757359D01*
X146017148Y-85789926D01*
X146012393Y-85836084D01*
X146008003Y-85867624D01*
X145999378Y-85924812D01*
X145991591Y-85977114D01*
X145985847Y-86016418D01*
X145984215Y-86027945D01*
X145974888Y-86058063D01*
X145960272Y-86068812D01*
X145954320Y-86072080D01*
X145949778Y-86083770D01*
X145946470Y-86106712D01*
X145944215Y-86143735D01*
X145942834Y-86197668D01*
X145942150Y-86271340D01*
X145941980Y-86358020D01*
X145942077Y-86450529D01*
X145942530Y-86520906D01*
X145943590Y-86572164D01*
X145945503Y-86607320D01*
X145948519Y-86629389D01*
X145952885Y-86641385D01*
X145958849Y-86646324D01*
X145965784Y-86647227D01*
X145987795Y-86654921D01*
X146000321Y-86680121D01*
X146004788Y-86726009D01*
X146004852Y-86734264D01*
X146012868Y-86811973D01*
X146034936Y-86900233D01*
X146068084Y-86991085D01*
X146109339Y-87076570D01*
X146155731Y-87148726D01*
X146163082Y-87158072D01*
X146186998Y-87188533D01*
X146196576Y-87206572D01*
X146193480Y-87219169D01*
X146180704Y-87232100D01*
X146155678Y-87270293D01*
X146146071Y-87319998D01*
X146151067Y-87373524D01*
X146169851Y-87423178D01*
X146201606Y-87461267D01*
X146205297Y-87464025D01*
X146264575Y-87492526D01*
X146325934Y-87497828D01*
X146384427Y-87480518D01*
X146435104Y-87441180D01*
X146439289Y-87436370D01*
X146459167Y-87408440D01*
X146467921Y-87380102D01*
X146468553Y-87340263D01*
X146467992Y-87330311D01*
X146466562Y-87291332D01*
X146469839Y-87271254D01*
X146479728Y-87263985D01*
X146488961Y-87263240D01*
X146515744Y-87261716D01*
X146556025Y-87257935D01*
X146580124Y-87255218D01*
X146618401Y-87251277D01*
X146637996Y-87252916D01*
X146645158Y-87262421D01*
X146646139Y-87279351D01*
X146642901Y-87289392D01*
X146632420Y-87305590D01*
X146613548Y-87329145D01*
X146585135Y-87361257D01*
X146546035Y-87403128D01*
X146495097Y-87455957D01*
X146431173Y-87520945D01*
X146353114Y-87599291D01*
X146259772Y-87692197D01*
X146149998Y-87800863D01*
X146096952Y-87853231D01*
X145547767Y-88395049D01*
X145634848Y-88394430D01*
G36*
X151587822Y-88017822D02*
G01*
X151587822Y-84497029D01*
X150720198Y-84497029D01*
X150720198Y-88017822D01*
X151587822Y-88017822D01*
X151587822Y-88017822D01*
G37*
X151587822Y-88017822D02*
X151587822Y-84497029D01*
X150720198Y-84497029D01*
X150720198Y-88017822D01*
X151587822Y-88017822D01*
D14*
X121797065Y-105684999D02*
X120592937Y-105684999D01*
X121797065Y-103864999D02*
X120592937Y-103864999D01*
X152356252Y-77430000D02*
X151833748Y-77430000D01*
X152356252Y-76010000D02*
X151833748Y-76010000D01*
X152356252Y-75180000D02*
X151833748Y-75180000D01*
X152356252Y-73760000D02*
X151833748Y-73760000D01*
X152386252Y-72830000D02*
X151863748Y-72830000D01*
X152386252Y-71410000D02*
X151863748Y-71410000D01*
X152356252Y-70680000D02*
X151833748Y-70680000D01*
X152356252Y-69260000D02*
X151833748Y-69260000D01*
X152331252Y-68430000D02*
X151808748Y-68430000D01*
X152331252Y-67010000D02*
X151808748Y-67010000D01*
X152356252Y-66180000D02*
X151833748Y-66180000D01*
X152356252Y-64760000D02*
X151833748Y-64760000D01*
X152356252Y-63930000D02*
X151833748Y-63930000D01*
X152356252Y-62510000D02*
X151833748Y-62510000D01*
X152306252Y-61780000D02*
X151783748Y-61780000D01*
X152306252Y-60360000D02*
X151783748Y-60360000D01*
X147031252Y-76330000D02*
X146508748Y-76330000D01*
X147031252Y-74910000D02*
X146508748Y-74910000D01*
X147031252Y-72910000D02*
X146508748Y-72910000D01*
X147031252Y-74330000D02*
X146508748Y-74330000D01*
X147031252Y-72330000D02*
X146508748Y-72330000D01*
X147031252Y-70910000D02*
X146508748Y-70910000D01*
X147031252Y-70330000D02*
X146508748Y-70330000D01*
X147031252Y-68910000D02*
X146508748Y-68910000D01*
X147031252Y-66910000D02*
X146508748Y-66910000D01*
X147031252Y-68330000D02*
X146508748Y-68330000D01*
X147031252Y-66330000D02*
X146508748Y-66330000D01*
X147031252Y-64910000D02*
X146508748Y-64910000D01*
X147031252Y-62910000D02*
X146508748Y-62910000D01*
X147031252Y-64330000D02*
X146508748Y-64330000D01*
X147006252Y-60910000D02*
X146483748Y-60910000D01*
X147006252Y-62330000D02*
X146483748Y-62330000D01*
X128505436Y-61810000D02*
X129709564Y-61810000D01*
X128505436Y-63630000D02*
X129709564Y-63630000D01*
X124734564Y-63630000D02*
X123530436Y-63630000D01*
X124734564Y-61810000D02*
X123530436Y-61810000D01*
X128530436Y-59410000D02*
X129734564Y-59410000D01*
X128530436Y-61230000D02*
X129734564Y-61230000D01*
X141110000Y-69784564D02*
X141110000Y-65680436D01*
X144530000Y-69784564D02*
X144530000Y-65680436D01*
X140330000Y-65655436D02*
X140330000Y-69759564D01*
X136910000Y-65655436D02*
X136910000Y-69759564D01*
X132970000Y-107220000D02*
X132970000Y-101820000D01*
X129670000Y-107220000D02*
X129670000Y-101820000D01*
X132970000Y-107220000D02*
X129670000Y-107220000D01*
X126970000Y-71320000D02*
X126970000Y-76720000D01*
X130270000Y-71320000D02*
X130270000Y-76720000D01*
X126970000Y-71320000D02*
X130270000Y-71320000D01*
X125970000Y-100320000D02*
X125970000Y-105720000D01*
X129270000Y-100320000D02*
X129270000Y-105720000D01*
X125970000Y-100320000D02*
X129270000Y-100320000D01*
X126270000Y-78120000D02*
X126270000Y-72720000D01*
X122970000Y-78120000D02*
X122970000Y-72720000D01*
X126270000Y-78120000D02*
X122970000Y-78120000D01*
X146720000Y-128920000D02*
X151020000Y-128920000D01*
X146720000Y-130920000D02*
X146720000Y-128920000D01*
X151020000Y-130920000D02*
X146720000Y-130920000D01*
X146720000Y-124920000D02*
X151020000Y-124920000D01*
X146720000Y-126920000D02*
X146720000Y-124920000D01*
X151020000Y-126920000D02*
X146720000Y-126920000D01*
X110620000Y-128320000D02*
X114920000Y-128320000D01*
X110620000Y-130320000D02*
X110620000Y-128320000D01*
X114920000Y-130320000D02*
X110620000Y-130320000D01*
X110620000Y-124320000D02*
X114920000Y-124320000D01*
X110620000Y-126320000D02*
X110620000Y-124320000D01*
X114920000Y-126320000D02*
X110620000Y-126320000D01*
X110620000Y-112320000D02*
X114920000Y-112320000D01*
X110620000Y-114320000D02*
X110620000Y-112320000D01*
X114920000Y-114320000D02*
X110620000Y-114320000D01*
X110620000Y-108320000D02*
X114920000Y-108320000D01*
X110620000Y-110320000D02*
X110620000Y-108320000D01*
X114920000Y-110320000D02*
X110620000Y-110320000D01*
X109620000Y-96320000D02*
X113920000Y-96320000D01*
X109620000Y-98320000D02*
X109620000Y-96320000D01*
X113920000Y-98320000D02*
X109620000Y-98320000D01*
X109620000Y-92320000D02*
X113920000Y-92320000D01*
X109620000Y-94320000D02*
X109620000Y-92320000D01*
X113920000Y-94320000D02*
X109620000Y-94320000D01*
X109620000Y-80320000D02*
X113920000Y-80320000D01*
X109620000Y-82320000D02*
X109620000Y-80320000D01*
X113920000Y-82320000D02*
X109620000Y-82320000D01*
X109620000Y-76320000D02*
X113920000Y-76320000D01*
X109620000Y-78320000D02*
X109620000Y-76320000D01*
X113920000Y-78320000D02*
X109620000Y-78320000D01*
X109620000Y-64320000D02*
X113920000Y-64320000D01*
X109620000Y-66320000D02*
X109620000Y-64320000D01*
X113920000Y-66320000D02*
X109620000Y-66320000D01*
X109620000Y-60320000D02*
X113920000Y-60320000D01*
X109620000Y-62320000D02*
X109620000Y-60320000D01*
X113920000Y-62320000D02*
X109620000Y-62320000D01*
X109620000Y-48320000D02*
X113920000Y-48320000D01*
X109620000Y-50320000D02*
X109620000Y-48320000D01*
X113920000Y-50320000D02*
X109620000Y-50320000D01*
X109620000Y-44320000D02*
X113920000Y-44320000D01*
X109620000Y-46320000D02*
X109620000Y-44320000D01*
X113920000Y-46320000D02*
X109620000Y-46320000D01*
X151770000Y-49520000D02*
X147470000Y-49520000D01*
X151770000Y-47520000D02*
X151770000Y-49520000D01*
X147470000Y-47520000D02*
X151770000Y-47520000D01*
X146920000Y-43520000D02*
X151220000Y-43520000D01*
X146920000Y-45520000D02*
X146920000Y-43520000D01*
X151220000Y-45520000D02*
X146920000Y-45520000D01*
X144022064Y-130830000D02*
X142817936Y-130830000D01*
X144022064Y-129010000D02*
X142817936Y-129010000D01*
X144022064Y-126830000D02*
X142817936Y-126830000D01*
X144022064Y-125010000D02*
X142817936Y-125010000D01*
X108122064Y-130230000D02*
X106917936Y-130230000D01*
X108122064Y-128410000D02*
X106917936Y-128410000D01*
X108122064Y-126230000D02*
X106917936Y-126230000D01*
X108122064Y-124410000D02*
X106917936Y-124410000D01*
X107922064Y-114230000D02*
X106717936Y-114230000D01*
X107922064Y-112410000D02*
X106717936Y-112410000D01*
X108122064Y-110230000D02*
X106917936Y-110230000D01*
X108122064Y-108410000D02*
X106917936Y-108410000D01*
X106922064Y-98230000D02*
X105717936Y-98230000D01*
X106922064Y-96410000D02*
X105717936Y-96410000D01*
X106922064Y-94230000D02*
X105717936Y-94230000D01*
X106922064Y-92410000D02*
X105717936Y-92410000D01*
X106922064Y-82230000D02*
X105717936Y-82230000D01*
X106922064Y-80410000D02*
X105717936Y-80410000D01*
X106922064Y-78230000D02*
X105717936Y-78230000D01*
X106922064Y-76410000D02*
X105717936Y-76410000D01*
X106922064Y-66230000D02*
X105717936Y-66230000D01*
X106922064Y-64410000D02*
X105717936Y-64410000D01*
X107122064Y-62230000D02*
X105917936Y-62230000D01*
X107122064Y-60410000D02*
X105917936Y-60410000D01*
X106922064Y-50230000D02*
X105717936Y-50230000D01*
X106922064Y-48410000D02*
X105717936Y-48410000D01*
X107122064Y-46230000D02*
X105917936Y-46230000D01*
X107122064Y-44410000D02*
X105917936Y-44410000D01*
X144222064Y-49430000D02*
X143017936Y-49430000D01*
X144222064Y-47610000D02*
X143017936Y-47610000D01*
X144222064Y-45430000D02*
X143017936Y-45430000D01*
X144222064Y-43610000D02*
X143017936Y-43610000D01*
X92722064Y-43130000D02*
X91517936Y-43130000D01*
X92722064Y-41310000D02*
X91517936Y-41310000D01*
X134110000Y-123922064D02*
X134110000Y-122717936D01*
X135930000Y-123922064D02*
X135930000Y-122717936D01*
X134110000Y-133922064D02*
X134110000Y-132717936D01*
X135930000Y-133922064D02*
X135930000Y-132717936D01*
X98610000Y-123222064D02*
X98610000Y-122017936D01*
X100430000Y-123222064D02*
X100430000Y-122017936D01*
X98610000Y-133222064D02*
X98610000Y-132017936D01*
X100430000Y-133222064D02*
X100430000Y-132017936D01*
X98610000Y-107422064D02*
X98610000Y-106217936D01*
X100430000Y-107422064D02*
X100430000Y-106217936D01*
X98610000Y-117222064D02*
X98610000Y-116017936D01*
X100430000Y-117222064D02*
X100430000Y-116017936D01*
X98610000Y-91222064D02*
X98610000Y-90017936D01*
X100430000Y-91222064D02*
X100430000Y-90017936D01*
X98610000Y-101222064D02*
X98610000Y-100017936D01*
X100430000Y-101222064D02*
X100430000Y-100017936D01*
X98610000Y-75222064D02*
X98610000Y-74017936D01*
X100430000Y-75222064D02*
X100430000Y-74017936D01*
X98610000Y-85222064D02*
X98610000Y-84017936D01*
X100430000Y-85222064D02*
X100430000Y-84017936D01*
X98610000Y-58822064D02*
X98610000Y-57617936D01*
X100430000Y-58822064D02*
X100430000Y-57617936D01*
X98610000Y-69222064D02*
X98610000Y-68017936D01*
X100430000Y-69222064D02*
X100430000Y-68017936D01*
X98610000Y-43222064D02*
X98610000Y-42017936D01*
X100430000Y-43222064D02*
X100430000Y-42017936D01*
X98610000Y-53422064D02*
X98610000Y-52217936D01*
X100430000Y-53422064D02*
X100430000Y-52217936D01*
X134310000Y-42522064D02*
X134310000Y-41317936D01*
X136130000Y-42522064D02*
X136130000Y-41317936D01*
X134310000Y-52722064D02*
X134310000Y-51517936D01*
X136130000Y-52722064D02*
X136130000Y-51517936D01*
X127272064Y-44810000D02*
X123167936Y-44810000D01*
X127272064Y-48230000D02*
X123167936Y-48230000D01*
X91472064Y-45510000D02*
X87367936Y-45510000D01*
X91472064Y-48930000D02*
X87367936Y-48930000D01*
X91472064Y-61510000D02*
X87367936Y-61510000D01*
X91472064Y-64930000D02*
X87367936Y-64930000D01*
X91472064Y-80930000D02*
X87367936Y-80930000D01*
X91472064Y-77510000D02*
X87367936Y-77510000D01*
X91572064Y-96930000D02*
X87467936Y-96930000D01*
X91572064Y-93510000D02*
X87467936Y-93510000D01*
X91472064Y-112930000D02*
X87367936Y-112930000D01*
X91472064Y-109510000D02*
X87367936Y-109510000D01*
X91472064Y-125510000D02*
X87367936Y-125510000D01*
X91472064Y-128930000D02*
X87367936Y-128930000D01*
X127072064Y-129630000D02*
X122967936Y-129630000D01*
X127072064Y-126210000D02*
X122967936Y-126210000D01*
X121809564Y-103230000D02*
X120605436Y-103230000D01*
X121809564Y-101410000D02*
X120605436Y-101410000D01*
X138330436Y-77110000D02*
X139534564Y-77110000D01*
X138330436Y-78930000D02*
X139534564Y-78930000D01*
X134930000Y-78609564D02*
X134930000Y-77405436D01*
X133110000Y-78609564D02*
X133110000Y-77405436D01*
X140730436Y-100310000D02*
X141934564Y-100310000D01*
X140730436Y-102130000D02*
X141934564Y-102130000D01*
X140730436Y-99730000D02*
X141934564Y-99730000D01*
X140730436Y-97910000D02*
X141934564Y-97910000D01*
X140730436Y-97330000D02*
X141934564Y-97330000D01*
X140730436Y-95510000D02*
X141934564Y-95510000D01*
X121777936Y-56010000D02*
X122982064Y-56010000D01*
X121777936Y-54190000D02*
X122982064Y-54190000D01*
X144150000Y-121360000D02*
X144150000Y-118060000D01*
X144150000Y-118060000D02*
X149550000Y-118060000D01*
X144150000Y-121360000D02*
X149550000Y-121360000D01*
X138020000Y-117480000D02*
X136560000Y-117480000D01*
X138020000Y-120640000D02*
X135860000Y-120640000D01*
X138020000Y-120640000D02*
X138020000Y-119710000D01*
X138020000Y-117480000D02*
X138020000Y-118410000D01*
X141930000Y-117470000D02*
X141930000Y-118400000D01*
X141930000Y-120630000D02*
X141930000Y-119700000D01*
X141930000Y-120630000D02*
X139770000Y-120630000D01*
X141930000Y-117470000D02*
X140470000Y-117470000D01*
X137390436Y-116560000D02*
X138594564Y-116560000D01*
X137390436Y-114740000D02*
X138594564Y-114740000D01*
X144210436Y-114950000D02*
X145414564Y-114950000D01*
X144210436Y-116770000D02*
X145414564Y-116770000D01*
D11*
X159967380Y-73909666D02*
X159491190Y-73576333D01*
X159967380Y-73338238D02*
X158967380Y-73338238D01*
X158967380Y-73719190D01*
X159015000Y-73814428D01*
X159062619Y-73862047D01*
X159157857Y-73909666D01*
X159300714Y-73909666D01*
X159395952Y-73862047D01*
X159443571Y-73814428D01*
X159491190Y-73719190D01*
X159491190Y-73338238D01*
X159443571Y-74338238D02*
X159443571Y-74671571D01*
X159967380Y-74814428D02*
X159967380Y-74338238D01*
X158967380Y-74338238D01*
X158967380Y-74814428D01*
X159443571Y-75576333D02*
X159443571Y-75243000D01*
X159967380Y-75243000D02*
X158967380Y-75243000D01*
X158967380Y-75719190D01*
X158967380Y-76243000D02*
X159205476Y-76243000D01*
X159110238Y-76004904D02*
X159205476Y-76243000D01*
X159110238Y-76481095D01*
X159395952Y-76100142D02*
X159205476Y-76243000D01*
X159395952Y-76385857D01*
X158967380Y-77004904D02*
X159205476Y-77004904D01*
X159110238Y-76766809D02*
X159205476Y-77004904D01*
X159110238Y-77243000D01*
X159395952Y-76862047D02*
X159205476Y-77004904D01*
X159395952Y-77147761D01*
X121862857Y-108277142D02*
X121910476Y-108324761D01*
X122053333Y-108372380D01*
X122148571Y-108372380D01*
X122291428Y-108324761D01*
X122386666Y-108229523D01*
X122434285Y-108134285D01*
X122481904Y-107943809D01*
X122481904Y-107800952D01*
X122434285Y-107610476D01*
X122386666Y-107515238D01*
X122291428Y-107420000D01*
X122148571Y-107372380D01*
X122053333Y-107372380D01*
X121910476Y-107420000D01*
X121862857Y-107467619D01*
X121481904Y-107467619D02*
X121434285Y-107420000D01*
X121339047Y-107372380D01*
X121100952Y-107372380D01*
X121005714Y-107420000D01*
X120958095Y-107467619D01*
X120910476Y-107562857D01*
X120910476Y-107658095D01*
X120958095Y-107800952D01*
X121529523Y-108372380D01*
X120910476Y-108372380D01*
X120529523Y-107467619D02*
X120481904Y-107420000D01*
X120386666Y-107372380D01*
X120148571Y-107372380D01*
X120053333Y-107420000D01*
X120005714Y-107467619D01*
X119958095Y-107562857D01*
X119958095Y-107658095D01*
X120005714Y-107800952D01*
X120577142Y-108372380D01*
X119958095Y-108372380D01*
X157139047Y-76772380D02*
X157472380Y-76296190D01*
X157710476Y-76772380D02*
X157710476Y-75772380D01*
X157329523Y-75772380D01*
X157234285Y-75820000D01*
X157186666Y-75867619D01*
X157139047Y-75962857D01*
X157139047Y-76105714D01*
X157186666Y-76200952D01*
X157234285Y-76248571D01*
X157329523Y-76296190D01*
X157710476Y-76296190D01*
X156186666Y-76772380D02*
X156758095Y-76772380D01*
X156472380Y-76772380D02*
X156472380Y-75772380D01*
X156567619Y-75915238D01*
X156662857Y-76010476D01*
X156758095Y-76058095D01*
X155234285Y-76772380D02*
X155805714Y-76772380D01*
X155520000Y-76772380D02*
X155520000Y-75772380D01*
X155615238Y-75915238D01*
X155710476Y-76010476D01*
X155805714Y-76058095D01*
X154329523Y-75772380D02*
X154805714Y-75772380D01*
X154853333Y-76248571D01*
X154805714Y-76200952D01*
X154710476Y-76153333D01*
X154472380Y-76153333D01*
X154377142Y-76200952D01*
X154329523Y-76248571D01*
X154281904Y-76343809D01*
X154281904Y-76581904D01*
X154329523Y-76677142D01*
X154377142Y-76724761D01*
X154472380Y-76772380D01*
X154710476Y-76772380D01*
X154805714Y-76724761D01*
X154853333Y-76677142D01*
X157049047Y-74832380D02*
X157382380Y-74356190D01*
X157620476Y-74832380D02*
X157620476Y-73832380D01*
X157239523Y-73832380D01*
X157144285Y-73880000D01*
X157096666Y-73927619D01*
X157049047Y-74022857D01*
X157049047Y-74165714D01*
X157096666Y-74260952D01*
X157144285Y-74308571D01*
X157239523Y-74356190D01*
X157620476Y-74356190D01*
X156096666Y-74832380D02*
X156668095Y-74832380D01*
X156382380Y-74832380D02*
X156382380Y-73832380D01*
X156477619Y-73975238D01*
X156572857Y-74070476D01*
X156668095Y-74118095D01*
X155144285Y-74832380D02*
X155715714Y-74832380D01*
X155430000Y-74832380D02*
X155430000Y-73832380D01*
X155525238Y-73975238D01*
X155620476Y-74070476D01*
X155715714Y-74118095D01*
X154810952Y-73832380D02*
X154191904Y-73832380D01*
X154525238Y-74213333D01*
X154382380Y-74213333D01*
X154287142Y-74260952D01*
X154239523Y-74308571D01*
X154191904Y-74403809D01*
X154191904Y-74641904D01*
X154239523Y-74737142D01*
X154287142Y-74784761D01*
X154382380Y-74832380D01*
X154668095Y-74832380D01*
X154763333Y-74784761D01*
X154810952Y-74737142D01*
X160939047Y-72172380D02*
X161272380Y-71696190D01*
X161510476Y-72172380D02*
X161510476Y-71172380D01*
X161129523Y-71172380D01*
X161034285Y-71220000D01*
X160986666Y-71267619D01*
X160939047Y-71362857D01*
X160939047Y-71505714D01*
X160986666Y-71600952D01*
X161034285Y-71648571D01*
X161129523Y-71696190D01*
X161510476Y-71696190D01*
X159986666Y-72172380D02*
X160558095Y-72172380D01*
X160272380Y-72172380D02*
X160272380Y-71172380D01*
X160367619Y-71315238D01*
X160462857Y-71410476D01*
X160558095Y-71458095D01*
X159034285Y-72172380D02*
X159605714Y-72172380D01*
X159320000Y-72172380D02*
X159320000Y-71172380D01*
X159415238Y-71315238D01*
X159510476Y-71410476D01*
X159605714Y-71458095D01*
X158081904Y-72172380D02*
X158653333Y-72172380D01*
X158367619Y-72172380D02*
X158367619Y-71172380D01*
X158462857Y-71315238D01*
X158558095Y-71410476D01*
X158653333Y-71458095D01*
X160939047Y-70372380D02*
X161272380Y-69896190D01*
X161510476Y-70372380D02*
X161510476Y-69372380D01*
X161129523Y-69372380D01*
X161034285Y-69420000D01*
X160986666Y-69467619D01*
X160939047Y-69562857D01*
X160939047Y-69705714D01*
X160986666Y-69800952D01*
X161034285Y-69848571D01*
X161129523Y-69896190D01*
X161510476Y-69896190D01*
X159986666Y-70372380D02*
X160558095Y-70372380D01*
X160272380Y-70372380D02*
X160272380Y-69372380D01*
X160367619Y-69515238D01*
X160462857Y-69610476D01*
X160558095Y-69658095D01*
X159367619Y-69372380D02*
X159272380Y-69372380D01*
X159177142Y-69420000D01*
X159129523Y-69467619D01*
X159081904Y-69562857D01*
X159034285Y-69753333D01*
X159034285Y-69991428D01*
X159081904Y-70181904D01*
X159129523Y-70277142D01*
X159177142Y-70324761D01*
X159272380Y-70372380D01*
X159367619Y-70372380D01*
X159462857Y-70324761D01*
X159510476Y-70277142D01*
X159558095Y-70181904D01*
X159605714Y-69991428D01*
X159605714Y-69753333D01*
X159558095Y-69562857D01*
X159510476Y-69467619D01*
X159462857Y-69420000D01*
X159367619Y-69372380D01*
X158558095Y-70372380D02*
X158367619Y-70372380D01*
X158272380Y-70324761D01*
X158224761Y-70277142D01*
X158129523Y-70134285D01*
X158081904Y-69943809D01*
X158081904Y-69562857D01*
X158129523Y-69467619D01*
X158177142Y-69420000D01*
X158272380Y-69372380D01*
X158462857Y-69372380D01*
X158558095Y-69420000D01*
X158605714Y-69467619D01*
X158653333Y-69562857D01*
X158653333Y-69800952D01*
X158605714Y-69896190D01*
X158558095Y-69943809D01*
X158462857Y-69991428D01*
X158272380Y-69991428D01*
X158177142Y-69943809D01*
X158129523Y-69896190D01*
X158081904Y-69800952D01*
X160939047Y-67972380D02*
X161272380Y-67496190D01*
X161510476Y-67972380D02*
X161510476Y-66972380D01*
X161129523Y-66972380D01*
X161034285Y-67020000D01*
X160986666Y-67067619D01*
X160939047Y-67162857D01*
X160939047Y-67305714D01*
X160986666Y-67400952D01*
X161034285Y-67448571D01*
X161129523Y-67496190D01*
X161510476Y-67496190D01*
X159986666Y-67972380D02*
X160558095Y-67972380D01*
X160272380Y-67972380D02*
X160272380Y-66972380D01*
X160367619Y-67115238D01*
X160462857Y-67210476D01*
X160558095Y-67258095D01*
X159367619Y-66972380D02*
X159272380Y-66972380D01*
X159177142Y-67020000D01*
X159129523Y-67067619D01*
X159081904Y-67162857D01*
X159034285Y-67353333D01*
X159034285Y-67591428D01*
X159081904Y-67781904D01*
X159129523Y-67877142D01*
X159177142Y-67924761D01*
X159272380Y-67972380D01*
X159367619Y-67972380D01*
X159462857Y-67924761D01*
X159510476Y-67877142D01*
X159558095Y-67781904D01*
X159605714Y-67591428D01*
X159605714Y-67353333D01*
X159558095Y-67162857D01*
X159510476Y-67067619D01*
X159462857Y-67020000D01*
X159367619Y-66972380D01*
X158700952Y-66972380D02*
X158034285Y-66972380D01*
X158462857Y-67972380D01*
X160939047Y-65772380D02*
X161272380Y-65296190D01*
X161510476Y-65772380D02*
X161510476Y-64772380D01*
X161129523Y-64772380D01*
X161034285Y-64820000D01*
X160986666Y-64867619D01*
X160939047Y-64962857D01*
X160939047Y-65105714D01*
X160986666Y-65200952D01*
X161034285Y-65248571D01*
X161129523Y-65296190D01*
X161510476Y-65296190D01*
X159986666Y-65772380D02*
X160558095Y-65772380D01*
X160272380Y-65772380D02*
X160272380Y-64772380D01*
X160367619Y-64915238D01*
X160462857Y-65010476D01*
X160558095Y-65058095D01*
X159367619Y-64772380D02*
X159272380Y-64772380D01*
X159177142Y-64820000D01*
X159129523Y-64867619D01*
X159081904Y-64962857D01*
X159034285Y-65153333D01*
X159034285Y-65391428D01*
X159081904Y-65581904D01*
X159129523Y-65677142D01*
X159177142Y-65724761D01*
X159272380Y-65772380D01*
X159367619Y-65772380D01*
X159462857Y-65724761D01*
X159510476Y-65677142D01*
X159558095Y-65581904D01*
X159605714Y-65391428D01*
X159605714Y-65153333D01*
X159558095Y-64962857D01*
X159510476Y-64867619D01*
X159462857Y-64820000D01*
X159367619Y-64772380D01*
X158129523Y-64772380D02*
X158605714Y-64772380D01*
X158653333Y-65248571D01*
X158605714Y-65200952D01*
X158510476Y-65153333D01*
X158272380Y-65153333D01*
X158177142Y-65200952D01*
X158129523Y-65248571D01*
X158081904Y-65343809D01*
X158081904Y-65581904D01*
X158129523Y-65677142D01*
X158177142Y-65724761D01*
X158272380Y-65772380D01*
X158510476Y-65772380D01*
X158605714Y-65724761D01*
X158653333Y-65677142D01*
X160939047Y-63772380D02*
X161272380Y-63296190D01*
X161510476Y-63772380D02*
X161510476Y-62772380D01*
X161129523Y-62772380D01*
X161034285Y-62820000D01*
X160986666Y-62867619D01*
X160939047Y-62962857D01*
X160939047Y-63105714D01*
X160986666Y-63200952D01*
X161034285Y-63248571D01*
X161129523Y-63296190D01*
X161510476Y-63296190D01*
X159986666Y-63772380D02*
X160558095Y-63772380D01*
X160272380Y-63772380D02*
X160272380Y-62772380D01*
X160367619Y-62915238D01*
X160462857Y-63010476D01*
X160558095Y-63058095D01*
X159367619Y-62772380D02*
X159272380Y-62772380D01*
X159177142Y-62820000D01*
X159129523Y-62867619D01*
X159081904Y-62962857D01*
X159034285Y-63153333D01*
X159034285Y-63391428D01*
X159081904Y-63581904D01*
X159129523Y-63677142D01*
X159177142Y-63724761D01*
X159272380Y-63772380D01*
X159367619Y-63772380D01*
X159462857Y-63724761D01*
X159510476Y-63677142D01*
X159558095Y-63581904D01*
X159605714Y-63391428D01*
X159605714Y-63153333D01*
X159558095Y-62962857D01*
X159510476Y-62867619D01*
X159462857Y-62820000D01*
X159367619Y-62772380D01*
X158700952Y-62772380D02*
X158081904Y-62772380D01*
X158415238Y-63153333D01*
X158272380Y-63153333D01*
X158177142Y-63200952D01*
X158129523Y-63248571D01*
X158081904Y-63343809D01*
X158081904Y-63581904D01*
X158129523Y-63677142D01*
X158177142Y-63724761D01*
X158272380Y-63772380D01*
X158558095Y-63772380D01*
X158653333Y-63724761D01*
X158700952Y-63677142D01*
X153539047Y-59572380D02*
X153872380Y-59096190D01*
X154110476Y-59572380D02*
X154110476Y-58572380D01*
X153729523Y-58572380D01*
X153634285Y-58620000D01*
X153586666Y-58667619D01*
X153539047Y-58762857D01*
X153539047Y-58905714D01*
X153586666Y-59000952D01*
X153634285Y-59048571D01*
X153729523Y-59096190D01*
X154110476Y-59096190D01*
X152586666Y-59572380D02*
X153158095Y-59572380D01*
X152872380Y-59572380D02*
X152872380Y-58572380D01*
X152967619Y-58715238D01*
X153062857Y-58810476D01*
X153158095Y-58858095D01*
X151967619Y-58572380D02*
X151872380Y-58572380D01*
X151777142Y-58620000D01*
X151729523Y-58667619D01*
X151681904Y-58762857D01*
X151634285Y-58953333D01*
X151634285Y-59191428D01*
X151681904Y-59381904D01*
X151729523Y-59477142D01*
X151777142Y-59524761D01*
X151872380Y-59572380D01*
X151967619Y-59572380D01*
X152062857Y-59524761D01*
X152110476Y-59477142D01*
X152158095Y-59381904D01*
X152205714Y-59191428D01*
X152205714Y-58953333D01*
X152158095Y-58762857D01*
X152110476Y-58667619D01*
X152062857Y-58620000D01*
X151967619Y-58572380D01*
X150681904Y-59572380D02*
X151253333Y-59572380D01*
X150967619Y-59572380D02*
X150967619Y-58572380D01*
X151062857Y-58715238D01*
X151158095Y-58810476D01*
X151253333Y-58858095D01*
X156462857Y-72077142D02*
X156510476Y-72124761D01*
X156653333Y-72172380D01*
X156748571Y-72172380D01*
X156891428Y-72124761D01*
X156986666Y-72029523D01*
X157034285Y-71934285D01*
X157081904Y-71743809D01*
X157081904Y-71600952D01*
X157034285Y-71410476D01*
X156986666Y-71315238D01*
X156891428Y-71220000D01*
X156748571Y-71172380D01*
X156653333Y-71172380D01*
X156510476Y-71220000D01*
X156462857Y-71267619D01*
X156129523Y-71172380D02*
X155510476Y-71172380D01*
X155843809Y-71553333D01*
X155700952Y-71553333D01*
X155605714Y-71600952D01*
X155558095Y-71648571D01*
X155510476Y-71743809D01*
X155510476Y-71981904D01*
X155558095Y-72077142D01*
X155605714Y-72124761D01*
X155700952Y-72172380D01*
X155986666Y-72172380D01*
X156081904Y-72124761D01*
X156129523Y-72077142D01*
X154605714Y-71172380D02*
X155081904Y-71172380D01*
X155129523Y-71648571D01*
X155081904Y-71600952D01*
X154986666Y-71553333D01*
X154748571Y-71553333D01*
X154653333Y-71600952D01*
X154605714Y-71648571D01*
X154558095Y-71743809D01*
X154558095Y-71981904D01*
X154605714Y-72077142D01*
X154653333Y-72124761D01*
X154748571Y-72172380D01*
X154986666Y-72172380D01*
X155081904Y-72124761D01*
X155129523Y-72077142D01*
X147662857Y-77877142D02*
X147710476Y-77924761D01*
X147853333Y-77972380D01*
X147948571Y-77972380D01*
X148091428Y-77924761D01*
X148186666Y-77829523D01*
X148234285Y-77734285D01*
X148281904Y-77543809D01*
X148281904Y-77400952D01*
X148234285Y-77210476D01*
X148186666Y-77115238D01*
X148091428Y-77020000D01*
X147948571Y-76972380D01*
X147853333Y-76972380D01*
X147710476Y-77020000D01*
X147662857Y-77067619D01*
X147329523Y-76972380D02*
X146710476Y-76972380D01*
X147043809Y-77353333D01*
X146900952Y-77353333D01*
X146805714Y-77400952D01*
X146758095Y-77448571D01*
X146710476Y-77543809D01*
X146710476Y-77781904D01*
X146758095Y-77877142D01*
X146805714Y-77924761D01*
X146900952Y-77972380D01*
X147186666Y-77972380D01*
X147281904Y-77924761D01*
X147329523Y-77877142D01*
X145853333Y-77305714D02*
X145853333Y-77972380D01*
X146091428Y-76924761D02*
X146329523Y-77639047D01*
X145710476Y-77639047D01*
X143862857Y-77677142D02*
X143910476Y-77724761D01*
X144053333Y-77772380D01*
X144148571Y-77772380D01*
X144291428Y-77724761D01*
X144386666Y-77629523D01*
X144434285Y-77534285D01*
X144481904Y-77343809D01*
X144481904Y-77200952D01*
X144434285Y-77010476D01*
X144386666Y-76915238D01*
X144291428Y-76820000D01*
X144148571Y-76772380D01*
X144053333Y-76772380D01*
X143910476Y-76820000D01*
X143862857Y-76867619D01*
X143529523Y-76772380D02*
X142910476Y-76772380D01*
X143243809Y-77153333D01*
X143100952Y-77153333D01*
X143005714Y-77200952D01*
X142958095Y-77248571D01*
X142910476Y-77343809D01*
X142910476Y-77581904D01*
X142958095Y-77677142D01*
X143005714Y-77724761D01*
X143100952Y-77772380D01*
X143386666Y-77772380D01*
X143481904Y-77724761D01*
X143529523Y-77677142D01*
X142577142Y-76772380D02*
X141958095Y-76772380D01*
X142291428Y-77153333D01*
X142148571Y-77153333D01*
X142053333Y-77200952D01*
X142005714Y-77248571D01*
X141958095Y-77343809D01*
X141958095Y-77581904D01*
X142005714Y-77677142D01*
X142053333Y-77724761D01*
X142148571Y-77772380D01*
X142434285Y-77772380D01*
X142529523Y-77724761D01*
X142577142Y-77677142D01*
X156462857Y-70277142D02*
X156510476Y-70324761D01*
X156653333Y-70372380D01*
X156748571Y-70372380D01*
X156891428Y-70324761D01*
X156986666Y-70229523D01*
X157034285Y-70134285D01*
X157081904Y-69943809D01*
X157081904Y-69800952D01*
X157034285Y-69610476D01*
X156986666Y-69515238D01*
X156891428Y-69420000D01*
X156748571Y-69372380D01*
X156653333Y-69372380D01*
X156510476Y-69420000D01*
X156462857Y-69467619D01*
X156129523Y-69372380D02*
X155510476Y-69372380D01*
X155843809Y-69753333D01*
X155700952Y-69753333D01*
X155605714Y-69800952D01*
X155558095Y-69848571D01*
X155510476Y-69943809D01*
X155510476Y-70181904D01*
X155558095Y-70277142D01*
X155605714Y-70324761D01*
X155700952Y-70372380D01*
X155986666Y-70372380D01*
X156081904Y-70324761D01*
X156129523Y-70277142D01*
X155129523Y-69467619D02*
X155081904Y-69420000D01*
X154986666Y-69372380D01*
X154748571Y-69372380D01*
X154653333Y-69420000D01*
X154605714Y-69467619D01*
X154558095Y-69562857D01*
X154558095Y-69658095D01*
X154605714Y-69800952D01*
X155177142Y-70372380D01*
X154558095Y-70372380D01*
X156462857Y-68077142D02*
X156510476Y-68124761D01*
X156653333Y-68172380D01*
X156748571Y-68172380D01*
X156891428Y-68124761D01*
X156986666Y-68029523D01*
X157034285Y-67934285D01*
X157081904Y-67743809D01*
X157081904Y-67600952D01*
X157034285Y-67410476D01*
X156986666Y-67315238D01*
X156891428Y-67220000D01*
X156748571Y-67172380D01*
X156653333Y-67172380D01*
X156510476Y-67220000D01*
X156462857Y-67267619D01*
X156129523Y-67172380D02*
X155510476Y-67172380D01*
X155843809Y-67553333D01*
X155700952Y-67553333D01*
X155605714Y-67600952D01*
X155558095Y-67648571D01*
X155510476Y-67743809D01*
X155510476Y-67981904D01*
X155558095Y-68077142D01*
X155605714Y-68124761D01*
X155700952Y-68172380D01*
X155986666Y-68172380D01*
X156081904Y-68124761D01*
X156129523Y-68077142D01*
X154558095Y-68172380D02*
X155129523Y-68172380D01*
X154843809Y-68172380D02*
X154843809Y-67172380D01*
X154939047Y-67315238D01*
X155034285Y-67410476D01*
X155129523Y-67458095D01*
X156462857Y-65877142D02*
X156510476Y-65924761D01*
X156653333Y-65972380D01*
X156748571Y-65972380D01*
X156891428Y-65924761D01*
X156986666Y-65829523D01*
X157034285Y-65734285D01*
X157081904Y-65543809D01*
X157081904Y-65400952D01*
X157034285Y-65210476D01*
X156986666Y-65115238D01*
X156891428Y-65020000D01*
X156748571Y-64972380D01*
X156653333Y-64972380D01*
X156510476Y-65020000D01*
X156462857Y-65067619D01*
X156129523Y-64972380D02*
X155510476Y-64972380D01*
X155843809Y-65353333D01*
X155700952Y-65353333D01*
X155605714Y-65400952D01*
X155558095Y-65448571D01*
X155510476Y-65543809D01*
X155510476Y-65781904D01*
X155558095Y-65877142D01*
X155605714Y-65924761D01*
X155700952Y-65972380D01*
X155986666Y-65972380D01*
X156081904Y-65924761D01*
X156129523Y-65877142D01*
X154891428Y-64972380D02*
X154796190Y-64972380D01*
X154700952Y-65020000D01*
X154653333Y-65067619D01*
X154605714Y-65162857D01*
X154558095Y-65353333D01*
X154558095Y-65591428D01*
X154605714Y-65781904D01*
X154653333Y-65877142D01*
X154700952Y-65924761D01*
X154796190Y-65972380D01*
X154891428Y-65972380D01*
X154986666Y-65924761D01*
X155034285Y-65877142D01*
X155081904Y-65781904D01*
X155129523Y-65591428D01*
X155129523Y-65353333D01*
X155081904Y-65162857D01*
X155034285Y-65067619D01*
X154986666Y-65020000D01*
X154891428Y-64972380D01*
X143262857Y-61277142D02*
X143310476Y-61324761D01*
X143453333Y-61372380D01*
X143548571Y-61372380D01*
X143691428Y-61324761D01*
X143786666Y-61229523D01*
X143834285Y-61134285D01*
X143881904Y-60943809D01*
X143881904Y-60800952D01*
X143834285Y-60610476D01*
X143786666Y-60515238D01*
X143691428Y-60420000D01*
X143548571Y-60372380D01*
X143453333Y-60372380D01*
X143310476Y-60420000D01*
X143262857Y-60467619D01*
X142881904Y-60467619D02*
X142834285Y-60420000D01*
X142739047Y-60372380D01*
X142500952Y-60372380D01*
X142405714Y-60420000D01*
X142358095Y-60467619D01*
X142310476Y-60562857D01*
X142310476Y-60658095D01*
X142358095Y-60800952D01*
X142929523Y-61372380D01*
X142310476Y-61372380D01*
X141834285Y-61372380D02*
X141643809Y-61372380D01*
X141548571Y-61324761D01*
X141500952Y-61277142D01*
X141405714Y-61134285D01*
X141358095Y-60943809D01*
X141358095Y-60562857D01*
X141405714Y-60467619D01*
X141453333Y-60420000D01*
X141548571Y-60372380D01*
X141739047Y-60372380D01*
X141834285Y-60420000D01*
X141881904Y-60467619D01*
X141929523Y-60562857D01*
X141929523Y-60800952D01*
X141881904Y-60896190D01*
X141834285Y-60943809D01*
X141739047Y-60991428D01*
X141548571Y-60991428D01*
X141453333Y-60943809D01*
X141405714Y-60896190D01*
X141358095Y-60800952D01*
X147387857Y-59677142D02*
X147435476Y-59724761D01*
X147578333Y-59772380D01*
X147673571Y-59772380D01*
X147816428Y-59724761D01*
X147911666Y-59629523D01*
X147959285Y-59534285D01*
X148006904Y-59343809D01*
X148006904Y-59200952D01*
X147959285Y-59010476D01*
X147911666Y-58915238D01*
X147816428Y-58820000D01*
X147673571Y-58772380D01*
X147578333Y-58772380D01*
X147435476Y-58820000D01*
X147387857Y-58867619D01*
X147006904Y-58867619D02*
X146959285Y-58820000D01*
X146864047Y-58772380D01*
X146625952Y-58772380D01*
X146530714Y-58820000D01*
X146483095Y-58867619D01*
X146435476Y-58962857D01*
X146435476Y-59058095D01*
X146483095Y-59200952D01*
X147054523Y-59772380D01*
X146435476Y-59772380D01*
X145864047Y-59200952D02*
X145959285Y-59153333D01*
X146006904Y-59105714D01*
X146054523Y-59010476D01*
X146054523Y-58962857D01*
X146006904Y-58867619D01*
X145959285Y-58820000D01*
X145864047Y-58772380D01*
X145673571Y-58772380D01*
X145578333Y-58820000D01*
X145530714Y-58867619D01*
X145483095Y-58962857D01*
X145483095Y-59010476D01*
X145530714Y-59105714D01*
X145578333Y-59153333D01*
X145673571Y-59200952D01*
X145864047Y-59200952D01*
X145959285Y-59248571D01*
X146006904Y-59296190D01*
X146054523Y-59391428D01*
X146054523Y-59581904D01*
X146006904Y-59677142D01*
X145959285Y-59724761D01*
X145864047Y-59772380D01*
X145673571Y-59772380D01*
X145578333Y-59724761D01*
X145530714Y-59677142D01*
X145483095Y-59581904D01*
X145483095Y-59391428D01*
X145530714Y-59296190D01*
X145578333Y-59248571D01*
X145673571Y-59200952D01*
X129862857Y-65172380D02*
X130196190Y-64696190D01*
X130434285Y-65172380D02*
X130434285Y-64172380D01*
X130053333Y-64172380D01*
X129958095Y-64220000D01*
X129910476Y-64267619D01*
X129862857Y-64362857D01*
X129862857Y-64505714D01*
X129910476Y-64600952D01*
X129958095Y-64648571D01*
X130053333Y-64696190D01*
X130434285Y-64696190D01*
X129291428Y-64600952D02*
X129386666Y-64553333D01*
X129434285Y-64505714D01*
X129481904Y-64410476D01*
X129481904Y-64362857D01*
X129434285Y-64267619D01*
X129386666Y-64220000D01*
X129291428Y-64172380D01*
X129100952Y-64172380D01*
X129005714Y-64220000D01*
X128958095Y-64267619D01*
X128910476Y-64362857D01*
X128910476Y-64410476D01*
X128958095Y-64505714D01*
X129005714Y-64553333D01*
X129100952Y-64600952D01*
X129291428Y-64600952D01*
X129386666Y-64648571D01*
X129434285Y-64696190D01*
X129481904Y-64791428D01*
X129481904Y-64981904D01*
X129434285Y-65077142D01*
X129386666Y-65124761D01*
X129291428Y-65172380D01*
X129100952Y-65172380D01*
X129005714Y-65124761D01*
X128958095Y-65077142D01*
X128910476Y-64981904D01*
X128910476Y-64791428D01*
X128958095Y-64696190D01*
X129005714Y-64648571D01*
X129100952Y-64600952D01*
X128053333Y-64172380D02*
X128243809Y-64172380D01*
X128339047Y-64220000D01*
X128386666Y-64267619D01*
X128481904Y-64410476D01*
X128529523Y-64600952D01*
X128529523Y-64981904D01*
X128481904Y-65077142D01*
X128434285Y-65124761D01*
X128339047Y-65172380D01*
X128148571Y-65172380D01*
X128053333Y-65124761D01*
X128005714Y-65077142D01*
X127958095Y-64981904D01*
X127958095Y-64743809D01*
X128005714Y-64648571D01*
X128053333Y-64600952D01*
X128148571Y-64553333D01*
X128339047Y-64553333D01*
X128434285Y-64600952D01*
X128481904Y-64648571D01*
X128529523Y-64743809D01*
X124775357Y-65572380D02*
X125108690Y-65096190D01*
X125346785Y-65572380D02*
X125346785Y-64572380D01*
X124965833Y-64572380D01*
X124870595Y-64620000D01*
X124822976Y-64667619D01*
X124775357Y-64762857D01*
X124775357Y-64905714D01*
X124822976Y-65000952D01*
X124870595Y-65048571D01*
X124965833Y-65096190D01*
X125346785Y-65096190D01*
X124203928Y-65000952D02*
X124299166Y-64953333D01*
X124346785Y-64905714D01*
X124394404Y-64810476D01*
X124394404Y-64762857D01*
X124346785Y-64667619D01*
X124299166Y-64620000D01*
X124203928Y-64572380D01*
X124013452Y-64572380D01*
X123918214Y-64620000D01*
X123870595Y-64667619D01*
X123822976Y-64762857D01*
X123822976Y-64810476D01*
X123870595Y-64905714D01*
X123918214Y-64953333D01*
X124013452Y-65000952D01*
X124203928Y-65000952D01*
X124299166Y-65048571D01*
X124346785Y-65096190D01*
X124394404Y-65191428D01*
X124394404Y-65381904D01*
X124346785Y-65477142D01*
X124299166Y-65524761D01*
X124203928Y-65572380D01*
X124013452Y-65572380D01*
X123918214Y-65524761D01*
X123870595Y-65477142D01*
X123822976Y-65381904D01*
X123822976Y-65191428D01*
X123870595Y-65096190D01*
X123918214Y-65048571D01*
X124013452Y-65000952D01*
X122918214Y-64572380D02*
X123394404Y-64572380D01*
X123442023Y-65048571D01*
X123394404Y-65000952D01*
X123299166Y-64953333D01*
X123061071Y-64953333D01*
X122965833Y-65000952D01*
X122918214Y-65048571D01*
X122870595Y-65143809D01*
X122870595Y-65381904D01*
X122918214Y-65477142D01*
X122965833Y-65524761D01*
X123061071Y-65572380D01*
X123299166Y-65572380D01*
X123394404Y-65524761D01*
X123442023Y-65477142D01*
X132262857Y-58772380D02*
X132596190Y-58296190D01*
X132834285Y-58772380D02*
X132834285Y-57772380D01*
X132453333Y-57772380D01*
X132358095Y-57820000D01*
X132310476Y-57867619D01*
X132262857Y-57962857D01*
X132262857Y-58105714D01*
X132310476Y-58200952D01*
X132358095Y-58248571D01*
X132453333Y-58296190D01*
X132834285Y-58296190D01*
X131691428Y-58200952D02*
X131786666Y-58153333D01*
X131834285Y-58105714D01*
X131881904Y-58010476D01*
X131881904Y-57962857D01*
X131834285Y-57867619D01*
X131786666Y-57820000D01*
X131691428Y-57772380D01*
X131500952Y-57772380D01*
X131405714Y-57820000D01*
X131358095Y-57867619D01*
X131310476Y-57962857D01*
X131310476Y-58010476D01*
X131358095Y-58105714D01*
X131405714Y-58153333D01*
X131500952Y-58200952D01*
X131691428Y-58200952D01*
X131786666Y-58248571D01*
X131834285Y-58296190D01*
X131881904Y-58391428D01*
X131881904Y-58581904D01*
X131834285Y-58677142D01*
X131786666Y-58724761D01*
X131691428Y-58772380D01*
X131500952Y-58772380D01*
X131405714Y-58724761D01*
X131358095Y-58677142D01*
X131310476Y-58581904D01*
X131310476Y-58391428D01*
X131358095Y-58296190D01*
X131405714Y-58248571D01*
X131500952Y-58200952D01*
X130453333Y-58105714D02*
X130453333Y-58772380D01*
X130691428Y-57724761D02*
X130929523Y-58439047D01*
X130310476Y-58439047D01*
X143312857Y-63222380D02*
X143646190Y-62746190D01*
X143884285Y-63222380D02*
X143884285Y-62222380D01*
X143503333Y-62222380D01*
X143408095Y-62270000D01*
X143360476Y-62317619D01*
X143312857Y-62412857D01*
X143312857Y-62555714D01*
X143360476Y-62650952D01*
X143408095Y-62698571D01*
X143503333Y-62746190D01*
X143884285Y-62746190D01*
X142741428Y-62650952D02*
X142836666Y-62603333D01*
X142884285Y-62555714D01*
X142931904Y-62460476D01*
X142931904Y-62412857D01*
X142884285Y-62317619D01*
X142836666Y-62270000D01*
X142741428Y-62222380D01*
X142550952Y-62222380D01*
X142455714Y-62270000D01*
X142408095Y-62317619D01*
X142360476Y-62412857D01*
X142360476Y-62460476D01*
X142408095Y-62555714D01*
X142455714Y-62603333D01*
X142550952Y-62650952D01*
X142741428Y-62650952D01*
X142836666Y-62698571D01*
X142884285Y-62746190D01*
X142931904Y-62841428D01*
X142931904Y-63031904D01*
X142884285Y-63127142D01*
X142836666Y-63174761D01*
X142741428Y-63222380D01*
X142550952Y-63222380D01*
X142455714Y-63174761D01*
X142408095Y-63127142D01*
X142360476Y-63031904D01*
X142360476Y-62841428D01*
X142408095Y-62746190D01*
X142455714Y-62698571D01*
X142550952Y-62650952D01*
X142027142Y-62222380D02*
X141408095Y-62222380D01*
X141741428Y-62603333D01*
X141598571Y-62603333D01*
X141503333Y-62650952D01*
X141455714Y-62698571D01*
X141408095Y-62793809D01*
X141408095Y-63031904D01*
X141455714Y-63127142D01*
X141503333Y-63174761D01*
X141598571Y-63222380D01*
X141884285Y-63222380D01*
X141979523Y-63174761D01*
X142027142Y-63127142D01*
X136452380Y-67064642D02*
X135976190Y-66731309D01*
X136452380Y-66493214D02*
X135452380Y-66493214D01*
X135452380Y-66874166D01*
X135500000Y-66969404D01*
X135547619Y-67017023D01*
X135642857Y-67064642D01*
X135785714Y-67064642D01*
X135880952Y-67017023D01*
X135928571Y-66969404D01*
X135976190Y-66874166D01*
X135976190Y-66493214D01*
X135880952Y-67636071D02*
X135833333Y-67540833D01*
X135785714Y-67493214D01*
X135690476Y-67445595D01*
X135642857Y-67445595D01*
X135547619Y-67493214D01*
X135500000Y-67540833D01*
X135452380Y-67636071D01*
X135452380Y-67826547D01*
X135500000Y-67921785D01*
X135547619Y-67969404D01*
X135642857Y-68017023D01*
X135690476Y-68017023D01*
X135785714Y-67969404D01*
X135833333Y-67921785D01*
X135880952Y-67826547D01*
X135880952Y-67636071D01*
X135928571Y-67540833D01*
X135976190Y-67493214D01*
X136071428Y-67445595D01*
X136261904Y-67445595D01*
X136357142Y-67493214D01*
X136404761Y-67540833D01*
X136452380Y-67636071D01*
X136452380Y-67826547D01*
X136404761Y-67921785D01*
X136357142Y-67969404D01*
X136261904Y-68017023D01*
X136071428Y-68017023D01*
X135976190Y-67969404D01*
X135928571Y-67921785D01*
X135880952Y-67826547D01*
X135547619Y-68397976D02*
X135500000Y-68445595D01*
X135452380Y-68540833D01*
X135452380Y-68778928D01*
X135500000Y-68874166D01*
X135547619Y-68921785D01*
X135642857Y-68969404D01*
X135738095Y-68969404D01*
X135880952Y-68921785D01*
X136452380Y-68350357D01*
X136452380Y-68969404D01*
X134272380Y-102605714D02*
X133272380Y-102605714D01*
X133272380Y-102843809D01*
X133320000Y-102986666D01*
X133415238Y-103081904D01*
X133510476Y-103129523D01*
X133700952Y-103177142D01*
X133843809Y-103177142D01*
X134034285Y-103129523D01*
X134129523Y-103081904D01*
X134224761Y-102986666D01*
X134272380Y-102843809D01*
X134272380Y-102605714D01*
X133272380Y-103510476D02*
X133272380Y-104129523D01*
X133653333Y-103796190D01*
X133653333Y-103939047D01*
X133700952Y-104034285D01*
X133748571Y-104081904D01*
X133843809Y-104129523D01*
X134081904Y-104129523D01*
X134177142Y-104081904D01*
X134224761Y-104034285D01*
X134272380Y-103939047D01*
X134272380Y-103653333D01*
X134224761Y-103558095D01*
X134177142Y-103510476D01*
X133272380Y-104986666D02*
X133272380Y-104796190D01*
X133320000Y-104700952D01*
X133367619Y-104653333D01*
X133510476Y-104558095D01*
X133700952Y-104510476D01*
X134081904Y-104510476D01*
X134177142Y-104558095D01*
X134224761Y-104605714D01*
X134272380Y-104700952D01*
X134272380Y-104891428D01*
X134224761Y-104986666D01*
X134177142Y-105034285D01*
X134081904Y-105081904D01*
X133843809Y-105081904D01*
X133748571Y-105034285D01*
X133700952Y-104986666D01*
X133653333Y-104891428D01*
X133653333Y-104700952D01*
X133700952Y-104605714D01*
X133748571Y-104558095D01*
X133843809Y-104510476D01*
X132072380Y-73105714D02*
X131072380Y-73105714D01*
X131072380Y-73343809D01*
X131120000Y-73486666D01*
X131215238Y-73581904D01*
X131310476Y-73629523D01*
X131500952Y-73677142D01*
X131643809Y-73677142D01*
X131834285Y-73629523D01*
X131929523Y-73581904D01*
X132024761Y-73486666D01*
X132072380Y-73343809D01*
X132072380Y-73105714D01*
X131072380Y-74010476D02*
X131072380Y-74629523D01*
X131453333Y-74296190D01*
X131453333Y-74439047D01*
X131500952Y-74534285D01*
X131548571Y-74581904D01*
X131643809Y-74629523D01*
X131881904Y-74629523D01*
X131977142Y-74581904D01*
X132024761Y-74534285D01*
X132072380Y-74439047D01*
X132072380Y-74153333D01*
X132024761Y-74058095D01*
X131977142Y-74010476D01*
X131072380Y-75534285D02*
X131072380Y-75058095D01*
X131548571Y-75010476D01*
X131500952Y-75058095D01*
X131453333Y-75153333D01*
X131453333Y-75391428D01*
X131500952Y-75486666D01*
X131548571Y-75534285D01*
X131643809Y-75581904D01*
X131881904Y-75581904D01*
X131977142Y-75534285D01*
X132024761Y-75486666D01*
X132072380Y-75391428D01*
X132072380Y-75153333D01*
X132024761Y-75058095D01*
X131977142Y-75010476D01*
X125472380Y-98705714D02*
X124472380Y-98705714D01*
X124472380Y-98943809D01*
X124520000Y-99086666D01*
X124615238Y-99181904D01*
X124710476Y-99229523D01*
X124900952Y-99277142D01*
X125043809Y-99277142D01*
X125234285Y-99229523D01*
X125329523Y-99181904D01*
X125424761Y-99086666D01*
X125472380Y-98943809D01*
X125472380Y-98705714D01*
X124472380Y-99610476D02*
X124472380Y-100229523D01*
X124853333Y-99896190D01*
X124853333Y-100039047D01*
X124900952Y-100134285D01*
X124948571Y-100181904D01*
X125043809Y-100229523D01*
X125281904Y-100229523D01*
X125377142Y-100181904D01*
X125424761Y-100134285D01*
X125472380Y-100039047D01*
X125472380Y-99753333D01*
X125424761Y-99658095D01*
X125377142Y-99610476D01*
X124805714Y-101086666D02*
X125472380Y-101086666D01*
X124424761Y-100848571D02*
X125139047Y-100610476D01*
X125139047Y-101229523D01*
X121272380Y-72905714D02*
X120272380Y-72905714D01*
X120272380Y-73143809D01*
X120320000Y-73286666D01*
X120415238Y-73381904D01*
X120510476Y-73429523D01*
X120700952Y-73477142D01*
X120843809Y-73477142D01*
X121034285Y-73429523D01*
X121129523Y-73381904D01*
X121224761Y-73286666D01*
X121272380Y-73143809D01*
X121272380Y-72905714D01*
X120272380Y-73810476D02*
X120272380Y-74429523D01*
X120653333Y-74096190D01*
X120653333Y-74239047D01*
X120700952Y-74334285D01*
X120748571Y-74381904D01*
X120843809Y-74429523D01*
X121081904Y-74429523D01*
X121177142Y-74381904D01*
X121224761Y-74334285D01*
X121272380Y-74239047D01*
X121272380Y-73953333D01*
X121224761Y-73858095D01*
X121177142Y-73810476D01*
X120272380Y-74762857D02*
X120272380Y-75381904D01*
X120653333Y-75048571D01*
X120653333Y-75191428D01*
X120700952Y-75286666D01*
X120748571Y-75334285D01*
X120843809Y-75381904D01*
X121081904Y-75381904D01*
X121177142Y-75334285D01*
X121224761Y-75286666D01*
X121272380Y-75191428D01*
X121272380Y-74905714D01*
X121224761Y-74810476D01*
X121177142Y-74762857D01*
X150634285Y-132372380D02*
X150634285Y-131372380D01*
X150396190Y-131372380D01*
X150253333Y-131420000D01*
X150158095Y-131515238D01*
X150110476Y-131610476D01*
X150062857Y-131800952D01*
X150062857Y-131943809D01*
X150110476Y-132134285D01*
X150158095Y-132229523D01*
X150253333Y-132324761D01*
X150396190Y-132372380D01*
X150634285Y-132372380D01*
X149729523Y-131372380D02*
X149110476Y-131372380D01*
X149443809Y-131753333D01*
X149300952Y-131753333D01*
X149205714Y-131800952D01*
X149158095Y-131848571D01*
X149110476Y-131943809D01*
X149110476Y-132181904D01*
X149158095Y-132277142D01*
X149205714Y-132324761D01*
X149300952Y-132372380D01*
X149586666Y-132372380D01*
X149681904Y-132324761D01*
X149729523Y-132277142D01*
X148729523Y-131467619D02*
X148681904Y-131420000D01*
X148586666Y-131372380D01*
X148348571Y-131372380D01*
X148253333Y-131420000D01*
X148205714Y-131467619D01*
X148158095Y-131562857D01*
X148158095Y-131658095D01*
X148205714Y-131800952D01*
X148777142Y-132372380D01*
X148158095Y-132372380D01*
X154434285Y-126572380D02*
X154434285Y-125572380D01*
X154196190Y-125572380D01*
X154053333Y-125620000D01*
X153958095Y-125715238D01*
X153910476Y-125810476D01*
X153862857Y-126000952D01*
X153862857Y-126143809D01*
X153910476Y-126334285D01*
X153958095Y-126429523D01*
X154053333Y-126524761D01*
X154196190Y-126572380D01*
X154434285Y-126572380D01*
X153529523Y-125572380D02*
X152910476Y-125572380D01*
X153243809Y-125953333D01*
X153100952Y-125953333D01*
X153005714Y-126000952D01*
X152958095Y-126048571D01*
X152910476Y-126143809D01*
X152910476Y-126381904D01*
X152958095Y-126477142D01*
X153005714Y-126524761D01*
X153100952Y-126572380D01*
X153386666Y-126572380D01*
X153481904Y-126524761D01*
X153529523Y-126477142D01*
X151958095Y-126572380D02*
X152529523Y-126572380D01*
X152243809Y-126572380D02*
X152243809Y-125572380D01*
X152339047Y-125715238D01*
X152434285Y-125810476D01*
X152529523Y-125858095D01*
X114384285Y-132972380D02*
X114384285Y-131972380D01*
X114146190Y-131972380D01*
X114003333Y-132020000D01*
X113908095Y-132115238D01*
X113860476Y-132210476D01*
X113812857Y-132400952D01*
X113812857Y-132543809D01*
X113860476Y-132734285D01*
X113908095Y-132829523D01*
X114003333Y-132924761D01*
X114146190Y-132972380D01*
X114384285Y-132972380D01*
X113479523Y-131972380D02*
X112860476Y-131972380D01*
X113193809Y-132353333D01*
X113050952Y-132353333D01*
X112955714Y-132400952D01*
X112908095Y-132448571D01*
X112860476Y-132543809D01*
X112860476Y-132781904D01*
X112908095Y-132877142D01*
X112955714Y-132924761D01*
X113050952Y-132972380D01*
X113336666Y-132972380D01*
X113431904Y-132924761D01*
X113479523Y-132877142D01*
X112241428Y-131972380D02*
X112146190Y-131972380D01*
X112050952Y-132020000D01*
X112003333Y-132067619D01*
X111955714Y-132162857D01*
X111908095Y-132353333D01*
X111908095Y-132591428D01*
X111955714Y-132781904D01*
X112003333Y-132877142D01*
X112050952Y-132924761D01*
X112146190Y-132972380D01*
X112241428Y-132972380D01*
X112336666Y-132924761D01*
X112384285Y-132877142D01*
X112431904Y-132781904D01*
X112479523Y-132591428D01*
X112479523Y-132353333D01*
X112431904Y-132162857D01*
X112384285Y-132067619D01*
X112336666Y-132020000D01*
X112241428Y-131972380D01*
X114384285Y-127772380D02*
X114384285Y-126772380D01*
X114146190Y-126772380D01*
X114003333Y-126820000D01*
X113908095Y-126915238D01*
X113860476Y-127010476D01*
X113812857Y-127200952D01*
X113812857Y-127343809D01*
X113860476Y-127534285D01*
X113908095Y-127629523D01*
X114003333Y-127724761D01*
X114146190Y-127772380D01*
X114384285Y-127772380D01*
X113431904Y-126867619D02*
X113384285Y-126820000D01*
X113289047Y-126772380D01*
X113050952Y-126772380D01*
X112955714Y-126820000D01*
X112908095Y-126867619D01*
X112860476Y-126962857D01*
X112860476Y-127058095D01*
X112908095Y-127200952D01*
X113479523Y-127772380D01*
X112860476Y-127772380D01*
X112384285Y-127772380D02*
X112193809Y-127772380D01*
X112098571Y-127724761D01*
X112050952Y-127677142D01*
X111955714Y-127534285D01*
X111908095Y-127343809D01*
X111908095Y-126962857D01*
X111955714Y-126867619D01*
X112003333Y-126820000D01*
X112098571Y-126772380D01*
X112289047Y-126772380D01*
X112384285Y-126820000D01*
X112431904Y-126867619D01*
X112479523Y-126962857D01*
X112479523Y-127200952D01*
X112431904Y-127296190D01*
X112384285Y-127343809D01*
X112289047Y-127391428D01*
X112098571Y-127391428D01*
X112003333Y-127343809D01*
X111955714Y-127296190D01*
X111908095Y-127200952D01*
X117034285Y-115972380D02*
X117034285Y-114972380D01*
X116796190Y-114972380D01*
X116653333Y-115020000D01*
X116558095Y-115115238D01*
X116510476Y-115210476D01*
X116462857Y-115400952D01*
X116462857Y-115543809D01*
X116510476Y-115734285D01*
X116558095Y-115829523D01*
X116653333Y-115924761D01*
X116796190Y-115972380D01*
X117034285Y-115972380D01*
X116081904Y-115067619D02*
X116034285Y-115020000D01*
X115939047Y-114972380D01*
X115700952Y-114972380D01*
X115605714Y-115020000D01*
X115558095Y-115067619D01*
X115510476Y-115162857D01*
X115510476Y-115258095D01*
X115558095Y-115400952D01*
X116129523Y-115972380D01*
X115510476Y-115972380D01*
X114939047Y-115400952D02*
X115034285Y-115353333D01*
X115081904Y-115305714D01*
X115129523Y-115210476D01*
X115129523Y-115162857D01*
X115081904Y-115067619D01*
X115034285Y-115020000D01*
X114939047Y-114972380D01*
X114748571Y-114972380D01*
X114653333Y-115020000D01*
X114605714Y-115067619D01*
X114558095Y-115162857D01*
X114558095Y-115210476D01*
X114605714Y-115305714D01*
X114653333Y-115353333D01*
X114748571Y-115400952D01*
X114939047Y-115400952D01*
X115034285Y-115448571D01*
X115081904Y-115496190D01*
X115129523Y-115591428D01*
X115129523Y-115781904D01*
X115081904Y-115877142D01*
X115034285Y-115924761D01*
X114939047Y-115972380D01*
X114748571Y-115972380D01*
X114653333Y-115924761D01*
X114605714Y-115877142D01*
X114558095Y-115781904D01*
X114558095Y-115591428D01*
X114605714Y-115496190D01*
X114653333Y-115448571D01*
X114748571Y-115400952D01*
X119034285Y-109772380D02*
X119034285Y-108772380D01*
X118796190Y-108772380D01*
X118653333Y-108820000D01*
X118558095Y-108915238D01*
X118510476Y-109010476D01*
X118462857Y-109200952D01*
X118462857Y-109343809D01*
X118510476Y-109534285D01*
X118558095Y-109629523D01*
X118653333Y-109724761D01*
X118796190Y-109772380D01*
X119034285Y-109772380D01*
X118081904Y-108867619D02*
X118034285Y-108820000D01*
X117939047Y-108772380D01*
X117700952Y-108772380D01*
X117605714Y-108820000D01*
X117558095Y-108867619D01*
X117510476Y-108962857D01*
X117510476Y-109058095D01*
X117558095Y-109200952D01*
X118129523Y-109772380D01*
X117510476Y-109772380D01*
X117177142Y-108772380D02*
X116510476Y-108772380D01*
X116939047Y-109772380D01*
X113384285Y-99772380D02*
X113384285Y-98772380D01*
X113146190Y-98772380D01*
X113003333Y-98820000D01*
X112908095Y-98915238D01*
X112860476Y-99010476D01*
X112812857Y-99200952D01*
X112812857Y-99343809D01*
X112860476Y-99534285D01*
X112908095Y-99629523D01*
X113003333Y-99724761D01*
X113146190Y-99772380D01*
X113384285Y-99772380D01*
X112431904Y-98867619D02*
X112384285Y-98820000D01*
X112289047Y-98772380D01*
X112050952Y-98772380D01*
X111955714Y-98820000D01*
X111908095Y-98867619D01*
X111860476Y-98962857D01*
X111860476Y-99058095D01*
X111908095Y-99200952D01*
X112479523Y-99772380D01*
X111860476Y-99772380D01*
X111003333Y-98772380D02*
X111193809Y-98772380D01*
X111289047Y-98820000D01*
X111336666Y-98867619D01*
X111431904Y-99010476D01*
X111479523Y-99200952D01*
X111479523Y-99581904D01*
X111431904Y-99677142D01*
X111384285Y-99724761D01*
X111289047Y-99772380D01*
X111098571Y-99772380D01*
X111003333Y-99724761D01*
X110955714Y-99677142D01*
X110908095Y-99581904D01*
X110908095Y-99343809D01*
X110955714Y-99248571D01*
X111003333Y-99200952D01*
X111098571Y-99153333D01*
X111289047Y-99153333D01*
X111384285Y-99200952D01*
X111431904Y-99248571D01*
X111479523Y-99343809D01*
X118034285Y-94372380D02*
X118034285Y-93372380D01*
X117796190Y-93372380D01*
X117653333Y-93420000D01*
X117558095Y-93515238D01*
X117510476Y-93610476D01*
X117462857Y-93800952D01*
X117462857Y-93943809D01*
X117510476Y-94134285D01*
X117558095Y-94229523D01*
X117653333Y-94324761D01*
X117796190Y-94372380D01*
X118034285Y-94372380D01*
X117081904Y-93467619D02*
X117034285Y-93420000D01*
X116939047Y-93372380D01*
X116700952Y-93372380D01*
X116605714Y-93420000D01*
X116558095Y-93467619D01*
X116510476Y-93562857D01*
X116510476Y-93658095D01*
X116558095Y-93800952D01*
X117129523Y-94372380D01*
X116510476Y-94372380D01*
X115605714Y-93372380D02*
X116081904Y-93372380D01*
X116129523Y-93848571D01*
X116081904Y-93800952D01*
X115986666Y-93753333D01*
X115748571Y-93753333D01*
X115653333Y-93800952D01*
X115605714Y-93848571D01*
X115558095Y-93943809D01*
X115558095Y-94181904D01*
X115605714Y-94277142D01*
X115653333Y-94324761D01*
X115748571Y-94372380D01*
X115986666Y-94372380D01*
X116081904Y-94324761D01*
X116129523Y-94277142D01*
X113384285Y-83772380D02*
X113384285Y-82772380D01*
X113146190Y-82772380D01*
X113003333Y-82820000D01*
X112908095Y-82915238D01*
X112860476Y-83010476D01*
X112812857Y-83200952D01*
X112812857Y-83343809D01*
X112860476Y-83534285D01*
X112908095Y-83629523D01*
X113003333Y-83724761D01*
X113146190Y-83772380D01*
X113384285Y-83772380D01*
X112431904Y-82867619D02*
X112384285Y-82820000D01*
X112289047Y-82772380D01*
X112050952Y-82772380D01*
X111955714Y-82820000D01*
X111908095Y-82867619D01*
X111860476Y-82962857D01*
X111860476Y-83058095D01*
X111908095Y-83200952D01*
X112479523Y-83772380D01*
X111860476Y-83772380D01*
X111003333Y-83105714D02*
X111003333Y-83772380D01*
X111241428Y-82724761D02*
X111479523Y-83439047D01*
X110860476Y-83439047D01*
X113384285Y-79772380D02*
X113384285Y-78772380D01*
X113146190Y-78772380D01*
X113003333Y-78820000D01*
X112908095Y-78915238D01*
X112860476Y-79010476D01*
X112812857Y-79200952D01*
X112812857Y-79343809D01*
X112860476Y-79534285D01*
X112908095Y-79629523D01*
X113003333Y-79724761D01*
X113146190Y-79772380D01*
X113384285Y-79772380D01*
X112431904Y-78867619D02*
X112384285Y-78820000D01*
X112289047Y-78772380D01*
X112050952Y-78772380D01*
X111955714Y-78820000D01*
X111908095Y-78867619D01*
X111860476Y-78962857D01*
X111860476Y-79058095D01*
X111908095Y-79200952D01*
X112479523Y-79772380D01*
X111860476Y-79772380D01*
X111527142Y-78772380D02*
X110908095Y-78772380D01*
X111241428Y-79153333D01*
X111098571Y-79153333D01*
X111003333Y-79200952D01*
X110955714Y-79248571D01*
X110908095Y-79343809D01*
X110908095Y-79581904D01*
X110955714Y-79677142D01*
X111003333Y-79724761D01*
X111098571Y-79772380D01*
X111384285Y-79772380D01*
X111479523Y-79724761D01*
X111527142Y-79677142D01*
X113384285Y-67772380D02*
X113384285Y-66772380D01*
X113146190Y-66772380D01*
X113003333Y-66820000D01*
X112908095Y-66915238D01*
X112860476Y-67010476D01*
X112812857Y-67200952D01*
X112812857Y-67343809D01*
X112860476Y-67534285D01*
X112908095Y-67629523D01*
X113003333Y-67724761D01*
X113146190Y-67772380D01*
X113384285Y-67772380D01*
X112431904Y-66867619D02*
X112384285Y-66820000D01*
X112289047Y-66772380D01*
X112050952Y-66772380D01*
X111955714Y-66820000D01*
X111908095Y-66867619D01*
X111860476Y-66962857D01*
X111860476Y-67058095D01*
X111908095Y-67200952D01*
X112479523Y-67772380D01*
X111860476Y-67772380D01*
X111479523Y-66867619D02*
X111431904Y-66820000D01*
X111336666Y-66772380D01*
X111098571Y-66772380D01*
X111003333Y-66820000D01*
X110955714Y-66867619D01*
X110908095Y-66962857D01*
X110908095Y-67058095D01*
X110955714Y-67200952D01*
X111527142Y-67772380D01*
X110908095Y-67772380D01*
X113384285Y-63772380D02*
X113384285Y-62772380D01*
X113146190Y-62772380D01*
X113003333Y-62820000D01*
X112908095Y-62915238D01*
X112860476Y-63010476D01*
X112812857Y-63200952D01*
X112812857Y-63343809D01*
X112860476Y-63534285D01*
X112908095Y-63629523D01*
X113003333Y-63724761D01*
X113146190Y-63772380D01*
X113384285Y-63772380D01*
X112431904Y-62867619D02*
X112384285Y-62820000D01*
X112289047Y-62772380D01*
X112050952Y-62772380D01*
X111955714Y-62820000D01*
X111908095Y-62867619D01*
X111860476Y-62962857D01*
X111860476Y-63058095D01*
X111908095Y-63200952D01*
X112479523Y-63772380D01*
X111860476Y-63772380D01*
X110908095Y-63772380D02*
X111479523Y-63772380D01*
X111193809Y-63772380D02*
X111193809Y-62772380D01*
X111289047Y-62915238D01*
X111384285Y-63010476D01*
X111479523Y-63058095D01*
X116234285Y-51972380D02*
X116234285Y-50972380D01*
X115996190Y-50972380D01*
X115853333Y-51020000D01*
X115758095Y-51115238D01*
X115710476Y-51210476D01*
X115662857Y-51400952D01*
X115662857Y-51543809D01*
X115710476Y-51734285D01*
X115758095Y-51829523D01*
X115853333Y-51924761D01*
X115996190Y-51972380D01*
X116234285Y-51972380D01*
X115281904Y-51067619D02*
X115234285Y-51020000D01*
X115139047Y-50972380D01*
X114900952Y-50972380D01*
X114805714Y-51020000D01*
X114758095Y-51067619D01*
X114710476Y-51162857D01*
X114710476Y-51258095D01*
X114758095Y-51400952D01*
X115329523Y-51972380D01*
X114710476Y-51972380D01*
X114091428Y-50972380D02*
X113996190Y-50972380D01*
X113900952Y-51020000D01*
X113853333Y-51067619D01*
X113805714Y-51162857D01*
X113758095Y-51353333D01*
X113758095Y-51591428D01*
X113805714Y-51781904D01*
X113853333Y-51877142D01*
X113900952Y-51924761D01*
X113996190Y-51972380D01*
X114091428Y-51972380D01*
X114186666Y-51924761D01*
X114234285Y-51877142D01*
X114281904Y-51781904D01*
X114329523Y-51591428D01*
X114329523Y-51353333D01*
X114281904Y-51162857D01*
X114234285Y-51067619D01*
X114186666Y-51020000D01*
X114091428Y-50972380D01*
X113384285Y-47772380D02*
X113384285Y-46772380D01*
X113146190Y-46772380D01*
X113003333Y-46820000D01*
X112908095Y-46915238D01*
X112860476Y-47010476D01*
X112812857Y-47200952D01*
X112812857Y-47343809D01*
X112860476Y-47534285D01*
X112908095Y-47629523D01*
X113003333Y-47724761D01*
X113146190Y-47772380D01*
X113384285Y-47772380D01*
X111860476Y-47772380D02*
X112431904Y-47772380D01*
X112146190Y-47772380D02*
X112146190Y-46772380D01*
X112241428Y-46915238D01*
X112336666Y-47010476D01*
X112431904Y-47058095D01*
X111384285Y-47772380D02*
X111193809Y-47772380D01*
X111098571Y-47724761D01*
X111050952Y-47677142D01*
X110955714Y-47534285D01*
X110908095Y-47343809D01*
X110908095Y-46962857D01*
X110955714Y-46867619D01*
X111003333Y-46820000D01*
X111098571Y-46772380D01*
X111289047Y-46772380D01*
X111384285Y-46820000D01*
X111431904Y-46867619D01*
X111479523Y-46962857D01*
X111479523Y-47200952D01*
X111431904Y-47296190D01*
X111384285Y-47343809D01*
X111289047Y-47391428D01*
X111098571Y-47391428D01*
X111003333Y-47343809D01*
X110955714Y-47296190D01*
X110908095Y-47200952D01*
X150634285Y-51272380D02*
X150634285Y-50272380D01*
X150396190Y-50272380D01*
X150253333Y-50320000D01*
X150158095Y-50415238D01*
X150110476Y-50510476D01*
X150062857Y-50700952D01*
X150062857Y-50843809D01*
X150110476Y-51034285D01*
X150158095Y-51129523D01*
X150253333Y-51224761D01*
X150396190Y-51272380D01*
X150634285Y-51272380D01*
X149110476Y-51272380D02*
X149681904Y-51272380D01*
X149396190Y-51272380D02*
X149396190Y-50272380D01*
X149491428Y-50415238D01*
X149586666Y-50510476D01*
X149681904Y-50558095D01*
X148539047Y-50700952D02*
X148634285Y-50653333D01*
X148681904Y-50605714D01*
X148729523Y-50510476D01*
X148729523Y-50462857D01*
X148681904Y-50367619D01*
X148634285Y-50320000D01*
X148539047Y-50272380D01*
X148348571Y-50272380D01*
X148253333Y-50320000D01*
X148205714Y-50367619D01*
X148158095Y-50462857D01*
X148158095Y-50510476D01*
X148205714Y-50605714D01*
X148253333Y-50653333D01*
X148348571Y-50700952D01*
X148539047Y-50700952D01*
X148634285Y-50748571D01*
X148681904Y-50796190D01*
X148729523Y-50891428D01*
X148729523Y-51081904D01*
X148681904Y-51177142D01*
X148634285Y-51224761D01*
X148539047Y-51272380D01*
X148348571Y-51272380D01*
X148253333Y-51224761D01*
X148205714Y-51177142D01*
X148158095Y-51081904D01*
X148158095Y-50891428D01*
X148205714Y-50796190D01*
X148253333Y-50748571D01*
X148348571Y-50700952D01*
X150684285Y-46972380D02*
X150684285Y-45972380D01*
X150446190Y-45972380D01*
X150303333Y-46020000D01*
X150208095Y-46115238D01*
X150160476Y-46210476D01*
X150112857Y-46400952D01*
X150112857Y-46543809D01*
X150160476Y-46734285D01*
X150208095Y-46829523D01*
X150303333Y-46924761D01*
X150446190Y-46972380D01*
X150684285Y-46972380D01*
X149160476Y-46972380D02*
X149731904Y-46972380D01*
X149446190Y-46972380D02*
X149446190Y-45972380D01*
X149541428Y-46115238D01*
X149636666Y-46210476D01*
X149731904Y-46258095D01*
X148827142Y-45972380D02*
X148160476Y-45972380D01*
X148589047Y-46972380D01*
X144062857Y-128552380D02*
X144396190Y-128076190D01*
X144634285Y-128552380D02*
X144634285Y-127552380D01*
X144253333Y-127552380D01*
X144158095Y-127600000D01*
X144110476Y-127647619D01*
X144062857Y-127742857D01*
X144062857Y-127885714D01*
X144110476Y-127980952D01*
X144158095Y-128028571D01*
X144253333Y-128076190D01*
X144634285Y-128076190D01*
X143491428Y-127980952D02*
X143586666Y-127933333D01*
X143634285Y-127885714D01*
X143681904Y-127790476D01*
X143681904Y-127742857D01*
X143634285Y-127647619D01*
X143586666Y-127600000D01*
X143491428Y-127552380D01*
X143300952Y-127552380D01*
X143205714Y-127600000D01*
X143158095Y-127647619D01*
X143110476Y-127742857D01*
X143110476Y-127790476D01*
X143158095Y-127885714D01*
X143205714Y-127933333D01*
X143300952Y-127980952D01*
X143491428Y-127980952D01*
X143586666Y-128028571D01*
X143634285Y-128076190D01*
X143681904Y-128171428D01*
X143681904Y-128361904D01*
X143634285Y-128457142D01*
X143586666Y-128504761D01*
X143491428Y-128552380D01*
X143300952Y-128552380D01*
X143205714Y-128504761D01*
X143158095Y-128457142D01*
X143110476Y-128361904D01*
X143110476Y-128171428D01*
X143158095Y-128076190D01*
X143205714Y-128028571D01*
X143300952Y-127980952D01*
X142491428Y-127552380D02*
X142396190Y-127552380D01*
X142300952Y-127600000D01*
X142253333Y-127647619D01*
X142205714Y-127742857D01*
X142158095Y-127933333D01*
X142158095Y-128171428D01*
X142205714Y-128361904D01*
X142253333Y-128457142D01*
X142300952Y-128504761D01*
X142396190Y-128552380D01*
X142491428Y-128552380D01*
X142586666Y-128504761D01*
X142634285Y-128457142D01*
X142681904Y-128361904D01*
X142729523Y-128171428D01*
X142729523Y-127933333D01*
X142681904Y-127742857D01*
X142634285Y-127647619D01*
X142586666Y-127600000D01*
X142491428Y-127552380D01*
X141862857Y-124572380D02*
X142196190Y-124096190D01*
X142434285Y-124572380D02*
X142434285Y-123572380D01*
X142053333Y-123572380D01*
X141958095Y-123620000D01*
X141910476Y-123667619D01*
X141862857Y-123762857D01*
X141862857Y-123905714D01*
X141910476Y-124000952D01*
X141958095Y-124048571D01*
X142053333Y-124096190D01*
X142434285Y-124096190D01*
X141529523Y-123572380D02*
X140862857Y-123572380D01*
X141291428Y-124572380D01*
X140434285Y-124572380D02*
X140243809Y-124572380D01*
X140148571Y-124524761D01*
X140100952Y-124477142D01*
X140005714Y-124334285D01*
X139958095Y-124143809D01*
X139958095Y-123762857D01*
X140005714Y-123667619D01*
X140053333Y-123620000D01*
X140148571Y-123572380D01*
X140339047Y-123572380D01*
X140434285Y-123620000D01*
X140481904Y-123667619D01*
X140529523Y-123762857D01*
X140529523Y-124000952D01*
X140481904Y-124096190D01*
X140434285Y-124143809D01*
X140339047Y-124191428D01*
X140148571Y-124191428D01*
X140053333Y-124143809D01*
X140005714Y-124096190D01*
X139958095Y-124000952D01*
X108162857Y-127952380D02*
X108496190Y-127476190D01*
X108734285Y-127952380D02*
X108734285Y-126952380D01*
X108353333Y-126952380D01*
X108258095Y-127000000D01*
X108210476Y-127047619D01*
X108162857Y-127142857D01*
X108162857Y-127285714D01*
X108210476Y-127380952D01*
X108258095Y-127428571D01*
X108353333Y-127476190D01*
X108734285Y-127476190D01*
X107829523Y-126952380D02*
X107162857Y-126952380D01*
X107591428Y-127952380D01*
X106639047Y-127380952D02*
X106734285Y-127333333D01*
X106781904Y-127285714D01*
X106829523Y-127190476D01*
X106829523Y-127142857D01*
X106781904Y-127047619D01*
X106734285Y-127000000D01*
X106639047Y-126952380D01*
X106448571Y-126952380D01*
X106353333Y-127000000D01*
X106305714Y-127047619D01*
X106258095Y-127142857D01*
X106258095Y-127190476D01*
X106305714Y-127285714D01*
X106353333Y-127333333D01*
X106448571Y-127380952D01*
X106639047Y-127380952D01*
X106734285Y-127428571D01*
X106781904Y-127476190D01*
X106829523Y-127571428D01*
X106829523Y-127761904D01*
X106781904Y-127857142D01*
X106734285Y-127904761D01*
X106639047Y-127952380D01*
X106448571Y-127952380D01*
X106353333Y-127904761D01*
X106305714Y-127857142D01*
X106258095Y-127761904D01*
X106258095Y-127571428D01*
X106305714Y-127476190D01*
X106353333Y-127428571D01*
X106448571Y-127380952D01*
X108162857Y-123952380D02*
X108496190Y-123476190D01*
X108734285Y-123952380D02*
X108734285Y-122952380D01*
X108353333Y-122952380D01*
X108258095Y-123000000D01*
X108210476Y-123047619D01*
X108162857Y-123142857D01*
X108162857Y-123285714D01*
X108210476Y-123380952D01*
X108258095Y-123428571D01*
X108353333Y-123476190D01*
X108734285Y-123476190D01*
X107829523Y-122952380D02*
X107162857Y-122952380D01*
X107591428Y-123952380D01*
X106877142Y-122952380D02*
X106210476Y-122952380D01*
X106639047Y-123952380D01*
X104262857Y-111952380D02*
X104596190Y-111476190D01*
X104834285Y-111952380D02*
X104834285Y-110952380D01*
X104453333Y-110952380D01*
X104358095Y-111000000D01*
X104310476Y-111047619D01*
X104262857Y-111142857D01*
X104262857Y-111285714D01*
X104310476Y-111380952D01*
X104358095Y-111428571D01*
X104453333Y-111476190D01*
X104834285Y-111476190D01*
X103929523Y-110952380D02*
X103262857Y-110952380D01*
X103691428Y-111952380D01*
X102453333Y-110952380D02*
X102643809Y-110952380D01*
X102739047Y-111000000D01*
X102786666Y-111047619D01*
X102881904Y-111190476D01*
X102929523Y-111380952D01*
X102929523Y-111761904D01*
X102881904Y-111857142D01*
X102834285Y-111904761D01*
X102739047Y-111952380D01*
X102548571Y-111952380D01*
X102453333Y-111904761D01*
X102405714Y-111857142D01*
X102358095Y-111761904D01*
X102358095Y-111523809D01*
X102405714Y-111428571D01*
X102453333Y-111380952D01*
X102548571Y-111333333D01*
X102739047Y-111333333D01*
X102834285Y-111380952D01*
X102881904Y-111428571D01*
X102929523Y-111523809D01*
X108162857Y-107952380D02*
X108496190Y-107476190D01*
X108734285Y-107952380D02*
X108734285Y-106952380D01*
X108353333Y-106952380D01*
X108258095Y-107000000D01*
X108210476Y-107047619D01*
X108162857Y-107142857D01*
X108162857Y-107285714D01*
X108210476Y-107380952D01*
X108258095Y-107428571D01*
X108353333Y-107476190D01*
X108734285Y-107476190D01*
X107829523Y-106952380D02*
X107162857Y-106952380D01*
X107591428Y-107952380D01*
X106305714Y-106952380D02*
X106781904Y-106952380D01*
X106829523Y-107428571D01*
X106781904Y-107380952D01*
X106686666Y-107333333D01*
X106448571Y-107333333D01*
X106353333Y-107380952D01*
X106305714Y-107428571D01*
X106258095Y-107523809D01*
X106258095Y-107761904D01*
X106305714Y-107857142D01*
X106353333Y-107904761D01*
X106448571Y-107952380D01*
X106686666Y-107952380D01*
X106781904Y-107904761D01*
X106829523Y-107857142D01*
X106962857Y-95952380D02*
X107296190Y-95476190D01*
X107534285Y-95952380D02*
X107534285Y-94952380D01*
X107153333Y-94952380D01*
X107058095Y-95000000D01*
X107010476Y-95047619D01*
X106962857Y-95142857D01*
X106962857Y-95285714D01*
X107010476Y-95380952D01*
X107058095Y-95428571D01*
X107153333Y-95476190D01*
X107534285Y-95476190D01*
X106629523Y-94952380D02*
X105962857Y-94952380D01*
X106391428Y-95952380D01*
X105153333Y-95285714D02*
X105153333Y-95952380D01*
X105391428Y-94904761D02*
X105629523Y-95619047D01*
X105010476Y-95619047D01*
X106262857Y-91952380D02*
X106596190Y-91476190D01*
X106834285Y-91952380D02*
X106834285Y-90952380D01*
X106453333Y-90952380D01*
X106358095Y-91000000D01*
X106310476Y-91047619D01*
X106262857Y-91142857D01*
X106262857Y-91285714D01*
X106310476Y-91380952D01*
X106358095Y-91428571D01*
X106453333Y-91476190D01*
X106834285Y-91476190D01*
X105929523Y-90952380D02*
X105262857Y-90952380D01*
X105691428Y-91952380D01*
X104977142Y-90952380D02*
X104358095Y-90952380D01*
X104691428Y-91333333D01*
X104548571Y-91333333D01*
X104453333Y-91380952D01*
X104405714Y-91428571D01*
X104358095Y-91523809D01*
X104358095Y-91761904D01*
X104405714Y-91857142D01*
X104453333Y-91904761D01*
X104548571Y-91952380D01*
X104834285Y-91952380D01*
X104929523Y-91904761D01*
X104977142Y-91857142D01*
X106962857Y-79952380D02*
X107296190Y-79476190D01*
X107534285Y-79952380D02*
X107534285Y-78952380D01*
X107153333Y-78952380D01*
X107058095Y-79000000D01*
X107010476Y-79047619D01*
X106962857Y-79142857D01*
X106962857Y-79285714D01*
X107010476Y-79380952D01*
X107058095Y-79428571D01*
X107153333Y-79476190D01*
X107534285Y-79476190D01*
X106629523Y-78952380D02*
X105962857Y-78952380D01*
X106391428Y-79952380D01*
X105629523Y-79047619D02*
X105581904Y-79000000D01*
X105486666Y-78952380D01*
X105248571Y-78952380D01*
X105153333Y-79000000D01*
X105105714Y-79047619D01*
X105058095Y-79142857D01*
X105058095Y-79238095D01*
X105105714Y-79380952D01*
X105677142Y-79952380D01*
X105058095Y-79952380D01*
X106962857Y-75952380D02*
X107296190Y-75476190D01*
X107534285Y-75952380D02*
X107534285Y-74952380D01*
X107153333Y-74952380D01*
X107058095Y-75000000D01*
X107010476Y-75047619D01*
X106962857Y-75142857D01*
X106962857Y-75285714D01*
X107010476Y-75380952D01*
X107058095Y-75428571D01*
X107153333Y-75476190D01*
X107534285Y-75476190D01*
X106629523Y-74952380D02*
X105962857Y-74952380D01*
X106391428Y-75952380D01*
X105058095Y-75952380D02*
X105629523Y-75952380D01*
X105343809Y-75952380D02*
X105343809Y-74952380D01*
X105439047Y-75095238D01*
X105534285Y-75190476D01*
X105629523Y-75238095D01*
X106912857Y-67872380D02*
X107246190Y-67396190D01*
X107484285Y-67872380D02*
X107484285Y-66872380D01*
X107103333Y-66872380D01*
X107008095Y-66920000D01*
X106960476Y-66967619D01*
X106912857Y-67062857D01*
X106912857Y-67205714D01*
X106960476Y-67300952D01*
X107008095Y-67348571D01*
X107103333Y-67396190D01*
X107484285Y-67396190D01*
X106579523Y-66872380D02*
X105912857Y-66872380D01*
X106341428Y-67872380D01*
X105341428Y-66872380D02*
X105246190Y-66872380D01*
X105150952Y-66920000D01*
X105103333Y-66967619D01*
X105055714Y-67062857D01*
X105008095Y-67253333D01*
X105008095Y-67491428D01*
X105055714Y-67681904D01*
X105103333Y-67777142D01*
X105150952Y-67824761D01*
X105246190Y-67872380D01*
X105341428Y-67872380D01*
X105436666Y-67824761D01*
X105484285Y-67777142D01*
X105531904Y-67681904D01*
X105579523Y-67491428D01*
X105579523Y-67253333D01*
X105531904Y-67062857D01*
X105484285Y-66967619D01*
X105436666Y-66920000D01*
X105341428Y-66872380D01*
X107162857Y-59952380D02*
X107496190Y-59476190D01*
X107734285Y-59952380D02*
X107734285Y-58952380D01*
X107353333Y-58952380D01*
X107258095Y-59000000D01*
X107210476Y-59047619D01*
X107162857Y-59142857D01*
X107162857Y-59285714D01*
X107210476Y-59380952D01*
X107258095Y-59428571D01*
X107353333Y-59476190D01*
X107734285Y-59476190D01*
X106305714Y-58952380D02*
X106496190Y-58952380D01*
X106591428Y-59000000D01*
X106639047Y-59047619D01*
X106734285Y-59190476D01*
X106781904Y-59380952D01*
X106781904Y-59761904D01*
X106734285Y-59857142D01*
X106686666Y-59904761D01*
X106591428Y-59952380D01*
X106400952Y-59952380D01*
X106305714Y-59904761D01*
X106258095Y-59857142D01*
X106210476Y-59761904D01*
X106210476Y-59523809D01*
X106258095Y-59428571D01*
X106305714Y-59380952D01*
X106400952Y-59333333D01*
X106591428Y-59333333D01*
X106686666Y-59380952D01*
X106734285Y-59428571D01*
X106781904Y-59523809D01*
X105734285Y-59952380D02*
X105543809Y-59952380D01*
X105448571Y-59904761D01*
X105400952Y-59857142D01*
X105305714Y-59714285D01*
X105258095Y-59523809D01*
X105258095Y-59142857D01*
X105305714Y-59047619D01*
X105353333Y-59000000D01*
X105448571Y-58952380D01*
X105639047Y-58952380D01*
X105734285Y-59000000D01*
X105781904Y-59047619D01*
X105829523Y-59142857D01*
X105829523Y-59380952D01*
X105781904Y-59476190D01*
X105734285Y-59523809D01*
X105639047Y-59571428D01*
X105448571Y-59571428D01*
X105353333Y-59523809D01*
X105305714Y-59476190D01*
X105258095Y-59380952D01*
X106962857Y-52172380D02*
X107296190Y-51696190D01*
X107534285Y-52172380D02*
X107534285Y-51172380D01*
X107153333Y-51172380D01*
X107058095Y-51220000D01*
X107010476Y-51267619D01*
X106962857Y-51362857D01*
X106962857Y-51505714D01*
X107010476Y-51600952D01*
X107058095Y-51648571D01*
X107153333Y-51696190D01*
X107534285Y-51696190D01*
X106105714Y-51172380D02*
X106296190Y-51172380D01*
X106391428Y-51220000D01*
X106439047Y-51267619D01*
X106534285Y-51410476D01*
X106581904Y-51600952D01*
X106581904Y-51981904D01*
X106534285Y-52077142D01*
X106486666Y-52124761D01*
X106391428Y-52172380D01*
X106200952Y-52172380D01*
X106105714Y-52124761D01*
X106058095Y-52077142D01*
X106010476Y-51981904D01*
X106010476Y-51743809D01*
X106058095Y-51648571D01*
X106105714Y-51600952D01*
X106200952Y-51553333D01*
X106391428Y-51553333D01*
X106486666Y-51600952D01*
X106534285Y-51648571D01*
X106581904Y-51743809D01*
X105439047Y-51600952D02*
X105534285Y-51553333D01*
X105581904Y-51505714D01*
X105629523Y-51410476D01*
X105629523Y-51362857D01*
X105581904Y-51267619D01*
X105534285Y-51220000D01*
X105439047Y-51172380D01*
X105248571Y-51172380D01*
X105153333Y-51220000D01*
X105105714Y-51267619D01*
X105058095Y-51362857D01*
X105058095Y-51410476D01*
X105105714Y-51505714D01*
X105153333Y-51553333D01*
X105248571Y-51600952D01*
X105439047Y-51600952D01*
X105534285Y-51648571D01*
X105581904Y-51696190D01*
X105629523Y-51791428D01*
X105629523Y-51981904D01*
X105581904Y-52077142D01*
X105534285Y-52124761D01*
X105439047Y-52172380D01*
X105248571Y-52172380D01*
X105153333Y-52124761D01*
X105105714Y-52077142D01*
X105058095Y-51981904D01*
X105058095Y-51791428D01*
X105105714Y-51696190D01*
X105153333Y-51648571D01*
X105248571Y-51600952D01*
X107162857Y-43952380D02*
X107496190Y-43476190D01*
X107734285Y-43952380D02*
X107734285Y-42952380D01*
X107353333Y-42952380D01*
X107258095Y-43000000D01*
X107210476Y-43047619D01*
X107162857Y-43142857D01*
X107162857Y-43285714D01*
X107210476Y-43380952D01*
X107258095Y-43428571D01*
X107353333Y-43476190D01*
X107734285Y-43476190D01*
X106305714Y-42952380D02*
X106496190Y-42952380D01*
X106591428Y-43000000D01*
X106639047Y-43047619D01*
X106734285Y-43190476D01*
X106781904Y-43380952D01*
X106781904Y-43761904D01*
X106734285Y-43857142D01*
X106686666Y-43904761D01*
X106591428Y-43952380D01*
X106400952Y-43952380D01*
X106305714Y-43904761D01*
X106258095Y-43857142D01*
X106210476Y-43761904D01*
X106210476Y-43523809D01*
X106258095Y-43428571D01*
X106305714Y-43380952D01*
X106400952Y-43333333D01*
X106591428Y-43333333D01*
X106686666Y-43380952D01*
X106734285Y-43428571D01*
X106781904Y-43523809D01*
X105877142Y-42952380D02*
X105210476Y-42952380D01*
X105639047Y-43952380D01*
X144062857Y-51172380D02*
X144396190Y-50696190D01*
X144634285Y-51172380D02*
X144634285Y-50172380D01*
X144253333Y-50172380D01*
X144158095Y-50220000D01*
X144110476Y-50267619D01*
X144062857Y-50362857D01*
X144062857Y-50505714D01*
X144110476Y-50600952D01*
X144158095Y-50648571D01*
X144253333Y-50696190D01*
X144634285Y-50696190D01*
X143205714Y-50172380D02*
X143396190Y-50172380D01*
X143491428Y-50220000D01*
X143539047Y-50267619D01*
X143634285Y-50410476D01*
X143681904Y-50600952D01*
X143681904Y-50981904D01*
X143634285Y-51077142D01*
X143586666Y-51124761D01*
X143491428Y-51172380D01*
X143300952Y-51172380D01*
X143205714Y-51124761D01*
X143158095Y-51077142D01*
X143110476Y-50981904D01*
X143110476Y-50743809D01*
X143158095Y-50648571D01*
X143205714Y-50600952D01*
X143300952Y-50553333D01*
X143491428Y-50553333D01*
X143586666Y-50600952D01*
X143634285Y-50648571D01*
X143681904Y-50743809D01*
X142253333Y-50172380D02*
X142443809Y-50172380D01*
X142539047Y-50220000D01*
X142586666Y-50267619D01*
X142681904Y-50410476D01*
X142729523Y-50600952D01*
X142729523Y-50981904D01*
X142681904Y-51077142D01*
X142634285Y-51124761D01*
X142539047Y-51172380D01*
X142348571Y-51172380D01*
X142253333Y-51124761D01*
X142205714Y-51077142D01*
X142158095Y-50981904D01*
X142158095Y-50743809D01*
X142205714Y-50648571D01*
X142253333Y-50600952D01*
X142348571Y-50553333D01*
X142539047Y-50553333D01*
X142634285Y-50600952D01*
X142681904Y-50648571D01*
X142729523Y-50743809D01*
X144262857Y-43152380D02*
X144596190Y-42676190D01*
X144834285Y-43152380D02*
X144834285Y-42152380D01*
X144453333Y-42152380D01*
X144358095Y-42200000D01*
X144310476Y-42247619D01*
X144262857Y-42342857D01*
X144262857Y-42485714D01*
X144310476Y-42580952D01*
X144358095Y-42628571D01*
X144453333Y-42676190D01*
X144834285Y-42676190D01*
X143405714Y-42152380D02*
X143596190Y-42152380D01*
X143691428Y-42200000D01*
X143739047Y-42247619D01*
X143834285Y-42390476D01*
X143881904Y-42580952D01*
X143881904Y-42961904D01*
X143834285Y-43057142D01*
X143786666Y-43104761D01*
X143691428Y-43152380D01*
X143500952Y-43152380D01*
X143405714Y-43104761D01*
X143358095Y-43057142D01*
X143310476Y-42961904D01*
X143310476Y-42723809D01*
X143358095Y-42628571D01*
X143405714Y-42580952D01*
X143500952Y-42533333D01*
X143691428Y-42533333D01*
X143786666Y-42580952D01*
X143834285Y-42628571D01*
X143881904Y-42723809D01*
X142405714Y-42152380D02*
X142881904Y-42152380D01*
X142929523Y-42628571D01*
X142881904Y-42580952D01*
X142786666Y-42533333D01*
X142548571Y-42533333D01*
X142453333Y-42580952D01*
X142405714Y-42628571D01*
X142358095Y-42723809D01*
X142358095Y-42961904D01*
X142405714Y-43057142D01*
X142453333Y-43104761D01*
X142548571Y-43152380D01*
X142786666Y-43152380D01*
X142881904Y-43104761D01*
X142929523Y-43057142D01*
X92762857Y-40852380D02*
X93096190Y-40376190D01*
X93334285Y-40852380D02*
X93334285Y-39852380D01*
X92953333Y-39852380D01*
X92858095Y-39900000D01*
X92810476Y-39947619D01*
X92762857Y-40042857D01*
X92762857Y-40185714D01*
X92810476Y-40280952D01*
X92858095Y-40328571D01*
X92953333Y-40376190D01*
X93334285Y-40376190D01*
X91858095Y-39852380D02*
X92334285Y-39852380D01*
X92381904Y-40328571D01*
X92334285Y-40280952D01*
X92239047Y-40233333D01*
X92000952Y-40233333D01*
X91905714Y-40280952D01*
X91858095Y-40328571D01*
X91810476Y-40423809D01*
X91810476Y-40661904D01*
X91858095Y-40757142D01*
X91905714Y-40804761D01*
X92000952Y-40852380D01*
X92239047Y-40852380D01*
X92334285Y-40804761D01*
X92381904Y-40757142D01*
X90858095Y-40852380D02*
X91429523Y-40852380D01*
X91143809Y-40852380D02*
X91143809Y-39852380D01*
X91239047Y-39995238D01*
X91334285Y-40090476D01*
X91429523Y-40138095D01*
X137292380Y-122677142D02*
X136816190Y-122343809D01*
X137292380Y-122105714D02*
X136292380Y-122105714D01*
X136292380Y-122486666D01*
X136340000Y-122581904D01*
X136387619Y-122629523D01*
X136482857Y-122677142D01*
X136625714Y-122677142D01*
X136720952Y-122629523D01*
X136768571Y-122581904D01*
X136816190Y-122486666D01*
X136816190Y-122105714D01*
X136292380Y-123010476D02*
X136292380Y-123629523D01*
X136673333Y-123296190D01*
X136673333Y-123439047D01*
X136720952Y-123534285D01*
X136768571Y-123581904D01*
X136863809Y-123629523D01*
X137101904Y-123629523D01*
X137197142Y-123581904D01*
X137244761Y-123534285D01*
X137292380Y-123439047D01*
X137292380Y-123153333D01*
X137244761Y-123058095D01*
X137197142Y-123010476D01*
X136387619Y-124010476D02*
X136340000Y-124058095D01*
X136292380Y-124153333D01*
X136292380Y-124391428D01*
X136340000Y-124486666D01*
X136387619Y-124534285D01*
X136482857Y-124581904D01*
X136578095Y-124581904D01*
X136720952Y-124534285D01*
X137292380Y-123962857D01*
X137292380Y-124581904D01*
X137872380Y-134477142D02*
X137396190Y-134143809D01*
X137872380Y-133905714D02*
X136872380Y-133905714D01*
X136872380Y-134286666D01*
X136920000Y-134381904D01*
X136967619Y-134429523D01*
X137062857Y-134477142D01*
X137205714Y-134477142D01*
X137300952Y-134429523D01*
X137348571Y-134381904D01*
X137396190Y-134286666D01*
X137396190Y-133905714D01*
X136872380Y-134810476D02*
X136872380Y-135429523D01*
X137253333Y-135096190D01*
X137253333Y-135239047D01*
X137300952Y-135334285D01*
X137348571Y-135381904D01*
X137443809Y-135429523D01*
X137681904Y-135429523D01*
X137777142Y-135381904D01*
X137824761Y-135334285D01*
X137872380Y-135239047D01*
X137872380Y-134953333D01*
X137824761Y-134858095D01*
X137777142Y-134810476D01*
X137872380Y-136381904D02*
X137872380Y-135810476D01*
X137872380Y-136096190D02*
X136872380Y-136096190D01*
X137015238Y-136000952D01*
X137110476Y-135905714D01*
X137158095Y-135810476D01*
X101872380Y-121477142D02*
X101396190Y-121143809D01*
X101872380Y-120905714D02*
X100872380Y-120905714D01*
X100872380Y-121286666D01*
X100920000Y-121381904D01*
X100967619Y-121429523D01*
X101062857Y-121477142D01*
X101205714Y-121477142D01*
X101300952Y-121429523D01*
X101348571Y-121381904D01*
X101396190Y-121286666D01*
X101396190Y-120905714D01*
X100872380Y-121810476D02*
X100872380Y-122429523D01*
X101253333Y-122096190D01*
X101253333Y-122239047D01*
X101300952Y-122334285D01*
X101348571Y-122381904D01*
X101443809Y-122429523D01*
X101681904Y-122429523D01*
X101777142Y-122381904D01*
X101824761Y-122334285D01*
X101872380Y-122239047D01*
X101872380Y-121953333D01*
X101824761Y-121858095D01*
X101777142Y-121810476D01*
X100872380Y-123048571D02*
X100872380Y-123143809D01*
X100920000Y-123239047D01*
X100967619Y-123286666D01*
X101062857Y-123334285D01*
X101253333Y-123381904D01*
X101491428Y-123381904D01*
X101681904Y-123334285D01*
X101777142Y-123286666D01*
X101824761Y-123239047D01*
X101872380Y-123143809D01*
X101872380Y-123048571D01*
X101824761Y-122953333D01*
X101777142Y-122905714D01*
X101681904Y-122858095D01*
X101491428Y-122810476D01*
X101253333Y-122810476D01*
X101062857Y-122858095D01*
X100967619Y-122905714D01*
X100920000Y-122953333D01*
X100872380Y-123048571D01*
X101792380Y-131977142D02*
X101316190Y-131643809D01*
X101792380Y-131405714D02*
X100792380Y-131405714D01*
X100792380Y-131786666D01*
X100840000Y-131881904D01*
X100887619Y-131929523D01*
X100982857Y-131977142D01*
X101125714Y-131977142D01*
X101220952Y-131929523D01*
X101268571Y-131881904D01*
X101316190Y-131786666D01*
X101316190Y-131405714D01*
X100887619Y-132358095D02*
X100840000Y-132405714D01*
X100792380Y-132500952D01*
X100792380Y-132739047D01*
X100840000Y-132834285D01*
X100887619Y-132881904D01*
X100982857Y-132929523D01*
X101078095Y-132929523D01*
X101220952Y-132881904D01*
X101792380Y-132310476D01*
X101792380Y-132929523D01*
X101792380Y-133405714D02*
X101792380Y-133596190D01*
X101744761Y-133691428D01*
X101697142Y-133739047D01*
X101554285Y-133834285D01*
X101363809Y-133881904D01*
X100982857Y-133881904D01*
X100887619Y-133834285D01*
X100840000Y-133786666D01*
X100792380Y-133691428D01*
X100792380Y-133500952D01*
X100840000Y-133405714D01*
X100887619Y-133358095D01*
X100982857Y-133310476D01*
X101220952Y-133310476D01*
X101316190Y-133358095D01*
X101363809Y-133405714D01*
X101411428Y-133500952D01*
X101411428Y-133691428D01*
X101363809Y-133786666D01*
X101316190Y-133834285D01*
X101220952Y-133881904D01*
X102272380Y-105277142D02*
X101796190Y-104943809D01*
X102272380Y-104705714D02*
X101272380Y-104705714D01*
X101272380Y-105086666D01*
X101320000Y-105181904D01*
X101367619Y-105229523D01*
X101462857Y-105277142D01*
X101605714Y-105277142D01*
X101700952Y-105229523D01*
X101748571Y-105181904D01*
X101796190Y-105086666D01*
X101796190Y-104705714D01*
X101367619Y-105658095D02*
X101320000Y-105705714D01*
X101272380Y-105800952D01*
X101272380Y-106039047D01*
X101320000Y-106134285D01*
X101367619Y-106181904D01*
X101462857Y-106229523D01*
X101558095Y-106229523D01*
X101700952Y-106181904D01*
X102272380Y-105610476D01*
X102272380Y-106229523D01*
X101700952Y-106800952D02*
X101653333Y-106705714D01*
X101605714Y-106658095D01*
X101510476Y-106610476D01*
X101462857Y-106610476D01*
X101367619Y-106658095D01*
X101320000Y-106705714D01*
X101272380Y-106800952D01*
X101272380Y-106991428D01*
X101320000Y-107086666D01*
X101367619Y-107134285D01*
X101462857Y-107181904D01*
X101510476Y-107181904D01*
X101605714Y-107134285D01*
X101653333Y-107086666D01*
X101700952Y-106991428D01*
X101700952Y-106800952D01*
X101748571Y-106705714D01*
X101796190Y-106658095D01*
X101891428Y-106610476D01*
X102081904Y-106610476D01*
X102177142Y-106658095D01*
X102224761Y-106705714D01*
X102272380Y-106800952D01*
X102272380Y-106991428D01*
X102224761Y-107086666D01*
X102177142Y-107134285D01*
X102081904Y-107181904D01*
X101891428Y-107181904D01*
X101796190Y-107134285D01*
X101748571Y-107086666D01*
X101700952Y-106991428D01*
X101792380Y-115977142D02*
X101316190Y-115643809D01*
X101792380Y-115405714D02*
X100792380Y-115405714D01*
X100792380Y-115786666D01*
X100840000Y-115881904D01*
X100887619Y-115929523D01*
X100982857Y-115977142D01*
X101125714Y-115977142D01*
X101220952Y-115929523D01*
X101268571Y-115881904D01*
X101316190Y-115786666D01*
X101316190Y-115405714D01*
X100887619Y-116358095D02*
X100840000Y-116405714D01*
X100792380Y-116500952D01*
X100792380Y-116739047D01*
X100840000Y-116834285D01*
X100887619Y-116881904D01*
X100982857Y-116929523D01*
X101078095Y-116929523D01*
X101220952Y-116881904D01*
X101792380Y-116310476D01*
X101792380Y-116929523D01*
X100792380Y-117262857D02*
X100792380Y-117929523D01*
X101792380Y-117500952D01*
X102672380Y-88677142D02*
X102196190Y-88343809D01*
X102672380Y-88105714D02*
X101672380Y-88105714D01*
X101672380Y-88486666D01*
X101720000Y-88581904D01*
X101767619Y-88629523D01*
X101862857Y-88677142D01*
X102005714Y-88677142D01*
X102100952Y-88629523D01*
X102148571Y-88581904D01*
X102196190Y-88486666D01*
X102196190Y-88105714D01*
X101767619Y-89058095D02*
X101720000Y-89105714D01*
X101672380Y-89200952D01*
X101672380Y-89439047D01*
X101720000Y-89534285D01*
X101767619Y-89581904D01*
X101862857Y-89629523D01*
X101958095Y-89629523D01*
X102100952Y-89581904D01*
X102672380Y-89010476D01*
X102672380Y-89629523D01*
X101672380Y-90486666D02*
X101672380Y-90296190D01*
X101720000Y-90200952D01*
X101767619Y-90153333D01*
X101910476Y-90058095D01*
X102100952Y-90010476D01*
X102481904Y-90010476D01*
X102577142Y-90058095D01*
X102624761Y-90105714D01*
X102672380Y-90200952D01*
X102672380Y-90391428D01*
X102624761Y-90486666D01*
X102577142Y-90534285D01*
X102481904Y-90581904D01*
X102243809Y-90581904D01*
X102148571Y-90534285D01*
X102100952Y-90486666D01*
X102053333Y-90391428D01*
X102053333Y-90200952D01*
X102100952Y-90105714D01*
X102148571Y-90058095D01*
X102243809Y-90010476D01*
X101792380Y-99977142D02*
X101316190Y-99643809D01*
X101792380Y-99405714D02*
X100792380Y-99405714D01*
X100792380Y-99786666D01*
X100840000Y-99881904D01*
X100887619Y-99929523D01*
X100982857Y-99977142D01*
X101125714Y-99977142D01*
X101220952Y-99929523D01*
X101268571Y-99881904D01*
X101316190Y-99786666D01*
X101316190Y-99405714D01*
X100887619Y-100358095D02*
X100840000Y-100405714D01*
X100792380Y-100500952D01*
X100792380Y-100739047D01*
X100840000Y-100834285D01*
X100887619Y-100881904D01*
X100982857Y-100929523D01*
X101078095Y-100929523D01*
X101220952Y-100881904D01*
X101792380Y-100310476D01*
X101792380Y-100929523D01*
X100792380Y-101834285D02*
X100792380Y-101358095D01*
X101268571Y-101310476D01*
X101220952Y-101358095D01*
X101173333Y-101453333D01*
X101173333Y-101691428D01*
X101220952Y-101786666D01*
X101268571Y-101834285D01*
X101363809Y-101881904D01*
X101601904Y-101881904D01*
X101697142Y-101834285D01*
X101744761Y-101786666D01*
X101792380Y-101691428D01*
X101792380Y-101453333D01*
X101744761Y-101358095D01*
X101697142Y-101310476D01*
X101792380Y-73977142D02*
X101316190Y-73643809D01*
X101792380Y-73405714D02*
X100792380Y-73405714D01*
X100792380Y-73786666D01*
X100840000Y-73881904D01*
X100887619Y-73929523D01*
X100982857Y-73977142D01*
X101125714Y-73977142D01*
X101220952Y-73929523D01*
X101268571Y-73881904D01*
X101316190Y-73786666D01*
X101316190Y-73405714D01*
X100887619Y-74358095D02*
X100840000Y-74405714D01*
X100792380Y-74500952D01*
X100792380Y-74739047D01*
X100840000Y-74834285D01*
X100887619Y-74881904D01*
X100982857Y-74929523D01*
X101078095Y-74929523D01*
X101220952Y-74881904D01*
X101792380Y-74310476D01*
X101792380Y-74929523D01*
X101125714Y-75786666D02*
X101792380Y-75786666D01*
X100744761Y-75548571D02*
X101459047Y-75310476D01*
X101459047Y-75929523D01*
X101792380Y-83977142D02*
X101316190Y-83643809D01*
X101792380Y-83405714D02*
X100792380Y-83405714D01*
X100792380Y-83786666D01*
X100840000Y-83881904D01*
X100887619Y-83929523D01*
X100982857Y-83977142D01*
X101125714Y-83977142D01*
X101220952Y-83929523D01*
X101268571Y-83881904D01*
X101316190Y-83786666D01*
X101316190Y-83405714D01*
X100887619Y-84358095D02*
X100840000Y-84405714D01*
X100792380Y-84500952D01*
X100792380Y-84739047D01*
X100840000Y-84834285D01*
X100887619Y-84881904D01*
X100982857Y-84929523D01*
X101078095Y-84929523D01*
X101220952Y-84881904D01*
X101792380Y-84310476D01*
X101792380Y-84929523D01*
X100792380Y-85262857D02*
X100792380Y-85881904D01*
X101173333Y-85548571D01*
X101173333Y-85691428D01*
X101220952Y-85786666D01*
X101268571Y-85834285D01*
X101363809Y-85881904D01*
X101601904Y-85881904D01*
X101697142Y-85834285D01*
X101744761Y-85786666D01*
X101792380Y-85691428D01*
X101792380Y-85405714D01*
X101744761Y-85310476D01*
X101697142Y-85262857D01*
X101792380Y-57577142D02*
X101316190Y-57243809D01*
X101792380Y-57005714D02*
X100792380Y-57005714D01*
X100792380Y-57386666D01*
X100840000Y-57481904D01*
X100887619Y-57529523D01*
X100982857Y-57577142D01*
X101125714Y-57577142D01*
X101220952Y-57529523D01*
X101268571Y-57481904D01*
X101316190Y-57386666D01*
X101316190Y-57005714D01*
X100887619Y-57958095D02*
X100840000Y-58005714D01*
X100792380Y-58100952D01*
X100792380Y-58339047D01*
X100840000Y-58434285D01*
X100887619Y-58481904D01*
X100982857Y-58529523D01*
X101078095Y-58529523D01*
X101220952Y-58481904D01*
X101792380Y-57910476D01*
X101792380Y-58529523D01*
X100887619Y-58910476D02*
X100840000Y-58958095D01*
X100792380Y-59053333D01*
X100792380Y-59291428D01*
X100840000Y-59386666D01*
X100887619Y-59434285D01*
X100982857Y-59481904D01*
X101078095Y-59481904D01*
X101220952Y-59434285D01*
X101792380Y-58862857D01*
X101792380Y-59481904D01*
X101792380Y-67977142D02*
X101316190Y-67643809D01*
X101792380Y-67405714D02*
X100792380Y-67405714D01*
X100792380Y-67786666D01*
X100840000Y-67881904D01*
X100887619Y-67929523D01*
X100982857Y-67977142D01*
X101125714Y-67977142D01*
X101220952Y-67929523D01*
X101268571Y-67881904D01*
X101316190Y-67786666D01*
X101316190Y-67405714D01*
X100887619Y-68358095D02*
X100840000Y-68405714D01*
X100792380Y-68500952D01*
X100792380Y-68739047D01*
X100840000Y-68834285D01*
X100887619Y-68881904D01*
X100982857Y-68929523D01*
X101078095Y-68929523D01*
X101220952Y-68881904D01*
X101792380Y-68310476D01*
X101792380Y-68929523D01*
X101792380Y-69881904D02*
X101792380Y-69310476D01*
X101792380Y-69596190D02*
X100792380Y-69596190D01*
X100935238Y-69500952D01*
X101030476Y-69405714D01*
X101078095Y-69310476D01*
X102072380Y-41477142D02*
X101596190Y-41143809D01*
X102072380Y-40905714D02*
X101072380Y-40905714D01*
X101072380Y-41286666D01*
X101120000Y-41381904D01*
X101167619Y-41429523D01*
X101262857Y-41477142D01*
X101405714Y-41477142D01*
X101500952Y-41429523D01*
X101548571Y-41381904D01*
X101596190Y-41286666D01*
X101596190Y-40905714D01*
X101167619Y-41858095D02*
X101120000Y-41905714D01*
X101072380Y-42000952D01*
X101072380Y-42239047D01*
X101120000Y-42334285D01*
X101167619Y-42381904D01*
X101262857Y-42429523D01*
X101358095Y-42429523D01*
X101500952Y-42381904D01*
X102072380Y-41810476D01*
X102072380Y-42429523D01*
X101072380Y-43048571D02*
X101072380Y-43143809D01*
X101120000Y-43239047D01*
X101167619Y-43286666D01*
X101262857Y-43334285D01*
X101453333Y-43381904D01*
X101691428Y-43381904D01*
X101881904Y-43334285D01*
X101977142Y-43286666D01*
X102024761Y-43239047D01*
X102072380Y-43143809D01*
X102072380Y-43048571D01*
X102024761Y-42953333D01*
X101977142Y-42905714D01*
X101881904Y-42858095D01*
X101691428Y-42810476D01*
X101453333Y-42810476D01*
X101262857Y-42858095D01*
X101167619Y-42905714D01*
X101120000Y-42953333D01*
X101072380Y-43048571D01*
X101792380Y-52177142D02*
X101316190Y-51843809D01*
X101792380Y-51605714D02*
X100792380Y-51605714D01*
X100792380Y-51986666D01*
X100840000Y-52081904D01*
X100887619Y-52129523D01*
X100982857Y-52177142D01*
X101125714Y-52177142D01*
X101220952Y-52129523D01*
X101268571Y-52081904D01*
X101316190Y-51986666D01*
X101316190Y-51605714D01*
X101792380Y-53129523D02*
X101792380Y-52558095D01*
X101792380Y-52843809D02*
X100792380Y-52843809D01*
X100935238Y-52748571D01*
X101030476Y-52653333D01*
X101078095Y-52558095D01*
X101792380Y-53605714D02*
X101792380Y-53796190D01*
X101744761Y-53891428D01*
X101697142Y-53939047D01*
X101554285Y-54034285D01*
X101363809Y-54081904D01*
X100982857Y-54081904D01*
X100887619Y-54034285D01*
X100840000Y-53986666D01*
X100792380Y-53891428D01*
X100792380Y-53700952D01*
X100840000Y-53605714D01*
X100887619Y-53558095D01*
X100982857Y-53510476D01*
X101220952Y-53510476D01*
X101316190Y-53558095D01*
X101363809Y-53605714D01*
X101411428Y-53700952D01*
X101411428Y-53891428D01*
X101363809Y-53986666D01*
X101316190Y-54034285D01*
X101220952Y-54081904D01*
X138472380Y-40477142D02*
X137996190Y-40143809D01*
X138472380Y-39905714D02*
X137472380Y-39905714D01*
X137472380Y-40286666D01*
X137520000Y-40381904D01*
X137567619Y-40429523D01*
X137662857Y-40477142D01*
X137805714Y-40477142D01*
X137900952Y-40429523D01*
X137948571Y-40381904D01*
X137996190Y-40286666D01*
X137996190Y-39905714D01*
X138472380Y-41429523D02*
X138472380Y-40858095D01*
X138472380Y-41143809D02*
X137472380Y-41143809D01*
X137615238Y-41048571D01*
X137710476Y-40953333D01*
X137758095Y-40858095D01*
X137900952Y-42000952D02*
X137853333Y-41905714D01*
X137805714Y-41858095D01*
X137710476Y-41810476D01*
X137662857Y-41810476D01*
X137567619Y-41858095D01*
X137520000Y-41905714D01*
X137472380Y-42000952D01*
X137472380Y-42191428D01*
X137520000Y-42286666D01*
X137567619Y-42334285D01*
X137662857Y-42381904D01*
X137710476Y-42381904D01*
X137805714Y-42334285D01*
X137853333Y-42286666D01*
X137900952Y-42191428D01*
X137900952Y-42000952D01*
X137948571Y-41905714D01*
X137996190Y-41858095D01*
X138091428Y-41810476D01*
X138281904Y-41810476D01*
X138377142Y-41858095D01*
X138424761Y-41905714D01*
X138472380Y-42000952D01*
X138472380Y-42191428D01*
X138424761Y-42286666D01*
X138377142Y-42334285D01*
X138281904Y-42381904D01*
X138091428Y-42381904D01*
X137996190Y-42334285D01*
X137948571Y-42286666D01*
X137900952Y-42191428D01*
X137492380Y-51477142D02*
X137016190Y-51143809D01*
X137492380Y-50905714D02*
X136492380Y-50905714D01*
X136492380Y-51286666D01*
X136540000Y-51381904D01*
X136587619Y-51429523D01*
X136682857Y-51477142D01*
X136825714Y-51477142D01*
X136920952Y-51429523D01*
X136968571Y-51381904D01*
X137016190Y-51286666D01*
X137016190Y-50905714D01*
X137492380Y-52429523D02*
X137492380Y-51858095D01*
X137492380Y-52143809D02*
X136492380Y-52143809D01*
X136635238Y-52048571D01*
X136730476Y-51953333D01*
X136778095Y-51858095D01*
X136492380Y-52762857D02*
X136492380Y-53429523D01*
X137492380Y-53000952D01*
X125862857Y-41772380D02*
X126196190Y-41296190D01*
X126434285Y-41772380D02*
X126434285Y-40772380D01*
X126053333Y-40772380D01*
X125958095Y-40820000D01*
X125910476Y-40867619D01*
X125862857Y-40962857D01*
X125862857Y-41105714D01*
X125910476Y-41200952D01*
X125958095Y-41248571D01*
X126053333Y-41296190D01*
X126434285Y-41296190D01*
X125529523Y-40772380D02*
X124910476Y-40772380D01*
X125243809Y-41153333D01*
X125100952Y-41153333D01*
X125005714Y-41200952D01*
X124958095Y-41248571D01*
X124910476Y-41343809D01*
X124910476Y-41581904D01*
X124958095Y-41677142D01*
X125005714Y-41724761D01*
X125100952Y-41772380D01*
X125386666Y-41772380D01*
X125481904Y-41724761D01*
X125529523Y-41677142D01*
X124053333Y-41105714D02*
X124053333Y-41772380D01*
X124291428Y-40724761D02*
X124529523Y-41439047D01*
X123910476Y-41439047D01*
X91262857Y-45052380D02*
X91596190Y-44576190D01*
X91834285Y-45052380D02*
X91834285Y-44052380D01*
X91453333Y-44052380D01*
X91358095Y-44100000D01*
X91310476Y-44147619D01*
X91262857Y-44242857D01*
X91262857Y-44385714D01*
X91310476Y-44480952D01*
X91358095Y-44528571D01*
X91453333Y-44576190D01*
X91834285Y-44576190D01*
X90929523Y-44052380D02*
X90310476Y-44052380D01*
X90643809Y-44433333D01*
X90500952Y-44433333D01*
X90405714Y-44480952D01*
X90358095Y-44528571D01*
X90310476Y-44623809D01*
X90310476Y-44861904D01*
X90358095Y-44957142D01*
X90405714Y-45004761D01*
X90500952Y-45052380D01*
X90786666Y-45052380D01*
X90881904Y-45004761D01*
X90929523Y-44957142D01*
X89453333Y-44052380D02*
X89643809Y-44052380D01*
X89739047Y-44100000D01*
X89786666Y-44147619D01*
X89881904Y-44290476D01*
X89929523Y-44480952D01*
X89929523Y-44861904D01*
X89881904Y-44957142D01*
X89834285Y-45004761D01*
X89739047Y-45052380D01*
X89548571Y-45052380D01*
X89453333Y-45004761D01*
X89405714Y-44957142D01*
X89358095Y-44861904D01*
X89358095Y-44623809D01*
X89405714Y-44528571D01*
X89453333Y-44480952D01*
X89548571Y-44433333D01*
X89739047Y-44433333D01*
X89834285Y-44480952D01*
X89881904Y-44528571D01*
X89929523Y-44623809D01*
X90062857Y-61052380D02*
X90396190Y-60576190D01*
X90634285Y-61052380D02*
X90634285Y-60052380D01*
X90253333Y-60052380D01*
X90158095Y-60100000D01*
X90110476Y-60147619D01*
X90062857Y-60242857D01*
X90062857Y-60385714D01*
X90110476Y-60480952D01*
X90158095Y-60528571D01*
X90253333Y-60576190D01*
X90634285Y-60576190D01*
X89729523Y-60052380D02*
X89110476Y-60052380D01*
X89443809Y-60433333D01*
X89300952Y-60433333D01*
X89205714Y-60480952D01*
X89158095Y-60528571D01*
X89110476Y-60623809D01*
X89110476Y-60861904D01*
X89158095Y-60957142D01*
X89205714Y-61004761D01*
X89300952Y-61052380D01*
X89586666Y-61052380D01*
X89681904Y-61004761D01*
X89729523Y-60957142D01*
X88539047Y-60480952D02*
X88634285Y-60433333D01*
X88681904Y-60385714D01*
X88729523Y-60290476D01*
X88729523Y-60242857D01*
X88681904Y-60147619D01*
X88634285Y-60100000D01*
X88539047Y-60052380D01*
X88348571Y-60052380D01*
X88253333Y-60100000D01*
X88205714Y-60147619D01*
X88158095Y-60242857D01*
X88158095Y-60290476D01*
X88205714Y-60385714D01*
X88253333Y-60433333D01*
X88348571Y-60480952D01*
X88539047Y-60480952D01*
X88634285Y-60528571D01*
X88681904Y-60576190D01*
X88729523Y-60671428D01*
X88729523Y-60861904D01*
X88681904Y-60957142D01*
X88634285Y-61004761D01*
X88539047Y-61052380D01*
X88348571Y-61052380D01*
X88253333Y-61004761D01*
X88205714Y-60957142D01*
X88158095Y-60861904D01*
X88158095Y-60671428D01*
X88205714Y-60576190D01*
X88253333Y-60528571D01*
X88348571Y-60480952D01*
X90062857Y-77052380D02*
X90396190Y-76576190D01*
X90634285Y-77052380D02*
X90634285Y-76052380D01*
X90253333Y-76052380D01*
X90158095Y-76100000D01*
X90110476Y-76147619D01*
X90062857Y-76242857D01*
X90062857Y-76385714D01*
X90110476Y-76480952D01*
X90158095Y-76528571D01*
X90253333Y-76576190D01*
X90634285Y-76576190D01*
X89205714Y-76385714D02*
X89205714Y-77052380D01*
X89443809Y-76004761D02*
X89681904Y-76719047D01*
X89062857Y-76719047D01*
X88491428Y-76052380D02*
X88396190Y-76052380D01*
X88300952Y-76100000D01*
X88253333Y-76147619D01*
X88205714Y-76242857D01*
X88158095Y-76433333D01*
X88158095Y-76671428D01*
X88205714Y-76861904D01*
X88253333Y-76957142D01*
X88300952Y-77004761D01*
X88396190Y-77052380D01*
X88491428Y-77052380D01*
X88586666Y-77004761D01*
X88634285Y-76957142D01*
X88681904Y-76861904D01*
X88729523Y-76671428D01*
X88729523Y-76433333D01*
X88681904Y-76242857D01*
X88634285Y-76147619D01*
X88586666Y-76100000D01*
X88491428Y-76052380D01*
X91062857Y-92772380D02*
X91396190Y-92296190D01*
X91634285Y-92772380D02*
X91634285Y-91772380D01*
X91253333Y-91772380D01*
X91158095Y-91820000D01*
X91110476Y-91867619D01*
X91062857Y-91962857D01*
X91062857Y-92105714D01*
X91110476Y-92200952D01*
X91158095Y-92248571D01*
X91253333Y-92296190D01*
X91634285Y-92296190D01*
X90205714Y-92105714D02*
X90205714Y-92772380D01*
X90443809Y-91724761D02*
X90681904Y-92439047D01*
X90062857Y-92439047D01*
X89729523Y-91867619D02*
X89681904Y-91820000D01*
X89586666Y-91772380D01*
X89348571Y-91772380D01*
X89253333Y-91820000D01*
X89205714Y-91867619D01*
X89158095Y-91962857D01*
X89158095Y-92058095D01*
X89205714Y-92200952D01*
X89777142Y-92772380D01*
X89158095Y-92772380D01*
X90062857Y-109052380D02*
X90396190Y-108576190D01*
X90634285Y-109052380D02*
X90634285Y-108052380D01*
X90253333Y-108052380D01*
X90158095Y-108100000D01*
X90110476Y-108147619D01*
X90062857Y-108242857D01*
X90062857Y-108385714D01*
X90110476Y-108480952D01*
X90158095Y-108528571D01*
X90253333Y-108576190D01*
X90634285Y-108576190D01*
X89205714Y-108385714D02*
X89205714Y-109052380D01*
X89443809Y-108004761D02*
X89681904Y-108719047D01*
X89062857Y-108719047D01*
X88253333Y-108385714D02*
X88253333Y-109052380D01*
X88491428Y-108004761D02*
X88729523Y-108719047D01*
X88110476Y-108719047D01*
X90062857Y-125052380D02*
X90396190Y-124576190D01*
X90634285Y-125052380D02*
X90634285Y-124052380D01*
X90253333Y-124052380D01*
X90158095Y-124100000D01*
X90110476Y-124147619D01*
X90062857Y-124242857D01*
X90062857Y-124385714D01*
X90110476Y-124480952D01*
X90158095Y-124528571D01*
X90253333Y-124576190D01*
X90634285Y-124576190D01*
X89205714Y-124385714D02*
X89205714Y-125052380D01*
X89443809Y-124004761D02*
X89681904Y-124719047D01*
X89062857Y-124719047D01*
X88253333Y-124052380D02*
X88443809Y-124052380D01*
X88539047Y-124100000D01*
X88586666Y-124147619D01*
X88681904Y-124290476D01*
X88729523Y-124480952D01*
X88729523Y-124861904D01*
X88681904Y-124957142D01*
X88634285Y-125004761D01*
X88539047Y-125052380D01*
X88348571Y-125052380D01*
X88253333Y-125004761D01*
X88205714Y-124957142D01*
X88158095Y-124861904D01*
X88158095Y-124623809D01*
X88205714Y-124528571D01*
X88253333Y-124480952D01*
X88348571Y-124433333D01*
X88539047Y-124433333D01*
X88634285Y-124480952D01*
X88681904Y-124528571D01*
X88729523Y-124623809D01*
X125662857Y-125752380D02*
X125996190Y-125276190D01*
X126234285Y-125752380D02*
X126234285Y-124752380D01*
X125853333Y-124752380D01*
X125758095Y-124800000D01*
X125710476Y-124847619D01*
X125662857Y-124942857D01*
X125662857Y-125085714D01*
X125710476Y-125180952D01*
X125758095Y-125228571D01*
X125853333Y-125276190D01*
X126234285Y-125276190D01*
X124805714Y-125085714D02*
X124805714Y-125752380D01*
X125043809Y-124704761D02*
X125281904Y-125419047D01*
X124662857Y-125419047D01*
X124139047Y-125180952D02*
X124234285Y-125133333D01*
X124281904Y-125085714D01*
X124329523Y-124990476D01*
X124329523Y-124942857D01*
X124281904Y-124847619D01*
X124234285Y-124800000D01*
X124139047Y-124752380D01*
X123948571Y-124752380D01*
X123853333Y-124800000D01*
X123805714Y-124847619D01*
X123758095Y-124942857D01*
X123758095Y-124990476D01*
X123805714Y-125085714D01*
X123853333Y-125133333D01*
X123948571Y-125180952D01*
X124139047Y-125180952D01*
X124234285Y-125228571D01*
X124281904Y-125276190D01*
X124329523Y-125371428D01*
X124329523Y-125561904D01*
X124281904Y-125657142D01*
X124234285Y-125704761D01*
X124139047Y-125752380D01*
X123948571Y-125752380D01*
X123853333Y-125704761D01*
X123805714Y-125657142D01*
X123758095Y-125561904D01*
X123758095Y-125371428D01*
X123805714Y-125276190D01*
X123853333Y-125228571D01*
X123948571Y-125180952D01*
X121850357Y-100857142D02*
X121897976Y-100904761D01*
X122040833Y-100952380D01*
X122136071Y-100952380D01*
X122278928Y-100904761D01*
X122374166Y-100809523D01*
X122421785Y-100714285D01*
X122469404Y-100523809D01*
X122469404Y-100380952D01*
X122421785Y-100190476D01*
X122374166Y-100095238D01*
X122278928Y-100000000D01*
X122136071Y-99952380D01*
X122040833Y-99952380D01*
X121897976Y-100000000D01*
X121850357Y-100047619D01*
X121469404Y-100047619D02*
X121421785Y-100000000D01*
X121326547Y-99952380D01*
X121088452Y-99952380D01*
X120993214Y-100000000D01*
X120945595Y-100047619D01*
X120897976Y-100142857D01*
X120897976Y-100238095D01*
X120945595Y-100380952D01*
X121517023Y-100952380D01*
X120897976Y-100952380D01*
X120564642Y-99952380D02*
X119945595Y-99952380D01*
X120278928Y-100333333D01*
X120136071Y-100333333D01*
X120040833Y-100380952D01*
X119993214Y-100428571D01*
X119945595Y-100523809D01*
X119945595Y-100761904D01*
X119993214Y-100857142D01*
X120040833Y-100904761D01*
X120136071Y-100952380D01*
X120421785Y-100952380D01*
X120517023Y-100904761D01*
X120564642Y-100857142D01*
X139575357Y-80197142D02*
X139622976Y-80244761D01*
X139765833Y-80292380D01*
X139861071Y-80292380D01*
X140003928Y-80244761D01*
X140099166Y-80149523D01*
X140146785Y-80054285D01*
X140194404Y-79863809D01*
X140194404Y-79720952D01*
X140146785Y-79530476D01*
X140099166Y-79435238D01*
X140003928Y-79340000D01*
X139861071Y-79292380D01*
X139765833Y-79292380D01*
X139622976Y-79340000D01*
X139575357Y-79387619D01*
X139242023Y-79292380D02*
X138622976Y-79292380D01*
X138956309Y-79673333D01*
X138813452Y-79673333D01*
X138718214Y-79720952D01*
X138670595Y-79768571D01*
X138622976Y-79863809D01*
X138622976Y-80101904D01*
X138670595Y-80197142D01*
X138718214Y-80244761D01*
X138813452Y-80292380D01*
X139099166Y-80292380D01*
X139194404Y-80244761D01*
X139242023Y-80197142D01*
X137765833Y-79292380D02*
X137956309Y-79292380D01*
X138051547Y-79340000D01*
X138099166Y-79387619D01*
X138194404Y-79530476D01*
X138242023Y-79720952D01*
X138242023Y-80101904D01*
X138194404Y-80197142D01*
X138146785Y-80244761D01*
X138051547Y-80292380D01*
X137861071Y-80292380D01*
X137765833Y-80244761D01*
X137718214Y-80197142D01*
X137670595Y-80101904D01*
X137670595Y-79863809D01*
X137718214Y-79768571D01*
X137765833Y-79720952D01*
X137861071Y-79673333D01*
X138051547Y-79673333D01*
X138146785Y-79720952D01*
X138194404Y-79768571D01*
X138242023Y-79863809D01*
X136197142Y-77364642D02*
X136244761Y-77317023D01*
X136292380Y-77174166D01*
X136292380Y-77078928D01*
X136244761Y-76936071D01*
X136149523Y-76840833D01*
X136054285Y-76793214D01*
X135863809Y-76745595D01*
X135720952Y-76745595D01*
X135530476Y-76793214D01*
X135435238Y-76840833D01*
X135340000Y-76936071D01*
X135292380Y-77078928D01*
X135292380Y-77174166D01*
X135340000Y-77317023D01*
X135387619Y-77364642D01*
X135292380Y-77697976D02*
X135292380Y-78317023D01*
X135673333Y-77983690D01*
X135673333Y-78126547D01*
X135720952Y-78221785D01*
X135768571Y-78269404D01*
X135863809Y-78317023D01*
X136101904Y-78317023D01*
X136197142Y-78269404D01*
X136244761Y-78221785D01*
X136292380Y-78126547D01*
X136292380Y-77840833D01*
X136244761Y-77745595D01*
X136197142Y-77697976D01*
X136292380Y-78793214D02*
X136292380Y-78983690D01*
X136244761Y-79078928D01*
X136197142Y-79126547D01*
X136054285Y-79221785D01*
X135863809Y-79269404D01*
X135482857Y-79269404D01*
X135387619Y-79221785D01*
X135340000Y-79174166D01*
X135292380Y-79078928D01*
X135292380Y-78888452D01*
X135340000Y-78793214D01*
X135387619Y-78745595D01*
X135482857Y-78697976D01*
X135720952Y-78697976D01*
X135816190Y-78745595D01*
X135863809Y-78793214D01*
X135911428Y-78888452D01*
X135911428Y-79078928D01*
X135863809Y-79174166D01*
X135816190Y-79221785D01*
X135720952Y-79269404D01*
X145962857Y-101672380D02*
X146296190Y-101196190D01*
X146534285Y-101672380D02*
X146534285Y-100672380D01*
X146153333Y-100672380D01*
X146058095Y-100720000D01*
X146010476Y-100767619D01*
X145962857Y-100862857D01*
X145962857Y-101005714D01*
X146010476Y-101100952D01*
X146058095Y-101148571D01*
X146153333Y-101196190D01*
X146534285Y-101196190D01*
X145391428Y-101100952D02*
X145486666Y-101053333D01*
X145534285Y-101005714D01*
X145581904Y-100910476D01*
X145581904Y-100862857D01*
X145534285Y-100767619D01*
X145486666Y-100720000D01*
X145391428Y-100672380D01*
X145200952Y-100672380D01*
X145105714Y-100720000D01*
X145058095Y-100767619D01*
X145010476Y-100862857D01*
X145010476Y-100910476D01*
X145058095Y-101005714D01*
X145105714Y-101053333D01*
X145200952Y-101100952D01*
X145391428Y-101100952D01*
X145486666Y-101148571D01*
X145534285Y-101196190D01*
X145581904Y-101291428D01*
X145581904Y-101481904D01*
X145534285Y-101577142D01*
X145486666Y-101624761D01*
X145391428Y-101672380D01*
X145200952Y-101672380D01*
X145105714Y-101624761D01*
X145058095Y-101577142D01*
X145010476Y-101481904D01*
X145010476Y-101291428D01*
X145058095Y-101196190D01*
X145105714Y-101148571D01*
X145200952Y-101100952D01*
X144439047Y-101100952D02*
X144534285Y-101053333D01*
X144581904Y-101005714D01*
X144629523Y-100910476D01*
X144629523Y-100862857D01*
X144581904Y-100767619D01*
X144534285Y-100720000D01*
X144439047Y-100672380D01*
X144248571Y-100672380D01*
X144153333Y-100720000D01*
X144105714Y-100767619D01*
X144058095Y-100862857D01*
X144058095Y-100910476D01*
X144105714Y-101005714D01*
X144153333Y-101053333D01*
X144248571Y-101100952D01*
X144439047Y-101100952D01*
X144534285Y-101148571D01*
X144581904Y-101196190D01*
X144629523Y-101291428D01*
X144629523Y-101481904D01*
X144581904Y-101577142D01*
X144534285Y-101624761D01*
X144439047Y-101672380D01*
X144248571Y-101672380D01*
X144153333Y-101624761D01*
X144105714Y-101577142D01*
X144058095Y-101481904D01*
X144058095Y-101291428D01*
X144105714Y-101196190D01*
X144153333Y-101148571D01*
X144248571Y-101100952D01*
X145962857Y-99172380D02*
X146296190Y-98696190D01*
X146534285Y-99172380D02*
X146534285Y-98172380D01*
X146153333Y-98172380D01*
X146058095Y-98220000D01*
X146010476Y-98267619D01*
X145962857Y-98362857D01*
X145962857Y-98505714D01*
X146010476Y-98600952D01*
X146058095Y-98648571D01*
X146153333Y-98696190D01*
X146534285Y-98696190D01*
X145391428Y-98600952D02*
X145486666Y-98553333D01*
X145534285Y-98505714D01*
X145581904Y-98410476D01*
X145581904Y-98362857D01*
X145534285Y-98267619D01*
X145486666Y-98220000D01*
X145391428Y-98172380D01*
X145200952Y-98172380D01*
X145105714Y-98220000D01*
X145058095Y-98267619D01*
X145010476Y-98362857D01*
X145010476Y-98410476D01*
X145058095Y-98505714D01*
X145105714Y-98553333D01*
X145200952Y-98600952D01*
X145391428Y-98600952D01*
X145486666Y-98648571D01*
X145534285Y-98696190D01*
X145581904Y-98791428D01*
X145581904Y-98981904D01*
X145534285Y-99077142D01*
X145486666Y-99124761D01*
X145391428Y-99172380D01*
X145200952Y-99172380D01*
X145105714Y-99124761D01*
X145058095Y-99077142D01*
X145010476Y-98981904D01*
X145010476Y-98791428D01*
X145058095Y-98696190D01*
X145105714Y-98648571D01*
X145200952Y-98600952D01*
X144534285Y-99172380D02*
X144343809Y-99172380D01*
X144248571Y-99124761D01*
X144200952Y-99077142D01*
X144105714Y-98934285D01*
X144058095Y-98743809D01*
X144058095Y-98362857D01*
X144105714Y-98267619D01*
X144153333Y-98220000D01*
X144248571Y-98172380D01*
X144439047Y-98172380D01*
X144534285Y-98220000D01*
X144581904Y-98267619D01*
X144629523Y-98362857D01*
X144629523Y-98600952D01*
X144581904Y-98696190D01*
X144534285Y-98743809D01*
X144439047Y-98791428D01*
X144248571Y-98791428D01*
X144153333Y-98743809D01*
X144105714Y-98696190D01*
X144058095Y-98600952D01*
X145862857Y-96772380D02*
X146196190Y-96296190D01*
X146434285Y-96772380D02*
X146434285Y-95772380D01*
X146053333Y-95772380D01*
X145958095Y-95820000D01*
X145910476Y-95867619D01*
X145862857Y-95962857D01*
X145862857Y-96105714D01*
X145910476Y-96200952D01*
X145958095Y-96248571D01*
X146053333Y-96296190D01*
X146434285Y-96296190D01*
X145386666Y-96772380D02*
X145196190Y-96772380D01*
X145100952Y-96724761D01*
X145053333Y-96677142D01*
X144958095Y-96534285D01*
X144910476Y-96343809D01*
X144910476Y-95962857D01*
X144958095Y-95867619D01*
X145005714Y-95820000D01*
X145100952Y-95772380D01*
X145291428Y-95772380D01*
X145386666Y-95820000D01*
X145434285Y-95867619D01*
X145481904Y-95962857D01*
X145481904Y-96200952D01*
X145434285Y-96296190D01*
X145386666Y-96343809D01*
X145291428Y-96391428D01*
X145100952Y-96391428D01*
X145005714Y-96343809D01*
X144958095Y-96296190D01*
X144910476Y-96200952D01*
X144291428Y-95772380D02*
X144196190Y-95772380D01*
X144100952Y-95820000D01*
X144053333Y-95867619D01*
X144005714Y-95962857D01*
X143958095Y-96153333D01*
X143958095Y-96391428D01*
X144005714Y-96581904D01*
X144053333Y-96677142D01*
X144100952Y-96724761D01*
X144196190Y-96772380D01*
X144291428Y-96772380D01*
X144386666Y-96724761D01*
X144434285Y-96677142D01*
X144481904Y-96581904D01*
X144529523Y-96391428D01*
X144529523Y-96153333D01*
X144481904Y-95962857D01*
X144434285Y-95867619D01*
X144386666Y-95820000D01*
X144291428Y-95772380D01*
X123499047Y-57972380D02*
X123832380Y-57496190D01*
X124070476Y-57972380D02*
X124070476Y-56972380D01*
X123689523Y-56972380D01*
X123594285Y-57020000D01*
X123546666Y-57067619D01*
X123499047Y-57162857D01*
X123499047Y-57305714D01*
X123546666Y-57400952D01*
X123594285Y-57448571D01*
X123689523Y-57496190D01*
X124070476Y-57496190D01*
X122546666Y-57972380D02*
X123118095Y-57972380D01*
X122832380Y-57972380D02*
X122832380Y-56972380D01*
X122927619Y-57115238D01*
X123022857Y-57210476D01*
X123118095Y-57258095D01*
X121594285Y-57972380D02*
X122165714Y-57972380D01*
X121880000Y-57972380D02*
X121880000Y-56972380D01*
X121975238Y-57115238D01*
X122070476Y-57210476D01*
X122165714Y-57258095D01*
X121260952Y-56972380D02*
X120594285Y-56972380D01*
X121022857Y-57972380D01*
X149834285Y-123972380D02*
X149834285Y-122972380D01*
X149596190Y-122972380D01*
X149453333Y-123020000D01*
X149358095Y-123115238D01*
X149310476Y-123210476D01*
X149262857Y-123400952D01*
X149262857Y-123543809D01*
X149310476Y-123734285D01*
X149358095Y-123829523D01*
X149453333Y-123924761D01*
X149596190Y-123972380D01*
X149834285Y-123972380D01*
X148929523Y-122972380D02*
X148310476Y-122972380D01*
X148643809Y-123353333D01*
X148500952Y-123353333D01*
X148405714Y-123400952D01*
X148358095Y-123448571D01*
X148310476Y-123543809D01*
X148310476Y-123781904D01*
X148358095Y-123877142D01*
X148405714Y-123924761D01*
X148500952Y-123972380D01*
X148786666Y-123972380D01*
X148881904Y-123924761D01*
X148929523Y-123877142D01*
X147739047Y-123400952D02*
X147834285Y-123353333D01*
X147881904Y-123305714D01*
X147929523Y-123210476D01*
X147929523Y-123162857D01*
X147881904Y-123067619D01*
X147834285Y-123020000D01*
X147739047Y-122972380D01*
X147548571Y-122972380D01*
X147453333Y-123020000D01*
X147405714Y-123067619D01*
X147358095Y-123162857D01*
X147358095Y-123210476D01*
X147405714Y-123305714D01*
X147453333Y-123353333D01*
X147548571Y-123400952D01*
X147739047Y-123400952D01*
X147834285Y-123448571D01*
X147881904Y-123496190D01*
X147929523Y-123591428D01*
X147929523Y-123781904D01*
X147881904Y-123877142D01*
X147834285Y-123924761D01*
X147739047Y-123972380D01*
X147548571Y-123972380D01*
X147453333Y-123924761D01*
X147405714Y-123877142D01*
X147358095Y-123781904D01*
X147358095Y-123591428D01*
X147405714Y-123496190D01*
X147453333Y-123448571D01*
X147548571Y-123400952D01*
X138665238Y-122217619D02*
X138760476Y-122170000D01*
X138855714Y-122074761D01*
X138998571Y-121931904D01*
X139093809Y-121884285D01*
X139189047Y-121884285D01*
X139141428Y-122122380D02*
X139236666Y-122074761D01*
X139331904Y-121979523D01*
X139379523Y-121789047D01*
X139379523Y-121455714D01*
X139331904Y-121265238D01*
X139236666Y-121170000D01*
X139141428Y-121122380D01*
X138950952Y-121122380D01*
X138855714Y-121170000D01*
X138760476Y-121265238D01*
X138712857Y-121455714D01*
X138712857Y-121789047D01*
X138760476Y-121979523D01*
X138855714Y-122074761D01*
X138950952Y-122122380D01*
X139141428Y-122122380D01*
X138379523Y-121122380D02*
X137760476Y-121122380D01*
X138093809Y-121503333D01*
X137950952Y-121503333D01*
X137855714Y-121550952D01*
X137808095Y-121598571D01*
X137760476Y-121693809D01*
X137760476Y-121931904D01*
X137808095Y-122027142D01*
X137855714Y-122074761D01*
X137950952Y-122122380D01*
X138236666Y-122122380D01*
X138331904Y-122074761D01*
X138379523Y-122027142D01*
X141265238Y-122097619D02*
X141360476Y-122050000D01*
X141455714Y-121954761D01*
X141598571Y-121811904D01*
X141693809Y-121764285D01*
X141789047Y-121764285D01*
X141741428Y-122002380D02*
X141836666Y-121954761D01*
X141931904Y-121859523D01*
X141979523Y-121669047D01*
X141979523Y-121335714D01*
X141931904Y-121145238D01*
X141836666Y-121050000D01*
X141741428Y-121002380D01*
X141550952Y-121002380D01*
X141455714Y-121050000D01*
X141360476Y-121145238D01*
X141312857Y-121335714D01*
X141312857Y-121669047D01*
X141360476Y-121859523D01*
X141455714Y-121954761D01*
X141550952Y-122002380D01*
X141741428Y-122002380D01*
X140408095Y-121002380D02*
X140884285Y-121002380D01*
X140931904Y-121478571D01*
X140884285Y-121430952D01*
X140789047Y-121383333D01*
X140550952Y-121383333D01*
X140455714Y-121430952D01*
X140408095Y-121478571D01*
X140360476Y-121573809D01*
X140360476Y-121811904D01*
X140408095Y-121907142D01*
X140455714Y-121954761D01*
X140550952Y-122002380D01*
X140789047Y-122002380D01*
X140884285Y-121954761D01*
X140931904Y-121907142D01*
X139189047Y-113922380D02*
X139522380Y-113446190D01*
X139760476Y-113922380D02*
X139760476Y-112922380D01*
X139379523Y-112922380D01*
X139284285Y-112970000D01*
X139236666Y-113017619D01*
X139189047Y-113112857D01*
X139189047Y-113255714D01*
X139236666Y-113350952D01*
X139284285Y-113398571D01*
X139379523Y-113446190D01*
X139760476Y-113446190D01*
X138236666Y-113922380D02*
X138808095Y-113922380D01*
X138522380Y-113922380D02*
X138522380Y-112922380D01*
X138617619Y-113065238D01*
X138712857Y-113160476D01*
X138808095Y-113208095D01*
X137284285Y-113922380D02*
X137855714Y-113922380D01*
X137570000Y-113922380D02*
X137570000Y-112922380D01*
X137665238Y-113065238D01*
X137760476Y-113160476D01*
X137855714Y-113208095D01*
X136712857Y-113350952D02*
X136808095Y-113303333D01*
X136855714Y-113255714D01*
X136903333Y-113160476D01*
X136903333Y-113112857D01*
X136855714Y-113017619D01*
X136808095Y-112970000D01*
X136712857Y-112922380D01*
X136522380Y-112922380D01*
X136427142Y-112970000D01*
X136379523Y-113017619D01*
X136331904Y-113112857D01*
X136331904Y-113160476D01*
X136379523Y-113255714D01*
X136427142Y-113303333D01*
X136522380Y-113350952D01*
X136712857Y-113350952D01*
X136808095Y-113398571D01*
X136855714Y-113446190D01*
X136903333Y-113541428D01*
X136903333Y-113731904D01*
X136855714Y-113827142D01*
X136808095Y-113874761D01*
X136712857Y-113922380D01*
X136522380Y-113922380D01*
X136427142Y-113874761D01*
X136379523Y-113827142D01*
X136331904Y-113731904D01*
X136331904Y-113541428D01*
X136379523Y-113446190D01*
X136427142Y-113398571D01*
X136522380Y-113350952D01*
X145789047Y-114272380D02*
X146122380Y-113796190D01*
X146360476Y-114272380D02*
X146360476Y-113272380D01*
X145979523Y-113272380D01*
X145884285Y-113320000D01*
X145836666Y-113367619D01*
X145789047Y-113462857D01*
X145789047Y-113605714D01*
X145836666Y-113700952D01*
X145884285Y-113748571D01*
X145979523Y-113796190D01*
X146360476Y-113796190D01*
X144836666Y-114272380D02*
X145408095Y-114272380D01*
X145122380Y-114272380D02*
X145122380Y-113272380D01*
X145217619Y-113415238D01*
X145312857Y-113510476D01*
X145408095Y-113558095D01*
X143884285Y-114272380D02*
X144455714Y-114272380D01*
X144170000Y-114272380D02*
X144170000Y-113272380D01*
X144265238Y-113415238D01*
X144360476Y-113510476D01*
X144455714Y-113558095D01*
X143408095Y-114272380D02*
X143217619Y-114272380D01*
X143122380Y-114224761D01*
X143074761Y-114177142D01*
X142979523Y-114034285D01*
X142931904Y-113843809D01*
X142931904Y-113462857D01*
X142979523Y-113367619D01*
X143027142Y-113320000D01*
X143122380Y-113272380D01*
X143312857Y-113272380D01*
X143408095Y-113320000D01*
X143455714Y-113367619D01*
X143503333Y-113462857D01*
X143503333Y-113700952D01*
X143455714Y-113796190D01*
X143408095Y-113843809D01*
X143312857Y-113891428D01*
X143122380Y-113891428D01*
X143027142Y-113843809D01*
X142979523Y-113796190D01*
X142931904Y-113700952D01*
M02*
