M48
; DRILL file {KiCad (5.1.0)-1} date 04/06/2019 19:05:21
; FORMAT={-:-/ absolute / metric / decimal}
; #@! TF.CreationDate,2019-06-04T19:05:21+05:30
; #@! TF.GenerationSoftware,Kicad,Pcbnew,(5.1.0)-1
FMAT,2
METRIC
T1C0.400
T2C0.800
T3C0.950
T4C1.000
T5C1.100
T6C1.500
T7C1.700
T8C3.200
%
G90
G05
T1
X82.47Y-124.97
X82.52Y-116.695
X82.745Y-44.145
X83.295Y-81.645
X83.295Y-114.62
X83.57Y-54.395
X83.77Y-62.545
X83.77Y-70.87
X86.47Y-108.345
X87.77Y-44.67
X88.07Y-130.22
X88.245Y-92.22
X88.645Y-119.62
X88.97Y-72.02
X88.97Y-115.945
X89.045Y-62.77
X89.095Y-97.87
X89.17Y-83.87
X90.22Y-47.72
X90.57Y-127.895
X90.72Y-100.22
X91.52Y-65.92
X92.82Y-130.22
X92.97Y-107.77
X93.17Y-49.97
X94.245Y-77.02
X94.42Y-44.57
X94.645Y-60.845
X94.67Y-92.52
X94.72Y-109.62
X94.895Y-70.62
X95.27Y-42.57
X95.745Y-123.72
X96.395Y-40.595
X96.52Y-99.745
X96.645Y-122.42
X99.145Y-95.095
X99.27Y-79.795
X99.395Y-46.695
X99.445Y-111.07
X99.52Y-89.22
X99.695Y-129.47
X99.945Y-77.345
X99.995Y-62.57
X100.045Y-96.645
X100.095Y-61.17
X100.39Y-65.125
X101.47Y-82.495
X101.795Y-43.795
X101.895Y-92.27
X102.095Y-97.125
X102.22Y-108.22
X102.32Y-54.045
X102.345Y-124.02
X103.67Y-46.695
X103.77Y-67.295
X103.945Y-114.495
X104.87Y-83.62
X105.37Y-131.695
X105.695Y-116.095
X106.97Y-79.17
X107.682Y-47.545
X107.75Y-54.83
X107.82Y-68.72
X107.82Y-83.47
X107.845Y-63.745
X107.895Y-91.57
X109.045Y-93.345
X109.07Y-82.52
X109.257Y-79.307
X109.895Y-63.745
X109.92Y-51.52
X110.07Y-126.795
X110.095Y-47.545
X110.195Y-125.37
X110.245Y-61.27
X110.42Y-75.67
X110.445Y-95.57
X110.92Y-45.32
X111.02Y-131.42
X111.42Y-109.32
X111.695Y-118.195
X111.82Y-67.72
X111.92Y-116.42
X112.32Y-83.145
X112.323Y-120.168
X112.52Y-51.67
X112.62Y-93.345
X112.87Y-67.32
X113.12Y-115.57
X113.27Y-100.095
X113.282Y-106.957
X113.445Y-125.37
X113.695Y-130.97
X113.77Y-95.37
X114.345Y-111.22
X114.67Y-90.72
X114.82Y-83.22
X114.863Y-119.577
X115.42Y-61.32
X115.645Y-46.57
X115.845Y-106.42
X116.07Y-132.92
X116.47Y-49.145
X116.495Y-121.17
X116.62Y-92.32
X116.87Y-43.92
X118.445Y-120.845
X119.72Y-47.995
X120.47Y-43.645
X121.16Y-54.21
X121.98Y-106.495
X122.32Y-75.72
X122.895Y-60.17
X124.12Y-84.17
X124.17Y-102.37
X124.609Y-59.659
X124.62Y-72.72
X124.72Y-132.545
X124.895Y-42.92
X125.42Y-103.22
X128.27Y-43.87
X129.25Y-92.2
X129.87Y-83.57
X130.02Y-126.295
X130.295Y-48.395
X130.42Y-44.72
X130.77Y-76.62
X131.02Y-92.32
X131.07Y-132.995
X132.42Y-64.32
X132.545Y-53.295
X132.67Y-60.37
X132.77Y-69.02
X132.77Y-121.92
X132.92Y-107.97
X133.47Y-90.62
X134.72Y-97.02
X135.42Y-99.42
X135.42Y-128.745
X135.52Y-62.03
X135.57Y-47.745
X135.97Y-98.42
X137.37Y-43.045
X137.57Y-132.97
X138.32Y-75.22
X138.32Y-123.695
X138.47Y-62.47
X139.61Y-103.38
X139.87Y-129.92
X139.92Y-45.895
X140.47Y-49.245
X140.76Y-63.05
X140.82Y-83.47
X141.32Y-104.17
X141.95Y-107.06
X142.02Y-133.92
X143.195Y-46.495
X143.82Y-52.32
X143.837Y-53.77
X144.07Y-123.795
X145.07Y-77.97
X145.57Y-46.67
X146.32Y-127.47
X147.095Y-121.595
X147.495Y-131.945
X147.645Y-44.545
X147.99Y-91.53
X149.07Y-74.97
X149.07Y-127.595
X149.32Y-77.72
X149.43Y-59.99
X149.447Y-69.097
X149.57Y-61.72
X149.57Y-63.72
X149.57Y-65.72
X149.57Y-67.72
X149.57Y-71.72
X150.82Y-41.47
X152.657Y-128.582
X152.845Y-130.02
X158.38Y-111.01
X161.59Y-115.4
X162.45Y-110.15
T2
X147.9Y-80.45
X147.9Y-82.95
X158.6Y-118.48
X158.6Y-121.02
X158.6Y-123.56
X158.6Y-126.1
X166.22Y-118.48
X166.22Y-121.02
X166.22Y-123.56
X166.22Y-126.1
T3
X166.32Y-48.72
X166.32Y-51.22
X166.32Y-53.72
X166.32Y-56.22
X166.32Y-58.72
X166.32Y-61.22
X166.32Y-63.72
X166.32Y-66.22
X166.82Y-83.72
X166.82Y-86.22
X166.82Y-88.72
X166.82Y-91.22
X166.62Y-97.62
X166.62Y-100.12
X166.62Y-102.62
X166.62Y-105.12
T4
X132.12Y-110.4
X134.66Y-110.4
X137.2Y-110.4
X139.74Y-110.4
X142.28Y-110.4
X147.82Y-97.92
X147.82Y-100.46
X147.82Y-103.0
X147.82Y-105.54
X147.82Y-108.08
X147.82Y-110.62
T5
X126.54Y-66.72
X129.08Y-66.72
X131.62Y-66.72
T6
X156.36Y-78.83
X168.83Y-110.23
X142.76Y-74.12
X125.09Y-111.05
X114.37Y-87.63
X161.05Y-78.59
X154.26Y-92.17
X154.6Y-51.96
X149.97Y-56.69
X129.29Y-115.99
T7
X76.12Y-47.96
X76.12Y-51.92
X77.545Y-94.745
X77.545Y-98.705
X77.545Y-102.665
X77.545Y-106.625
X77.545Y-110.585
X77.545Y-114.545
X77.545Y-118.505
X77.545Y-122.465
X77.52Y-60.92
X77.52Y-64.88
X77.52Y-68.84
X77.52Y-72.8
X77.52Y-76.76
X77.52Y-80.72
X77.52Y-84.68
X77.52Y-88.64
T8
X168.07Y-41.47
X75.57Y-41.47
X168.07Y-133.97
X75.57Y-133.97
T0
M30
